<?xml version="1.0" encoding="utf-8" standalone="no"?>
<!DOCTYPE svg PUBLIC "-//W3C//DTD SVG 1.1//EN"
  "http://www.w3.org/Graphics/SVG/1.1/DTD/svg11.dtd">
<svg xmlns:xlink="http://www.w3.org/1999/xlink" width="460.8pt" height="345.6pt" viewBox="0 0 460.8 345.6" xmlns="http://www.w3.org/2000/svg" version="1.1">
 <metadata>
  <rdf:RDF xmlns:dc="http://purl.org/dc/elements/1.1/" xmlns:cc="http://creativecommons.org/ns#" xmlns:rdf="http://www.w3.org/1999/02/22-rdf-syntax-ns#">
   <cc:Work>
    <dc:type rdf:resource="http://purl.org/dc/dcmitype/StillImage"/>
    <dc:date>2024-12-08T13:05:32.187656</dc:date>
    <dc:format>image/svg+xml</dc:format>
    <dc:creator>
     <cc:Agent>
      <dc:title>Matplotlib v3.9.2, https://matplotlib.org/</dc:title>
     </cc:Agent>
    </dc:creator>
   </cc:Work>
  </rdf:RDF>
 </metadata>
 <defs>
  <style type="text/css">*{stroke-linejoin: round; stroke-linecap: butt}</style>
 </defs>
 <g id="figure_1">
  <g id="patch_1">
   <path d="M 0 345.6 
L 460.8 345.6 
L 460.8 0 
L 0 0 
z
" style="fill: #ffffff"/>
  </g>
  <g id="axes_1">
   <g id="patch_2">
    <path d="M 57.6 307.584 
L 414.72 307.584 
L 414.72 41.472 
L 57.6 41.472 
z
" style="fill: #ffffff"/>
   </g>
   <g id="matplotlib.axis_1">
    <g id="xtick_1">
     <g id="line2d_1">
      <defs>
       <path id="m7a9e045a77" d="M 0 0 
L 0 3.5 
" style="stroke: #000000; stroke-width: 0.8"/>
      </defs>
      <g>
       <use xlink:href="#m7a9e045a77" x="57.6" y="307.584" style="stroke: #000000; stroke-width: 0.8"/>
      </g>
     </g>
     <g id="text_1">
      <!-- 600 -->
      <g transform="translate(48.05625 322.182437) scale(0.1 -0.1)">
       <defs>
        <path id="DejaVuSans-36" d="M 2113 2584 
Q 1688 2584 1439 2293 
Q 1191 2003 1191 1497 
Q 1191 994 1439 701 
Q 1688 409 2113 409 
Q 2538 409 2786 701 
Q 3034 994 3034 1497 
Q 3034 2003 2786 2293 
Q 2538 2584 2113 2584 
z
M 3366 4563 
L 3366 3988 
Q 3128 4100 2886 4159 
Q 2644 4219 2406 4219 
Q 1781 4219 1451 3797 
Q 1122 3375 1075 2522 
Q 1259 2794 1537 2939 
Q 1816 3084 2150 3084 
Q 2853 3084 3261 2657 
Q 3669 2231 3669 1497 
Q 3669 778 3244 343 
Q 2819 -91 2113 -91 
Q 1303 -91 875 529 
Q 447 1150 447 2328 
Q 447 3434 972 4092 
Q 1497 4750 2381 4750 
Q 2619 4750 2861 4703 
Q 3103 4656 3366 4563 
z
" transform="scale(0.015625)"/>
        <path id="DejaVuSans-30" d="M 2034 4250 
Q 1547 4250 1301 3770 
Q 1056 3291 1056 2328 
Q 1056 1369 1301 889 
Q 1547 409 2034 409 
Q 2525 409 2770 889 
Q 3016 1369 3016 2328 
Q 3016 3291 2770 3770 
Q 2525 4250 2034 4250 
z
M 2034 4750 
Q 2819 4750 3233 4129 
Q 3647 3509 3647 2328 
Q 3647 1150 3233 529 
Q 2819 -91 2034 -91 
Q 1250 -91 836 529 
Q 422 1150 422 2328 
Q 422 3509 836 4129 
Q 1250 4750 2034 4750 
z
" transform="scale(0.015625)"/>
       </defs>
       <use xlink:href="#DejaVuSans-36"/>
       <use xlink:href="#DejaVuSans-30" x="63.623047"/>
       <use xlink:href="#DejaVuSans-30" x="127.246094"/>
      </g>
     </g>
    </g>
    <g id="xtick_2">
     <g id="line2d_2">
      <g>
       <use xlink:href="#m7a9e045a77" x="102.24" y="307.584" style="stroke: #000000; stroke-width: 0.8"/>
      </g>
     </g>
     <g id="text_2">
      <!-- 650 -->
      <g transform="translate(92.69625 322.182437) scale(0.1 -0.1)">
       <defs>
        <path id="DejaVuSans-35" d="M 691 4666 
L 3169 4666 
L 3169 4134 
L 1269 4134 
L 1269 2991 
Q 1406 3038 1543 3061 
Q 1681 3084 1819 3084 
Q 2600 3084 3056 2656 
Q 3513 2228 3513 1497 
Q 3513 744 3044 326 
Q 2575 -91 1722 -91 
Q 1428 -91 1123 -41 
Q 819 9 494 109 
L 494 744 
Q 775 591 1075 516 
Q 1375 441 1709 441 
Q 2250 441 2565 725 
Q 2881 1009 2881 1497 
Q 2881 1984 2565 2268 
Q 2250 2553 1709 2553 
Q 1456 2553 1204 2497 
Q 953 2441 691 2322 
L 691 4666 
z
" transform="scale(0.015625)"/>
       </defs>
       <use xlink:href="#DejaVuSans-36"/>
       <use xlink:href="#DejaVuSans-35" x="63.623047"/>
       <use xlink:href="#DejaVuSans-30" x="127.246094"/>
      </g>
     </g>
    </g>
    <g id="xtick_3">
     <g id="line2d_3">
      <g>
       <use xlink:href="#m7a9e045a77" x="146.88" y="307.584" style="stroke: #000000; stroke-width: 0.8"/>
      </g>
     </g>
     <g id="text_3">
      <!-- 700 -->
      <g transform="translate(137.33625 322.182437) scale(0.1 -0.1)">
       <defs>
        <path id="DejaVuSans-37" d="M 525 4666 
L 3525 4666 
L 3525 4397 
L 1831 0 
L 1172 0 
L 2766 4134 
L 525 4134 
L 525 4666 
z
" transform="scale(0.015625)"/>
       </defs>
       <use xlink:href="#DejaVuSans-37"/>
       <use xlink:href="#DejaVuSans-30" x="63.623047"/>
       <use xlink:href="#DejaVuSans-30" x="127.246094"/>
      </g>
     </g>
    </g>
    <g id="xtick_4">
     <g id="line2d_4">
      <g>
       <use xlink:href="#m7a9e045a77" x="191.52" y="307.584" style="stroke: #000000; stroke-width: 0.8"/>
      </g>
     </g>
     <g id="text_4">
      <!-- 750 -->
      <g transform="translate(181.97625 322.182437) scale(0.1 -0.1)">
       <use xlink:href="#DejaVuSans-37"/>
       <use xlink:href="#DejaVuSans-35" x="63.623047"/>
       <use xlink:href="#DejaVuSans-30" x="127.246094"/>
      </g>
     </g>
    </g>
    <g id="xtick_5">
     <g id="line2d_5">
      <g>
       <use xlink:href="#m7a9e045a77" x="236.16" y="307.584" style="stroke: #000000; stroke-width: 0.8"/>
      </g>
     </g>
     <g id="text_5">
      <!-- 800 -->
      <g transform="translate(226.61625 322.182437) scale(0.1 -0.1)">
       <defs>
        <path id="DejaVuSans-38" d="M 2034 2216 
Q 1584 2216 1326 1975 
Q 1069 1734 1069 1313 
Q 1069 891 1326 650 
Q 1584 409 2034 409 
Q 2484 409 2743 651 
Q 3003 894 3003 1313 
Q 3003 1734 2745 1975 
Q 2488 2216 2034 2216 
z
M 1403 2484 
Q 997 2584 770 2862 
Q 544 3141 544 3541 
Q 544 4100 942 4425 
Q 1341 4750 2034 4750 
Q 2731 4750 3128 4425 
Q 3525 4100 3525 3541 
Q 3525 3141 3298 2862 
Q 3072 2584 2669 2484 
Q 3125 2378 3379 2068 
Q 3634 1759 3634 1313 
Q 3634 634 3220 271 
Q 2806 -91 2034 -91 
Q 1263 -91 848 271 
Q 434 634 434 1313 
Q 434 1759 690 2068 
Q 947 2378 1403 2484 
z
M 1172 3481 
Q 1172 3119 1398 2916 
Q 1625 2713 2034 2713 
Q 2441 2713 2670 2916 
Q 2900 3119 2900 3481 
Q 2900 3844 2670 4047 
Q 2441 4250 2034 4250 
Q 1625 4250 1398 4047 
Q 1172 3844 1172 3481 
z
" transform="scale(0.015625)"/>
       </defs>
       <use xlink:href="#DejaVuSans-38"/>
       <use xlink:href="#DejaVuSans-30" x="63.623047"/>
       <use xlink:href="#DejaVuSans-30" x="127.246094"/>
      </g>
     </g>
    </g>
    <g id="xtick_6">
     <g id="line2d_6">
      <g>
       <use xlink:href="#m7a9e045a77" x="280.8" y="307.584" style="stroke: #000000; stroke-width: 0.8"/>
      </g>
     </g>
     <g id="text_6">
      <!-- 850 -->
      <g transform="translate(271.25625 322.182437) scale(0.1 -0.1)">
       <use xlink:href="#DejaVuSans-38"/>
       <use xlink:href="#DejaVuSans-35" x="63.623047"/>
       <use xlink:href="#DejaVuSans-30" x="127.246094"/>
      </g>
     </g>
    </g>
    <g id="xtick_7">
     <g id="line2d_7">
      <g>
       <use xlink:href="#m7a9e045a77" x="325.44" y="307.584" style="stroke: #000000; stroke-width: 0.8"/>
      </g>
     </g>
     <g id="text_7">
      <!-- 900 -->
      <g transform="translate(315.89625 322.182437) scale(0.1 -0.1)">
       <defs>
        <path id="DejaVuSans-39" d="M 703 97 
L 703 672 
Q 941 559 1184 500 
Q 1428 441 1663 441 
Q 2288 441 2617 861 
Q 2947 1281 2994 2138 
Q 2813 1869 2534 1725 
Q 2256 1581 1919 1581 
Q 1219 1581 811 2004 
Q 403 2428 403 3163 
Q 403 3881 828 4315 
Q 1253 4750 1959 4750 
Q 2769 4750 3195 4129 
Q 3622 3509 3622 2328 
Q 3622 1225 3098 567 
Q 2575 -91 1691 -91 
Q 1453 -91 1209 -44 
Q 966 3 703 97 
z
M 1959 2075 
Q 2384 2075 2632 2365 
Q 2881 2656 2881 3163 
Q 2881 3666 2632 3958 
Q 2384 4250 1959 4250 
Q 1534 4250 1286 3958 
Q 1038 3666 1038 3163 
Q 1038 2656 1286 2365 
Q 1534 2075 1959 2075 
z
" transform="scale(0.015625)"/>
       </defs>
       <use xlink:href="#DejaVuSans-39"/>
       <use xlink:href="#DejaVuSans-30" x="63.623047"/>
       <use xlink:href="#DejaVuSans-30" x="127.246094"/>
      </g>
     </g>
    </g>
    <g id="xtick_8">
     <g id="line2d_8">
      <g>
       <use xlink:href="#m7a9e045a77" x="370.08" y="307.584" style="stroke: #000000; stroke-width: 0.8"/>
      </g>
     </g>
     <g id="text_8">
      <!-- 950 -->
      <g transform="translate(360.53625 322.182437) scale(0.1 -0.1)">
       <use xlink:href="#DejaVuSans-39"/>
       <use xlink:href="#DejaVuSans-35" x="63.623047"/>
       <use xlink:href="#DejaVuSans-30" x="127.246094"/>
      </g>
     </g>
    </g>
    <g id="xtick_9">
     <g id="line2d_9">
      <g>
       <use xlink:href="#m7a9e045a77" x="414.72" y="307.584" style="stroke: #000000; stroke-width: 0.8"/>
      </g>
     </g>
     <g id="text_9">
      <!-- 1000 -->
      <g transform="translate(401.995 322.182437) scale(0.1 -0.1)">
       <defs>
        <path id="DejaVuSans-31" d="M 794 531 
L 1825 531 
L 1825 4091 
L 703 3866 
L 703 4441 
L 1819 4666 
L 2450 4666 
L 2450 531 
L 3481 531 
L 3481 0 
L 794 0 
L 794 531 
z
" transform="scale(0.015625)"/>
       </defs>
       <use xlink:href="#DejaVuSans-31"/>
       <use xlink:href="#DejaVuSans-30" x="63.623047"/>
       <use xlink:href="#DejaVuSans-30" x="127.246094"/>
       <use xlink:href="#DejaVuSans-30" x="190.869141"/>
      </g>
     </g>
    </g>
    <g id="text_10">
     <!-- x(t) -->
     <g transform="translate(227.338906 335.860562) scale(0.1 -0.1)">
      <defs>
       <path id="DejaVuSans-78" d="M 3513 3500 
L 2247 1797 
L 3578 0 
L 2900 0 
L 1881 1375 
L 863 0 
L 184 0 
L 1544 1831 
L 300 3500 
L 978 3500 
L 1906 2253 
L 2834 3500 
L 3513 3500 
z
" transform="scale(0.015625)"/>
       <path id="DejaVuSans-28" d="M 1984 4856 
Q 1566 4138 1362 3434 
Q 1159 2731 1159 2009 
Q 1159 1288 1364 580 
Q 1569 -128 1984 -844 
L 1484 -844 
Q 1016 -109 783 600 
Q 550 1309 550 2009 
Q 550 2706 781 3412 
Q 1013 4119 1484 4856 
L 1984 4856 
z
" transform="scale(0.015625)"/>
       <path id="DejaVuSans-74" d="M 1172 4494 
L 1172 3500 
L 2356 3500 
L 2356 3053 
L 1172 3053 
L 1172 1153 
Q 1172 725 1289 603 
Q 1406 481 1766 481 
L 2356 481 
L 2356 0 
L 1766 0 
Q 1100 0 847 248 
Q 594 497 594 1153 
L 594 3053 
L 172 3053 
L 172 3500 
L 594 3500 
L 594 4494 
L 1172 4494 
z
" transform="scale(0.015625)"/>
       <path id="DejaVuSans-29" d="M 513 4856 
L 1013 4856 
Q 1481 4119 1714 3412 
Q 1947 2706 1947 2009 
Q 1947 1309 1714 600 
Q 1481 -109 1013 -844 
L 513 -844 
Q 928 -128 1133 580 
Q 1338 1288 1338 2009 
Q 1338 2731 1133 3434 
Q 928 4138 513 4856 
z
" transform="scale(0.015625)"/>
      </defs>
      <use xlink:href="#DejaVuSans-78"/>
      <use xlink:href="#DejaVuSans-28" x="59.179688"/>
      <use xlink:href="#DejaVuSans-74" x="98.193359"/>
      <use xlink:href="#DejaVuSans-29" x="137.402344"/>
     </g>
    </g>
   </g>
   <g id="matplotlib.axis_2">
    <g id="ytick_1">
     <g id="line2d_10">
      <defs>
       <path id="mca60c3eb0c" d="M 0 0 
L -3.5 0 
" style="stroke: #000000; stroke-width: 0.8"/>
      </defs>
      <g>
       <use xlink:href="#mca60c3eb0c" x="57.6" y="256.512" style="stroke: #000000; stroke-width: 0.8"/>
      </g>
     </g>
     <g id="text_11">
      <!-- 200 -->
      <g transform="translate(31.5125 260.311219) scale(0.1 -0.1)">
       <defs>
        <path id="DejaVuSans-32" d="M 1228 531 
L 3431 531 
L 3431 0 
L 469 0 
L 469 531 
Q 828 903 1448 1529 
Q 2069 2156 2228 2338 
Q 2531 2678 2651 2914 
Q 2772 3150 2772 3378 
Q 2772 3750 2511 3984 
Q 2250 4219 1831 4219 
Q 1534 4219 1204 4116 
Q 875 4013 500 3803 
L 500 4441 
Q 881 4594 1212 4672 
Q 1544 4750 1819 4750 
Q 2544 4750 2975 4387 
Q 3406 4025 3406 3419 
Q 3406 3131 3298 2873 
Q 3191 2616 2906 2266 
Q 2828 2175 2409 1742 
Q 1991 1309 1228 531 
z
" transform="scale(0.015625)"/>
       </defs>
       <use xlink:href="#DejaVuSans-32"/>
       <use xlink:href="#DejaVuSans-30" x="63.623047"/>
       <use xlink:href="#DejaVuSans-30" x="127.246094"/>
      </g>
     </g>
    </g>
    <g id="ytick_2">
     <g id="line2d_11">
      <g>
       <use xlink:href="#mca60c3eb0c" x="57.6" y="202.752" style="stroke: #000000; stroke-width: 0.8"/>
      </g>
     </g>
     <g id="text_12">
      <!-- 400 -->
      <g transform="translate(31.5125 206.551219) scale(0.1 -0.1)">
       <defs>
        <path id="DejaVuSans-34" d="M 2419 4116 
L 825 1625 
L 2419 1625 
L 2419 4116 
z
M 2253 4666 
L 3047 4666 
L 3047 1625 
L 3713 1625 
L 3713 1100 
L 3047 1100 
L 3047 0 
L 2419 0 
L 2419 1100 
L 313 1100 
L 313 1709 
L 2253 4666 
z
" transform="scale(0.015625)"/>
       </defs>
       <use xlink:href="#DejaVuSans-34"/>
       <use xlink:href="#DejaVuSans-30" x="63.623047"/>
       <use xlink:href="#DejaVuSans-30" x="127.246094"/>
      </g>
     </g>
    </g>
    <g id="ytick_3">
     <g id="line2d_12">
      <g>
       <use xlink:href="#mca60c3eb0c" x="57.6" y="148.992" style="stroke: #000000; stroke-width: 0.8"/>
      </g>
     </g>
     <g id="text_13">
      <!-- 600 -->
      <g transform="translate(31.5125 152.791219) scale(0.1 -0.1)">
       <use xlink:href="#DejaVuSans-36"/>
       <use xlink:href="#DejaVuSans-30" x="63.623047"/>
       <use xlink:href="#DejaVuSans-30" x="127.246094"/>
      </g>
     </g>
    </g>
    <g id="ytick_4">
     <g id="line2d_13">
      <g>
       <use xlink:href="#mca60c3eb0c" x="57.6" y="95.232" style="stroke: #000000; stroke-width: 0.8"/>
      </g>
     </g>
     <g id="text_14">
      <!-- 800 -->
      <g transform="translate(31.5125 99.031219) scale(0.1 -0.1)">
       <use xlink:href="#DejaVuSans-38"/>
       <use xlink:href="#DejaVuSans-30" x="63.623047"/>
       <use xlink:href="#DejaVuSans-30" x="127.246094"/>
      </g>
     </g>
    </g>
    <g id="ytick_5">
     <g id="line2d_14">
      <g>
       <use xlink:href="#mca60c3eb0c" x="57.6" y="41.472" style="stroke: #000000; stroke-width: 0.8"/>
      </g>
     </g>
     <g id="text_15">
      <!-- 1000 -->
      <g transform="translate(25.15 45.271219) scale(0.1 -0.1)">
       <use xlink:href="#DejaVuSans-31"/>
       <use xlink:href="#DejaVuSans-30" x="63.623047"/>
       <use xlink:href="#DejaVuSans-30" x="127.246094"/>
       <use xlink:href="#DejaVuSans-30" x="190.869141"/>
      </g>
     </g>
    </g>
    <g id="text_16">
     <!-- y(t) -->
     <g transform="translate(19.070312 183.349094) rotate(-90) scale(0.1 -0.1)">
      <defs>
       <path id="DejaVuSans-79" d="M 2059 -325 
Q 1816 -950 1584 -1140 
Q 1353 -1331 966 -1331 
L 506 -1331 
L 506 -850 
L 844 -850 
Q 1081 -850 1212 -737 
Q 1344 -625 1503 -206 
L 1606 56 
L 191 3500 
L 800 3500 
L 1894 763 
L 2988 3500 
L 3597 3500 
L 2059 -325 
z
" transform="scale(0.015625)"/>
      </defs>
      <use xlink:href="#DejaVuSans-79"/>
      <use xlink:href="#DejaVuSans-28" x="59.179688"/>
      <use xlink:href="#DejaVuSans-74" x="98.193359"/>
      <use xlink:href="#DejaVuSans-29" x="137.402344"/>
     </g>
    </g>
   </g>
   <g id="line2d_15">
    <path d="M 255.726891 122.551425 
L 255.690272 123.319615 
L 255.494537 124.318263 
L 255.029228 125.564728 
L 254.31805 127.096137 
L 253.455929 128.543709 
L 251.116089 131.133485 
L 251.115762 132.351846 
L 250.629365 134.092172 
L 248.637621 135.731271 
L 246.717371 136.875919 
L 244.511636 139.335626 
L 243.146825 140.535185 
L 238.495917 143.677245 
L 235.74793 145.513301 
L 234.421808 146.256127 
L 233.077704 146.835136 
L 232.00508 147.45147 
L 231.213799 148.042964 
L 230.472977 149.358893 
L 229.768066 150.060506 
L 228.911885 150.898357 
L 226.839547 153.166095 
L 224.483305 155.331637 
L 223.37537 156.542091 
L 222.661195 157.937327 
L 222.036606 159.523697 
L 221.048608 161.193525 
L 218.397618 163.361513 
L 216.428924 165.277779 
L 213.884248 166.960305 
L 210.028598 168.948497 
L 207.704779 170.078461 
L 206.804677 170.553159 
L 205.419649 171.456225 
L 204.228232 172.59915 
L 203.757801 172.683511 
L 203.32219 173.182245 
L 202.550145 174.309436 
L 199.748702 177.93753 
L 199.2859 179.07126 
L 198.365908 182.313643 
L 196.098597 184.814604 
L 191.922915 188.643355 
L 190.913992 189.926939 
L 189.604818 190.320697 
L 188.190582 191.196799 
L 187.715301 191.824675 
L 187.57482 192.282811 
L 186.601154 194.184336 
L 186.363949 194.987759 
L 186.451573 195.753545 
L 186.75395 196.7024 
L 188.067811 200.149017 
L 188.436778 202.322829 
L 188.377109 203.13785 
L 187.110383 205.160323 
L 186.275508 206.262478 
L 185.596318 207.327178 
L 185.37448 207.314865 
L 185.416712 207.40131 
L 185.437364 207.657329 
L 184.84814 207.831441 
L 184.357874 207.869749 
L 184.438359 208.154734 
L 184.68341 208.500561 
L 185.126323 211.327621 
L 185.163268 212.004559 
L 186.325587 213.918381 
L 186.823536 214.999799 
L 187.752192 218.164228 
L 187.898885 220.413246 
L 187.695357 220.852745 
L 186.819722 221.554457 
L 185.82573 223.469689 
L 185.998252 223.608125 
L 186.47337 223.82614 
L 185.977327 223.694135 
L 185.432133 223.654514 
L 185.327889 224.339729 
L 185.583022 224.81898 
L 185.858752 226.00932 
L 187.149563 229.198883 
L 187.682115 231.352909 
L 187.954195 233.259873 
L 187.890984 233.909831 
L 187.598415 234.476552 
L 187.648603 234.826588 
L 186.940531 236.28891 
L 186.793021 237.783839 
L 187.280889 237.774799 
L 186.893777 237.845814 
L 186.150503 238.158927 
L 185.727916 238.563964 
L 185.628414 239.368281 
L 185.770366 240.944823 
L 187.113053 244.99373 
L 187.323993 245.970016 
L 187.051259 247.155462 
L 186.800922 247.460024 
L 185.474855 248.673783 
L 184.938052 249.58586 
L 184.906229 250.112775 
L 185.603565 250.054721 
L 185.278901 250.484118 
L 185.296665 251.108122 
L 185.468643 251.640952 
L 185.812597 252.200089 
L 186.486666 253.647928 
L 187.337398 255.232792 
L 188.097073 258.541777 
L 188.012937 259.511198 
L 187.11022 260.773597 
L 186.749808 261.449514 
L 186.589874 261.461757 
L 186.941566 261.332111 
L 187.026029 261.221754 
L 186.98576 261.06263 
L 186.480127 260.983934 
L 186.522794 261.018727 
L 186.710411 261.474337 
L 187.561579 262.326715 
L 188.073151 262.817837 
L 188.388225 263.33579 
L 189.414803 264.789326 
L 189.788402 265.545076 
L 189.895588 267.076505 
L 189.840714 267.744211 
L 190.202815 269.852652 
L 189.829707 270.686089 
L 188.777735 271.709085 
L 188.870208 271.816989 
L 189.066108 271.773853 
L 189.102727 271.543841 
L 189.463138 271.30054 
L 191.01562 271.311405 
L 191.280943 271.548262 
L 191.344426 272.24764 
L 191.536511 273.467408 
L 191.962313 275.604105 
L 191.899375 276.523567 
L 191.678681 277.387833 
L 191.675357 278.314487 
L 191.901282 280.222452 
L 191.323556 280.97448 
L 190.096337 282.176223 
L 190.0231 282.446754 
L 190.162872 282.592037 
L 190.305151 282.114099 
L 190.518325 282.026848 
L 191.362736 281.950889 
L 191.793333 282.006045 
L 191.758185 282.113455 
L 191.420279 282.559325 
L 190.987175 282.785229 
L 188.563199 286.043004 
L 187.88063 287.464267 
L 186.624313 288.704413 
L 186.235675 288.951752 
L 184.35346 289.576139 
L 183.675523 289.677107 
L 183.147166 289.399706 
L 183.19027 289.361537 
L 183.881122 289.299064 
L 182.35 290.97753 
L 182.001577 291.498293 
L 180.689732 292.716632 
L 179.55624 294.011377 
L 179.21452 294.601857 
L 178.819506 295.033968 
L 177.670756 295.579934 
L 173.709664 296.682232 
L 173.822736 296.71492 
L 174.209194 296.765683 
L 174.561268 296.816868 
L 173.170682 298.162521 
L 172.870594 298.626011 
L 171.859328 299.664216 
L 170.794823 301.047327 
L 170.451032 301.811005 
L 169.874286 302.779113 
L 169.637736 303.236768 
L 168.683251 304.038381 
L 167.250705 304.707536 
L 167.697868 304.595669 
L 168.078551 304.398309 
L 168.078551 304.398309 
" clip-path="url(#pe8886e0d47)" style="fill: none; stroke: #0000ff; stroke-width: 1.5; stroke-linecap: square"/>
   </g>
   <g id="line2d_16">
    <path d="M 398.6496 83.6736 
L 398.092526 84.34939 
L 397.340262 84.518686 
L 395.957087 84.47283 
L 394.992466 84.82458 
L 389.217329 85.554855 
L 387.737594 86.554095 
L 386.671182 88.231207 
L 386.323249 89.041003 
L 385.017126 89.708934 
L 384.341695 90.303152 
L 383.421268 90.822886 
L 382.525035 91.46903 
L 381.487068 91.904648 
L 379.61379 93.115364 
L 377.023994 95.666831 
L 375.118511 96.946223 
L 371.628777 98.225763 
L 369.711306 99.278963 
L 368.269987 100.518209 
L 365.963769 101.56811 
L 363.778632 103.23948 
L 362.057769 103.69413 
L 361.32049 104.239359 
L 360.6874 105.024169 
L 358.415239 106.818471 
L 356.167164 107.517443 
L 354.919565 108.431796 
L 354.781318 109.42129 
L 354.937112 110.4045 
L 354.62667 111.524374 
L 354.695057 112.603889 
L 352.719661 114.013301 
L 352.167165 115.036017 
L 351.767519 116.355244 
L 350.424613 117.945223 
L 347.985652 120.026749 
L 341.295483 122.803474 
L 329.344202 124.748386 
L 326.329694 125.585613 
L 326.295364 125.713155 
L 326.324408 125.870508 
L 325.229279 126.572285 
L 322.529136 129.468415 
L 320.907667 130.759472 
L 319.800222 132.303366 
L 320.756179 134.154319 
L 321.713116 135.452939 
L 318.627877 136.460791 
L 319.036623 136.987514 
L 319.004691 137.036733 
L 317.907763 137.466708 
L 317.732353 137.787516 
L 318.15167 138.765377 
L 317.550512 140.064195 
L 316.681798 141.412526 
L 306.491432 144.187151 
L 304.11372 146.051048 
L 301.707399 147.285701 
L 300.89928 148.124651 
L 300.172082 148.608602 
L 298.774194 149.348934 
L 296.937153 151.205121 
L 295.503191 152.439675 
L 294.830757 153.790237 
L 293.993757 155.161751 
L 293.540873 156.705743 
L 295.267022 159.324902 
L 295.225063 160.216172 
L 295.85363 162.114785 
L 296.579739 164.312271 
L 296.874378 166.097222 
L 296.181782 168.943969 
L 295.214818 169.989162 
L 294.968078 170.753923 
L 293.377996 172.295913 
L 293.058399 172.752081 
L 293.206018 173.336291 
L 293.831262 174.354578 
L 292.409179 176.39645 
L 291.456274 178.599949 
L 291.934334 180.185843 
L 291.934171 181.294331 
L 292.156553 182.290642 
L 293.184385 183.27208 
L 294.160558 183.9129 
L 294.142794 184.494559 
L 294.30033 184.704715 
L 294.385502 185.014818 
L 294.263603 185.412784 
L 294.794411 185.72963 
L 295.789438 187.315138 
L 295.979398 188.205907 
L 295.995092 189.292583 
L 296.650306 191.071579 
L 296.491407 191.902629 
L 295.947738 192.581774 
L 295.791564 193.01156 
L 296.253984 193.730449 
L 296.514021 194.924398 
L 296.532113 196.775154 
L 296.961511 199.11279 
L 296.903477 200.49578 
L 296.999928 201.239877 
L 298.412965 202.416697 
L 299.017174 203.162845 
L 299.278737 203.411064 
L 300.103585 205.338322 
L 300.612814 207.824443 
L 300.674227 208.831959 
L 300.560393 209.24949 
L 299.692986 210.311098 
L 299.079513 211.652227 
L 299.356987 213.197917 
L 298.553609 215.847067 
L 298.647554 216.226355 
L 299.976182 218.374975 
L 300.106364 219.035047 
L 299.7532 220.339607 
L 299.9206 221.362307 
L 300.104893 221.883369 
L 300.101405 223.019108 
L 299.385432 224.762477 
L 299.056518 226.831289 
L 299.158309 227.303362 
L 299.021043 228.213737 
L 298.326922 229.66656 
L 298.221861 230.177483 
L 298.314443 231.642963 
L 298.522331 232.0643 
L 298.531431 233.000671 
L 298.53312 234.079775 
L 298.435089 234.371946 
L 298.718557 235.125534 
L 297.996645 237.771116 
L 296.585351 241.478797 
L 296.258671 242.011201 
L 296.136608 244.372774 
L 296.660442 245.45671 
L 296.746321 245.906098 
L 296.977804 247.382894 
L 297.140899 249.107511 
L 296.927181 249.446525 
L 296.799669 250.933325 
L 296.716351 251.103134 
L 296.655319 251.783444 
L 296.313054 253.339253 
L 295.967573 255.425225 
L 295.959618 256.153954 
L 297.514661 258.148938 
L 297.507359 258.350087 
L 297.763908 258.625429 
L 298.256463 259.633839 
L 298.50255 260.743721 
L 298.433018 262.782809 
L 297.763254 263.836312 
L 297.782599 264.132588 
L 297.440443 264.499366 
L 296.866477 264.808973 
L 295.550272 265.846668 
L 294.087266 266.729866 
L 293.988472 267.030432 
L 294.295699 267.54056 
L 294.365558 267.982266 
L 294.304254 268.607623 
L 294.030322 269.140317 
L 292.698969 270.503935 
L 292.401005 270.655258 
L 293.211795 271.287752 
L 293.418647 271.747225 
L 293.797967 273.720503 
L 294.426153 274.539044 
L 294.730437 275.202837 
L 294.644558 275.319173 
L 294.940178 277.174335 
L 294.834572 277.792533 
L 294.390896 279.339425 
L 295.085072 279.989799 
L 295.771946 280.741121 
L 297.495534 282.709531 
L 298.177177 283.880633 
L 298.504021 284.347988 
L 298.674582 285.023429 
L 298.756538 285.444241 
L 298.96339 285.871598 
L 299.169316 288.532113 
L 298.735777 289.348718 
L 298.647554 289.427638 
L 298.738992 289.530887 
L 298.756102 290.037446 
L 299.007747 290.629869 
L 299.007747 290.629869 
" clip-path="url(#pe8886e0d47)" style="fill: none; stroke: #008000; stroke-width: 1.5; stroke-linecap: square"/>
   </g>
   <g id="line2d_17">
    <path d="M 253.1232 121.3056 
L 253.257796 122.136084 
L 253.128813 122.888754 
L 252.381071 125.225283 
L 250.778619 128.261161 
L 249.015415 130.832348 
L 248.831777 132.00574 
L 248.202174 133.799566 
L 246.299797 135.392925 
L 244.496378 136.475623 
L 242.358377 138.79143 
L 240.94376 139.725717 
L 237.536745 141.537213 
L 233.476042 144.30503 
L 231.035882 146.223019 
L 229.329568 147.748177 
L 227.010489 147.149791 
L 226.598201 147.623013 
L 225.575002 148.255441 
L 225.148001 148.594706 
L 222.408352 151.588929 
L 221.507378 152.547415 
L 219.36262 154.599082 
L 218.457777 155.759316 
L 217.936014 157.038806 
L 217.894219 158.342184 
L 217.519312 160.112205 
L 215.855121 162.705623 
L 214.905976 163.400871 
L 213.766708 164.094544 
L 207.167323 167.364277 
L 204.959299 168.823465 
L 204.09805 169.62957 
L 203.10493 171.249572 
L 202.860642 171.980421 
L 202.349178 172.512738 
L 201.190456 172.839871 
L 200.377596 173.701814 
L 198.414079 176.043101 
L 197.598713 176.940785 
L 197.075969 177.957645 
L 196.835004 179.045707 
L 196.708419 180.175072 
L 196.635945 182.633171 
L 194.882113 184.59832 
L 192.776699 186.479453 
L 191.96858 187.062982 
L 189.92169 189.099596 
L 189.580732 190.843573 
L 189.16294 190.933044 
L 188.37324 191.380344 
L 187.240402 193.453897 
L 186.260087 195.366915 
L 186.076557 196.197531 
L 186.554127 197.985115 
L 187.239857 201.426687 
L 187.14722 202.560449 
L 186.651559 204.390574 
L 184.806671 207.24399 
L 183.428401 208.203403 
L 183.349714 208.147392 
L 183.641792 208.149435 
L 183.624572 208.291775 
L 182.897974 208.753267 
L 182.556144 208.827152 
L 182.465578 208.986555 
L 182.640934 209.359387 
L 182.966307 209.753671 
L 183.316801 210.489885 
L 183.350695 211.872243 
L 183.675959 213.317141 
L 184.823455 215.03481 
L 185.255524 216.013631 
L 185.504989 217.07464 
L 185.864474 219.271511 
L 185.6428 222.152309 
L 185.456763 222.750267 
L 183.692742 224.403525 
L 183.299581 224.839259 
L 184.162301 225.235519 
L 183.899867 224.990073 
L 183.866845 225.02419 
L 183.951853 225.054353 
L 184.199683 225.409958 
L 184.201209 225.740364 
L 184.458793 226.211108 
L 184.496175 226.752982 
L 184.669951 227.426319 
L 185.549509 229.708757 
L 185.905833 231.630445 
L 186.050238 234.984925 
L 185.410009 237.424075 
L 184.955272 238.279611 
L 184.223115 239.192512 
L 184.415418 239.331285 
L 185.263534 239.294592 
L 185.191713 239.403202 
L 185.217325 239.513771 
L 184.829831 242.623519 
L 185.117985 244.702666 
L 185.108231 247.433204 
L 184.156198 249.332937 
L 182.581483 250.638394 
L 182.165217 250.902629 
L 182.043373 251.11493 
L 182.186197 251.4111 
L 183.114471 251.459109 
L 183.370693 251.763404 
L 183.375053 251.992542 
L 183.622393 253.15693 
L 184.187368 254.310417 
L 185.072866 256.525769 
L 185.406467 258.984557 
L 185.328707 259.700875 
L 184.884486 260.810134 
L 183.483656 262.414641 
L 183.645225 262.492923 
L 183.873929 262.252305 
L 183.556839 262.267206 
L 183.606917 262.310395 
L 184.156307 263.181514 
L 185.054883 264.098041 
L 186.247717 265.906342 
L 186.573254 266.567181 
L 186.683655 267.246704 
L 186.616956 270.330267 
L 185.893028 271.392141 
L 185.216398 272.055224 
L 185.20114 272.257948 
L 185.324293 272.422605 
L 185.722849 272.409291 
L 186.053671 272.312847 
L 186.736948 272.662341 
L 188.227691 276.46662 
L 188.32763 277.249697 
L 188.308884 278.002715 
L 188.433835 278.823456 
L 188.268015 280.422877 
L 187.651818 281.150127 
L 187.253698 281.477708 
L 186.479527 282.407537 
L 186.685344 282.931097 
L 186.42825 282.351454 
L 186.566388 282.547544 
L 186.738147 282.787514 
L 186.376046 283.365434 
L 185.917604 283.564368 
L 185.434476 284.144202 
L 183.996972 287.244663 
L 183.20313 288.029231 
L 182.308695 288.540925 
L 180.465551 289.195576 
L 179.760695 289.390271 
L 179.100086 289.090674 
L 178.484542 289.098803 
L 178.45261 289.358832 
L 178.415773 289.478975 
L 176.984154 291.264223 
L 176.464953 292.193539 
L 175.775409 294.003235 
L 175.352767 294.255909 
L 171.080198 295.61511 
L 169.971064 296.024444 
L 169.569457 295.888168 
L 168.759649 296.10234 
L 168.43117 296.406985 
L 167.046632 297.816497 
L 166.696738 298.739903 
L 166.447981 300.79138 
L 166.337852 301.256132 
L 166.1407 301.514982 
L 165.835979 301.576072 
L 164.026839 302.774074 
L 163.674874 303.102722 
L 163.212834 303.69516 
L 162.956612 303.427072 
L 162.455938 303.312484 
L 161.458949 303.389692 
L 161.458949 303.389692 
" clip-path="url(#pe8886e0d47)" style="fill: none; stroke: #ffa500; stroke-width: 1.5; stroke-linecap: square"/>
   </g>
   <g id="line2d_18">
    <path d="M 253.1232 121.3056 
L 251.3376 122.9184 
L 248.6592 126.144 
L 246.8736 128.832 
L 245.9808 131.52 
L 244.1952 134.208 
L 243.3024 135.2832 
L 242.4096 136.6272 
L 240.624 138.5088 
L 238.8384 139.3152 
L 233.4816 142.5408 
L 230.8032 144.96 
L 229.0176 146.0352 
L 227.232 147.3792 
L 225.4464 148.4544 
L 224.5536 149.5296 
L 220.0896 154.0992 
L 219.1968 154.9056 
L 216.5184 157.056 
L 215.6256 157.8624 
L 208.4832 166.464 
L 204.912 169.6896 
L 204.0192 170.2272 
L 203.1264 171.0336 
L 200.448 172.6464 
L 198.6624 173.4528 
L 195.0912 175.6032 
L 194.1984 176.4096 
L 191.52 179.0976 
L 188.8416 181.5168 
L 187.9488 182.8608 
L 187.056 183.6672 
L 186.1632 184.2048 
L 184.3776 185.8176 
L 183.4848 187.6992 
L 182.592 188.5056 
L 181.6992 189.5808 
L 179.9136 191.1936 
L 179.0208 192.2688 
L 178.128 193.0752 
L 174.5568 195.2256 
L 170.9856 198.4512 
L 170.0928 200.064 
L 169.2 200.8704 
L 169.2 201.1392 
L 167.4144 202.752 
L 166.5216 203.0208 
L 163.8432 204.6336 
L 163.8432 207.3216 
L 162.9504 208.128 
L 162.9504 208.6656 
L 162.0576 209.7408 
L 161.1648 210.2784 
L 158.4864 211.0848 
L 157.5936 211.0848 
L 155.808 212.16 
L 150.4512 213.7728 
L 150.4512 214.0416 
L 149.5584 214.3104 
L 149.5584 216.7296 
L 145.9872 217.8048 
L 145.0944 217.8048 
L 143.3088 218.3424 
L 143.3088 218.6112 
L 139.7376 219.6864 
L 137.952 219.6864 
L 137.0592 219.9552 
L 135.2736 219.9552 
L 134.3808 220.224 
L 134.3808 220.4928 
L 133.488 220.4928 
L 130.8096 221.2992 
L 130.8096 221.568 
L 129.9168 221.8368 
L 129.9168 223.7184 
L 129.024 223.9872 
L 128.1312 223.9872 
L 128.1312 227.2128 
L 127.2384 227.4816 
L 127.2384 228.288 
L 126.3456 228.5568 
L 126.3456 228.5568 
L 120.9888 228.5568 
L 120.9888 228.8256 
L 120.096 228.8256 
L 120.096 228.8256 
L 120.096 229.0944 
L 119.2032 229.0944 
L 119.2032 229.3632 
L 119.2032 229.3632 
L 115.632 229.3632 
L 115.632 229.3632 
L 114.7392 229.632 
L 114.7392 229.632 
L 112.9536 229.632 
L 112.9536 229.9008 
L 112.9536 229.9008 
L 106.704 229.9008 
L 106.704 230.1696 
L 104.9184 230.1696 
L 104.9184 230.4384 
L 102.24 230.4384 
L 101.3472 230.7072 
L 99.5616 230.7072 
L 99.5616 230.7072 
L 96.8832 231.5136 
L 95.9904 231.5136 
L 95.0976 231.7824 
L 94.2048 231.7824 
L 90.6336 232.8576 
L 89.7408 232.8576 
L 88.848 233.1264 
L 87.9552 233.1264 
L 87.0624 233.3952 
L 87.0624 233.3952 
L 85.2768 233.3952 
L 85.2768 233.3952 
L 85.2768 231.2448 
L 84.384 230.976 
L 84.384 228.288 
L 85.2768 227.2128 
L 85.2768 226.1376 
L 86.1696 225.3312 
L 86.1696 223.4496 
L 85.2768 222.6432 
L 85.2768 221.0304 
L 84.384 220.4928 
L 83.4912 219.4176 
L 82.5984 219.1488 
L 82.5984 218.3424 
L 83.4912 217.536 
L 83.4912 216.192 
L 84.384 215.1168 
L 84.384 211.0848 
L 83.4912 210.816 
L 83.4912 210.5472 
L 82.5984 210.2784 
L 81.7056 209.7408 
L 80.8128 208.9344 
L 79.92 208.3968 
L 77.2416 207.5904 
L 77.2416 206.784 
L 75.456 206.2464 
L 75.456 205.9776 
L 74.5632 205.44 
L 74.5632 203.8272 
L 74.5632 205.1712 
L 73.6704 205.44 
L 73.6704 208.3968 
L 72.7776 208.6656 
L 72.7776 208.9344 
L 71.8848 209.2032 
L 66.528 209.2032 
L 66.528 209.2032 
" clip-path="url(#pe8886e0d47)" style="fill: none; stroke: #ffff00; stroke-width: 1.5; stroke-linecap: square"/>
   </g>
   <g id="line2d_19">
    <path d="M 253.1232 121.3056 
L 252.2304 122.9184 
L 250.4448 125.0688 
L 248.6592 127.7568 
L 246.8736 129.1008 
L 245.9808 131.52 
L 244.1952 132.864 
L 243.3024 134.208 
L 239.7312 136.3584 
L 237.0528 138.24 
L 233.4816 139.8528 
L 229.9104 142.0032 
L 226.3392 144.4224 
L 224.5536 145.7664 
L 222.768 146.8416 
L 220.9824 148.1856 
L 218.304 151.4112 
L 214.7328 154.6368 
L 212.0544 156.7872 
L 210.2688 158.4 
L 209.376 159.4752 
L 206.6976 161.6256 
L 204.912 163.776 
L 203.1264 164.8512 
L 200.448 167.2704 
L 199.5552 167.808 
L 195.984 168.8832 
L 190.6272 171.3024 
L 186.1632 173.184 
L 182.592 175.3344 
L 180.8064 177.4848 
L 178.128 179.904 
L 174.5568 182.0544 
L 173.664 182.8608 
L 171.8784 183.936 
L 170.9856 185.8176 
L 170.0928 186.3552 
L 169.2 187.1616 
L 168.3072 187.6992 
L 166.5216 189.312 
L 163.8432 190.9248 
L 162.9504 191.1936 
L 158.4864 193.8816 
L 157.5936 194.688 
L 157.5936 195.2256 
L 155.808 196.8384 
L 154.9152 197.376 
L 154.0224 198.1824 
L 153.1296 198.72 
L 152.2368 198.9888 
L 151.344 199.5264 
L 146.88 200.8704 
L 145.9872 200.8704 
L 145.9872 200.8704 
L 145.0944 201.1392 
L 141.5232 201.1392 
L 141.5232 201.1392 
L 141.5232 201.408 
L 140.6304 201.408 
L 139.7376 201.6768 
L 139.7376 202.2144 
L 139.7376 202.2144 
L 138.8448 202.2144 
L 138.8448 202.4832 
L 137.952 202.752 
L 137.0592 202.752 
L 136.1664 203.0208 
L 136.1664 203.8272 
L 133.488 204.6336 
L 133.488 204.9024 
L 132.5952 204.9024 
L 130.8096 205.44 
L 130.8096 205.9776 
L 129.9168 205.9776 
L 129.9168 208.128 
L 129.024 208.3968 
L 129.024 208.6656 
L 128.1312 208.6656 
L 128.1312 208.9344 
L 125.4528 208.9344 
L 124.56 209.2032 
L 124.56 209.2032 
L 124.56 211.3536 
L 124.56 211.3536 
L 123.6672 211.0848 
L 122.7744 211.3536 
L 122.7744 211.6224 
L 121.8816 211.8912 
L 121.8816 211.8912 
L 117.4176 211.8912 
L 117.4176 211.8912 
L 117.4176 212.4288 
L 117.4176 212.4288 
L 115.632 212.4288 
L 115.632 210.2784 
L 113.8464 209.7408 
L 113.8464 207.5904 
L 113.8464 207.5904 
L 112.9536 207.3216 
L 112.9536 205.44 
L 112.0608 205.1712 
L 112.0608 205.1712 
L 112.0608 204.6336 
L 111.168 204.6336 
L 111.168 204.6336 
L 111.168 201.9456 
L 112.0608 201.1392 
L 112.0608 201.1392 
L 109.3824 201.1392 
L 109.3824 201.408 
L 109.3824 201.408 
L 108.4896 201.408 
L 108.4896 201.408 
L 106.704 201.9456 
L 105.8112 201.9456 
L 105.8112 201.9456 
L 104.9184 202.2144 
L 104.9184 202.2144 
L 104.9184 203.5584 
L 104.0256 203.8272 
L 104.0256 203.8272 
L 103.1328 203.8272 
L 103.1328 206.2464 
L 103.1328 206.2464 
L 102.24 206.2464 
L 102.24 206.2464 
L 102.24 206.5152 
L 102.24 206.5152 
L 96.8832 206.5152 
L 96.8832 206.5152 
L 96.8832 205.7088 
L 97.776 205.1712 
L 100.4544 203.0208 
L 99.5616 202.752 
L 99.5616 201.9456 
L 98.6688 201.6768 
L 98.6688 201.408 
L 98.6688 201.408 
L 97.776 201.408 
L 96.8832 200.6016 
L 95.9904 200.3328 
L 95.9904 199.7952 
L 95.0976 199.5264 
L 95.0976 199.5264 
L 94.2048 198.72 
L 91.5264 198.72 
L 90.6336 198.4512 
L 89.7408 197.376 
L 89.7408 197.376 
L 89.7408 195.7632 
L 88.848 195.4944 
L 88.848 194.9568 
L 87.9552 194.4192 
L 87.9552 193.0752 
L 87.9552 193.0752 
L 87.0624 193.0752 
L 86.1696 192.5376 
L 85.2768 192.5376 
L 83.4912 192 
L 83.4912 191.7312 
L 82.5984 190.9248 
L 81.7056 190.656 
L 79.92 190.656 
L 79.0272 190.3872 
L 79.0272 190.3872 
L 78.1344 190.3872 
L 78.1344 190.3872 
L 77.2416 190.656 
L 76.3488 190.656 
L 75.456 190.9248 
L 74.5632 190.9248 
L 74.5632 191.7312 
L 74.5632 191.7312 
" clip-path="url(#pe8886e0d47)" style="fill: none; stroke: #800080; stroke-width: 1.5; stroke-linecap: square"/>
   </g>
   <g id="line2d_20">
    <defs>
     <path id="m5a38466088" d="M 0 1.5 
C 0.397805 1.5 0.77937 1.341951 1.06066 1.06066 
C 1.341951 0.77937 1.5 0.397805 1.5 0 
C 1.5 -0.397805 1.341951 -0.77937 1.06066 -1.06066 
C 0.77937 -1.341951 0.397805 -1.5 0 -1.5 
C -0.397805 -1.5 -0.77937 -1.341951 -1.06066 -1.06066 
C -1.341951 -0.77937 -1.5 -0.397805 -1.5 0 
C -1.5 0.397805 -1.341951 0.77937 -1.06066 1.06066 
C -0.77937 1.341951 -0.397805 1.5 0 1.5 
z
" style="stroke: #ff0000; stroke-opacity: 0.7"/>
    </defs>
    <g clip-path="url(#pe8886e0d47)">
     <use xlink:href="#m5a38466088" x="253.1232" y="121.3056" style="fill: #ff0000; fill-opacity: 0.7; stroke: #ff0000; stroke-opacity: 0.7"/>
     <use xlink:href="#m5a38466088" x="254.9088" y="122.6496" style="fill: #ff0000; fill-opacity: 0.7; stroke: #ff0000; stroke-opacity: 0.7"/>
     <use xlink:href="#m5a38466088" x="254.9088" y="123.9936" style="fill: #ff0000; fill-opacity: 0.7; stroke: #ff0000; stroke-opacity: 0.7"/>
     <use xlink:href="#m5a38466088" x="254.9088" y="125.6064" style="fill: #ff0000; fill-opacity: 0.7; stroke: #ff0000; stroke-opacity: 0.7"/>
     <use xlink:href="#m5a38466088" x="253.1232" y="126.4128" style="fill: #ff0000; fill-opacity: 0.7; stroke: #ff0000; stroke-opacity: 0.7"/>
     <use xlink:href="#m5a38466088" x="251.3376" y="127.488" style="fill: #ff0000; fill-opacity: 0.7; stroke: #ff0000; stroke-opacity: 0.7"/>
     <use xlink:href="#m5a38466088" x="251.3376" y="129.3696" style="fill: #ff0000; fill-opacity: 0.7; stroke: #ff0000; stroke-opacity: 0.7"/>
     <use xlink:href="#m5a38466088" x="244.1952" y="131.52" style="fill: #ff0000; fill-opacity: 0.7; stroke: #ff0000; stroke-opacity: 0.7"/>
     <use xlink:href="#m5a38466088" x="247.7664" y="133.1328" style="fill: #ff0000; fill-opacity: 0.7; stroke: #ff0000; stroke-opacity: 0.7"/>
     <use xlink:href="#m5a38466088" x="247.7664" y="134.7456" style="fill: #ff0000; fill-opacity: 0.7; stroke: #ff0000; stroke-opacity: 0.7"/>
     <use xlink:href="#m5a38466088" x="240.624" y="135.0144" style="fill: #ff0000; fill-opacity: 0.7; stroke: #ff0000; stroke-opacity: 0.7"/>
     <use xlink:href="#m5a38466088" x="239.7312" y="136.6272" style="fill: #ff0000; fill-opacity: 0.7; stroke: #ff0000; stroke-opacity: 0.7"/>
     <use xlink:href="#m5a38466088" x="238.8384" y="138.5088" style="fill: #ff0000; fill-opacity: 0.7; stroke: #ff0000; stroke-opacity: 0.7"/>
     <use xlink:href="#m5a38466088" x="237.0528" y="139.584" style="fill: #ff0000; fill-opacity: 0.7; stroke: #ff0000; stroke-opacity: 0.7"/>
     <use xlink:href="#m5a38466088" x="234.3744" y="141.4656" style="fill: #ff0000; fill-opacity: 0.7; stroke: #ff0000; stroke-opacity: 0.7"/>
     <use xlink:href="#m5a38466088" x="-1" y="197.234369" style="fill: #ff0000; fill-opacity: 0.7; stroke: #ff0000; stroke-opacity: 0.7"/>
     <use xlink:href="#m5a38466088" x="-1" y="196.807812" style="fill: #ff0000; fill-opacity: 0.7; stroke: #ff0000; stroke-opacity: 0.7"/>
     <use xlink:href="#m5a38466088" x="231.696" y="141.4656" style="fill: #ff0000; fill-opacity: 0.7; stroke: #ff0000; stroke-opacity: 0.7"/>
     <use xlink:href="#m5a38466088" x="-1" y="196.807812" style="fill: #ff0000; fill-opacity: 0.7; stroke: #ff0000; stroke-opacity: 0.7"/>
     <use xlink:href="#m5a38466088" x="-1" y="201.136942" style="fill: #ff0000; fill-opacity: 0.7; stroke: #ff0000; stroke-opacity: 0.7"/>
     <use xlink:href="#m5a38466088" x="228.1248" y="148.7232" style="fill: #ff0000; fill-opacity: 0.7; stroke: #ff0000; stroke-opacity: 0.7"/>
     <use xlink:href="#m5a38466088" x="226.3392" y="148.7232" style="fill: #ff0000; fill-opacity: 0.7; stroke: #ff0000; stroke-opacity: 0.7"/>
     <use xlink:href="#m5a38466088" x="226.3392" y="149.2608" style="fill: #ff0000; fill-opacity: 0.7; stroke: #ff0000; stroke-opacity: 0.7"/>
     <use xlink:href="#m5a38466088" x="226.3392" y="149.7984" style="fill: #ff0000; fill-opacity: 0.7; stroke: #ff0000; stroke-opacity: 0.7"/>
     <use xlink:href="#m5a38466088" x="227.232" y="150.6048" style="fill: #ff0000; fill-opacity: 0.7; stroke: #ff0000; stroke-opacity: 0.7"/>
     <use xlink:href="#m5a38466088" x="228.1248" y="150.8736" style="fill: #ff0000; fill-opacity: 0.7; stroke: #ff0000; stroke-opacity: 0.7"/>
     <use xlink:href="#m5a38466088" x="229.0176" y="151.1424" style="fill: #ff0000; fill-opacity: 0.7; stroke: #ff0000; stroke-opacity: 0.7"/>
     <use xlink:href="#m5a38466088" x="229.9104" y="151.9488" style="fill: #ff0000; fill-opacity: 0.7; stroke: #ff0000; stroke-opacity: 0.7"/>
     <use xlink:href="#m5a38466088" x="228.1248" y="152.2176" style="fill: #ff0000; fill-opacity: 0.7; stroke: #ff0000; stroke-opacity: 0.7"/>
     <use xlink:href="#m5a38466088" x="228.1248" y="152.4864" style="fill: #ff0000; fill-opacity: 0.7; stroke: #ff0000; stroke-opacity: 0.7"/>
     <use xlink:href="#m5a38466088" x="228.1248" y="153.5616" style="fill: #ff0000; fill-opacity: 0.7; stroke: #ff0000; stroke-opacity: 0.7"/>
     <use xlink:href="#m5a38466088" x="227.232" y="154.6368" style="fill: #ff0000; fill-opacity: 0.7; stroke: #ff0000; stroke-opacity: 0.7"/>
     <use xlink:href="#m5a38466088" x="224.5536" y="156.7872" style="fill: #ff0000; fill-opacity: 0.7; stroke: #ff0000; stroke-opacity: 0.7"/>
     <use xlink:href="#m5a38466088" x="222.768" y="157.8624" style="fill: #ff0000; fill-opacity: 0.7; stroke: #ff0000; stroke-opacity: 0.7"/>
     <use xlink:href="#m5a38466088" x="220.9824" y="159.4752" style="fill: #ff0000; fill-opacity: 0.7; stroke: #ff0000; stroke-opacity: 0.7"/>
     <use xlink:href="#m5a38466088" x="219.1968" y="160.8192" style="fill: #ff0000; fill-opacity: 0.7; stroke: #ff0000; stroke-opacity: 0.7"/>
     <use xlink:href="#m5a38466088" x="217.4112" y="161.3568" style="fill: #ff0000; fill-opacity: 0.7; stroke: #ff0000; stroke-opacity: 0.7"/>
     <use xlink:href="#m5a38466088" x="-1" y="208.121946" style="fill: #ff0000; fill-opacity: 0.7; stroke: #ff0000; stroke-opacity: 0.7"/>
     <use xlink:href="#m5a38466088" x="-1" y="209.4481" style="fill: #ff0000; fill-opacity: 0.7; stroke: #ff0000; stroke-opacity: 0.7"/>
     <use xlink:href="#m5a38466088" x="213.84" y="164.0448" style="fill: #ff0000; fill-opacity: 0.7; stroke: #ff0000; stroke-opacity: 0.7"/>
     <use xlink:href="#m5a38466088" x="-1" y="209.4481" style="fill: #ff0000; fill-opacity: 0.7; stroke: #ff0000; stroke-opacity: 0.7"/>
     <use xlink:href="#m5a38466088" x="-1" y="210.758792" style="fill: #ff0000; fill-opacity: 0.7; stroke: #ff0000; stroke-opacity: 0.7"/>
     <use xlink:href="#m5a38466088" x="204.912" y="167.808" style="fill: #ff0000; fill-opacity: 0.7; stroke: #ff0000; stroke-opacity: 0.7"/>
     <use xlink:href="#m5a38466088" x="204.912" y="167.0016" style="fill: #ff0000; fill-opacity: 0.7; stroke: #ff0000; stroke-opacity: 0.7"/>
     <use xlink:href="#m5a38466088" x="204.0192" y="168.3456" style="fill: #ff0000; fill-opacity: 0.7; stroke: #ff0000; stroke-opacity: 0.7"/>
     <use xlink:href="#m5a38466088" x="-1" y="211.004552" style="fill: #ff0000; fill-opacity: 0.7; stroke: #ff0000; stroke-opacity: 0.7"/>
     <use xlink:href="#m5a38466088" x="-1" y="211.934455" style="fill: #ff0000; fill-opacity: 0.7; stroke: #ff0000; stroke-opacity: 0.7"/>
     <use xlink:href="#m5a38466088" x="201.3408" y="170.2272" style="fill: #ff0000; fill-opacity: 0.7; stroke: #ff0000; stroke-opacity: 0.7"/>
     <use xlink:href="#m5a38466088" x="202.2336" y="173.184" style="fill: #ff0000; fill-opacity: 0.7; stroke: #ff0000; stroke-opacity: 0.7"/>
     <use xlink:href="#m5a38466088" x="201.3408" y="172.9152" style="fill: #ff0000; fill-opacity: 0.7; stroke: #ff0000; stroke-opacity: 0.7"/>
     <use xlink:href="#m5a38466088" x="200.448" y="173.4528" style="fill: #ff0000; fill-opacity: 0.7; stroke: #ff0000; stroke-opacity: 0.7"/>
     <use xlink:href="#m5a38466088" x="202.2336" y="173.9904" style="fill: #ff0000; fill-opacity: 0.7; stroke: #ff0000; stroke-opacity: 0.7"/>
     <use xlink:href="#m5a38466088" x="202.2336" y="173.7216" style="fill: #ff0000; fill-opacity: 0.7; stroke: #ff0000; stroke-opacity: 0.7"/>
     <use xlink:href="#m5a38466088" x="204.912" y="174.2592" style="fill: #ff0000; fill-opacity: 0.7; stroke: #ff0000; stroke-opacity: 0.7"/>
     <use xlink:href="#m5a38466088" x="204.912" y="175.0656" style="fill: #ff0000; fill-opacity: 0.7; stroke: #ff0000; stroke-opacity: 0.7"/>
     <use xlink:href="#m5a38466088" x="205.8048" y="175.3344" style="fill: #ff0000; fill-opacity: 0.7; stroke: #ff0000; stroke-opacity: 0.7"/>
     <use xlink:href="#m5a38466088" x="205.8048" y="175.6032" style="fill: #ff0000; fill-opacity: 0.7; stroke: #ff0000; stroke-opacity: 0.7"/>
     <use xlink:href="#m5a38466088" x="205.8048" y="176.4096" style="fill: #ff0000; fill-opacity: 0.7; stroke: #ff0000; stroke-opacity: 0.7"/>
     <use xlink:href="#m5a38466088" x="204.0192" y="178.2912" style="fill: #ff0000; fill-opacity: 0.7; stroke: #ff0000; stroke-opacity: 0.7"/>
     <use xlink:href="#m5a38466088" x="203.1264" y="178.8288" style="fill: #ff0000; fill-opacity: 0.7; stroke: #ff0000; stroke-opacity: 0.7"/>
     <use xlink:href="#m5a38466088" x="200.448" y="180.1728" style="fill: #ff0000; fill-opacity: 0.7; stroke: #ff0000; stroke-opacity: 0.7"/>
     <use xlink:href="#m5a38466088" x="200.448" y="181.248" style="fill: #ff0000; fill-opacity: 0.7; stroke: #ff0000; stroke-opacity: 0.7"/>
     <use xlink:href="#m5a38466088" x="198.6624" y="182.3232" style="fill: #ff0000; fill-opacity: 0.7; stroke: #ff0000; stroke-opacity: 0.7"/>
     <use xlink:href="#m5a38466088" x="194.1984" y="183.6672" style="fill: #ff0000; fill-opacity: 0.7; stroke: #ff0000; stroke-opacity: 0.7"/>
     <use xlink:href="#m5a38466088" x="193.3056" y="184.4736" style="fill: #ff0000; fill-opacity: 0.7; stroke: #ff0000; stroke-opacity: 0.7"/>
     <use xlink:href="#m5a38466088" x="193.3056" y="185.28" style="fill: #ff0000; fill-opacity: 0.7; stroke: #ff0000; stroke-opacity: 0.7"/>
     <use xlink:href="#m5a38466088" x="192.4128" y="185.28" style="fill: #ff0000; fill-opacity: 0.7; stroke: #ff0000; stroke-opacity: 0.7"/>
     <use xlink:href="#m5a38466088" x="192.4128" y="186.3552" style="fill: #ff0000; fill-opacity: 0.7; stroke: #ff0000; stroke-opacity: 0.7"/>
     <use xlink:href="#m5a38466088" x="-1" y="222.100692" style="fill: #ff0000; fill-opacity: 0.7; stroke: #ff0000; stroke-opacity: 0.7"/>
     <use xlink:href="#m5a38466088" x="-1" y="225.360589" style="fill: #ff0000; fill-opacity: 0.7; stroke: #ff0000; stroke-opacity: 0.7"/>
     <use xlink:href="#m5a38466088" x="187.9488" y="191.7312" style="fill: #ff0000; fill-opacity: 0.7; stroke: #ff0000; stroke-opacity: 0.7"/>
     <use xlink:href="#m5a38466088" x="187.9488" y="192.2688" style="fill: #ff0000; fill-opacity: 0.7; stroke: #ff0000; stroke-opacity: 0.7"/>
     <use xlink:href="#m5a38466088" x="189.7344" y="193.344" style="fill: #ff0000; fill-opacity: 0.7; stroke: #ff0000; stroke-opacity: 0.7"/>
     <use xlink:href="#m5a38466088" x="190.6272" y="193.8816" style="fill: #ff0000; fill-opacity: 0.7; stroke: #ff0000; stroke-opacity: 0.7"/>
     <use xlink:href="#m5a38466088" x="191.52" y="194.688" style="fill: #ff0000; fill-opacity: 0.7; stroke: #ff0000; stroke-opacity: 0.7"/>
     <use xlink:href="#m5a38466088" x="193.3056" y="194.1504" style="fill: #ff0000; fill-opacity: 0.7; stroke: #ff0000; stroke-opacity: 0.7"/>
     <use xlink:href="#m5a38466088" x="193.3056" y="194.688" style="fill: #ff0000; fill-opacity: 0.7; stroke: #ff0000; stroke-opacity: 0.7"/>
     <use xlink:href="#m5a38466088" x="192.4128" y="195.2256" style="fill: #ff0000; fill-opacity: 0.7; stroke: #ff0000; stroke-opacity: 0.7"/>
     <use xlink:href="#m5a38466088" x="192.4128" y="195.2256" style="fill: #ff0000; fill-opacity: 0.7; stroke: #ff0000; stroke-opacity: 0.7"/>
     <use xlink:href="#m5a38466088" x="191.52" y="195.4944" style="fill: #ff0000; fill-opacity: 0.7; stroke: #ff0000; stroke-opacity: 0.7"/>
     <use xlink:href="#m5a38466088" x="190.6272" y="196.5696" style="fill: #ff0000; fill-opacity: 0.7; stroke: #ff0000; stroke-opacity: 0.7"/>
     <use xlink:href="#m5a38466088" x="189.7344" y="197.376" style="fill: #ff0000; fill-opacity: 0.7; stroke: #ff0000; stroke-opacity: 0.7"/>
     <use xlink:href="#m5a38466088" x="188.8416" y="197.9136" style="fill: #ff0000; fill-opacity: 0.7; stroke: #ff0000; stroke-opacity: 0.7"/>
     <use xlink:href="#m5a38466088" x="189.7344" y="199.2576" style="fill: #ff0000; fill-opacity: 0.7; stroke: #ff0000; stroke-opacity: 0.7"/>
     <use xlink:href="#m5a38466088" x="187.9488" y="200.064" style="fill: #ff0000; fill-opacity: 0.7; stroke: #ff0000; stroke-opacity: 0.7"/>
     <use xlink:href="#m5a38466088" x="187.9488" y="201.9456" style="fill: #ff0000; fill-opacity: 0.7; stroke: #ff0000; stroke-opacity: 0.7"/>
     <use xlink:href="#m5a38466088" x="186.1632" y="202.4832" style="fill: #ff0000; fill-opacity: 0.7; stroke: #ff0000; stroke-opacity: 0.7"/>
     <use xlink:href="#m5a38466088" x="184.3776" y="202.4832" style="fill: #ff0000; fill-opacity: 0.7; stroke: #ff0000; stroke-opacity: 0.7"/>
     <use xlink:href="#m5a38466088" x="184.3776" y="204.096" style="fill: #ff0000; fill-opacity: 0.7; stroke: #ff0000; stroke-opacity: 0.7"/>
     <use xlink:href="#m5a38466088" x="183.4848" y="204.3648" style="fill: #ff0000; fill-opacity: 0.7; stroke: #ff0000; stroke-opacity: 0.7"/>
     <use xlink:href="#m5a38466088" x="184.3776" y="207.5904" style="fill: #ff0000; fill-opacity: 0.7; stroke: #ff0000; stroke-opacity: 0.7"/>
     <use xlink:href="#m5a38466088" x="-1" y="236.324116" style="fill: #ff0000; fill-opacity: 0.7; stroke: #ff0000; stroke-opacity: 0.7"/>
     <use xlink:href="#m5a38466088" x="-1" y="235.061269" style="fill: #ff0000; fill-opacity: 0.7; stroke: #ff0000; stroke-opacity: 0.7"/>
     <use xlink:href="#m5a38466088" x="183.4848" y="205.9776" style="fill: #ff0000; fill-opacity: 0.7; stroke: #ff0000; stroke-opacity: 0.7"/>
     <use xlink:href="#m5a38466088" x="-1" y="235.061269" style="fill: #ff0000; fill-opacity: 0.7; stroke: #ff0000; stroke-opacity: 0.7"/>
     <use xlink:href="#m5a38466088" x="-1" y="236.995755" style="fill: #ff0000; fill-opacity: 0.7; stroke: #ff0000; stroke-opacity: 0.7"/>
     <use xlink:href="#m5a38466088" x="181.6992" y="208.9344" style="fill: #ff0000; fill-opacity: 0.7; stroke: #ff0000; stroke-opacity: 0.7"/>
     <use xlink:href="#m5a38466088" x="182.592" y="209.2032" style="fill: #ff0000; fill-opacity: 0.7; stroke: #ff0000; stroke-opacity: 0.7"/>
     <use xlink:href="#m5a38466088" x="184.3776" y="210.0096" style="fill: #ff0000; fill-opacity: 0.7; stroke: #ff0000; stroke-opacity: 0.7"/>
     <use xlink:href="#m5a38466088" x="185.2704" y="210.5472" style="fill: #ff0000; fill-opacity: 0.7; stroke: #ff0000; stroke-opacity: 0.7"/>
     <use xlink:href="#m5a38466088" x="186.1632" y="210.816" style="fill: #ff0000; fill-opacity: 0.7; stroke: #ff0000; stroke-opacity: 0.7"/>
     <use xlink:href="#m5a38466088" x="187.056" y="211.3536" style="fill: #ff0000; fill-opacity: 0.7; stroke: #ff0000; stroke-opacity: 0.7"/>
     <use xlink:href="#m5a38466088" x="187.056" y="211.6224" style="fill: #ff0000; fill-opacity: 0.7; stroke: #ff0000; stroke-opacity: 0.7"/>
     <use xlink:href="#m5a38466088" x="188.8416" y="211.6224" style="fill: #ff0000; fill-opacity: 0.7; stroke: #ff0000; stroke-opacity: 0.7"/>
     <use xlink:href="#m5a38466088" x="188.8416" y="211.8912" style="fill: #ff0000; fill-opacity: 0.7; stroke: #ff0000; stroke-opacity: 0.7"/>
     <use xlink:href="#m5a38466088" x="188.8416" y="212.4288" style="fill: #ff0000; fill-opacity: 0.7; stroke: #ff0000; stroke-opacity: 0.7"/>
     <use xlink:href="#m5a38466088" x="189.7344" y="212.6976" style="fill: #ff0000; fill-opacity: 0.7; stroke: #ff0000; stroke-opacity: 0.7"/>
     <use xlink:href="#m5a38466088" x="188.8416" y="213.2352" style="fill: #ff0000; fill-opacity: 0.7; stroke: #ff0000; stroke-opacity: 0.7"/>
     <use xlink:href="#m5a38466088" x="188.8416" y="214.0416" style="fill: #ff0000; fill-opacity: 0.7; stroke: #ff0000; stroke-opacity: 0.7"/>
     <use xlink:href="#m5a38466088" x="188.8416" y="214.848" style="fill: #ff0000; fill-opacity: 0.7; stroke: #ff0000; stroke-opacity: 0.7"/>
     <use xlink:href="#m5a38466088" x="188.8416" y="215.6544" style="fill: #ff0000; fill-opacity: 0.7; stroke: #ff0000; stroke-opacity: 0.7"/>
     <use xlink:href="#m5a38466088" x="188.8416" y="217.8048" style="fill: #ff0000; fill-opacity: 0.7; stroke: #ff0000; stroke-opacity: 0.7"/>
     <use xlink:href="#m5a38466088" x="187.9488" y="218.3424" style="fill: #ff0000; fill-opacity: 0.7; stroke: #ff0000; stroke-opacity: 0.7"/>
     <use xlink:href="#m5a38466088" x="187.056" y="219.1488" style="fill: #ff0000; fill-opacity: 0.7; stroke: #ff0000; stroke-opacity: 0.7"/>
     <use xlink:href="#m5a38466088" x="186.1632" y="219.6864" style="fill: #ff0000; fill-opacity: 0.7; stroke: #ff0000; stroke-opacity: 0.7"/>
     <use xlink:href="#m5a38466088" x="184.3776" y="219.9552" style="fill: #ff0000; fill-opacity: 0.7; stroke: #ff0000; stroke-opacity: 0.7"/>
     <use xlink:href="#m5a38466088" x="183.4848" y="221.8368" style="fill: #ff0000; fill-opacity: 0.7; stroke: #ff0000; stroke-opacity: 0.7"/>
     <use xlink:href="#m5a38466088" x="183.4848" y="222.3744" style="fill: #ff0000; fill-opacity: 0.7; stroke: #ff0000; stroke-opacity: 0.7"/>
     <use xlink:href="#m5a38466088" x="-1" y="246.885636" style="fill: #ff0000; fill-opacity: 0.7; stroke: #ff0000; stroke-opacity: 0.7"/>
     <use xlink:href="#m5a38466088" x="-1" y="248.657757" style="fill: #ff0000; fill-opacity: 0.7; stroke: #ff0000; stroke-opacity: 0.7"/>
     <use xlink:href="#m5a38466088" x="181.6992" y="225.0624" style="fill: #ff0000; fill-opacity: 0.7; stroke: #ff0000; stroke-opacity: 0.7"/>
     <use xlink:href="#m5a38466088" x="180.8064" y="225.3312" style="fill: #ff0000; fill-opacity: 0.7; stroke: #ff0000; stroke-opacity: 0.7"/>
     <use xlink:href="#m5a38466088" x="181.6992" y="226.1376" style="fill: #ff0000; fill-opacity: 0.7; stroke: #ff0000; stroke-opacity: 0.7"/>
     <use xlink:href="#m5a38466088" x="183.4848" y="227.2128" style="fill: #ff0000; fill-opacity: 0.7; stroke: #ff0000; stroke-opacity: 0.7"/>
     <use xlink:href="#m5a38466088" x="184.3776" y="227.2128" style="fill: #ff0000; fill-opacity: 0.7; stroke: #ff0000; stroke-opacity: 0.7"/>
     <use xlink:href="#m5a38466088" x="185.2704" y="227.4816" style="fill: #ff0000; fill-opacity: 0.7; stroke: #ff0000; stroke-opacity: 0.7"/>
     <use xlink:href="#m5a38466088" x="186.1632" y="227.4816" style="fill: #ff0000; fill-opacity: 0.7; stroke: #ff0000; stroke-opacity: 0.7"/>
     <use xlink:href="#m5a38466088" x="187.056" y="227.7504" style="fill: #ff0000; fill-opacity: 0.7; stroke: #ff0000; stroke-opacity: 0.7"/>
     <use xlink:href="#m5a38466088" x="187.056" y="227.4816" style="fill: #ff0000; fill-opacity: 0.7; stroke: #ff0000; stroke-opacity: 0.7"/>
     <use xlink:href="#m5a38466088" x="188.8416" y="227.7504" style="fill: #ff0000; fill-opacity: 0.7; stroke: #ff0000; stroke-opacity: 0.7"/>
     <use xlink:href="#m5a38466088" x="188.8416" y="228.0192" style="fill: #ff0000; fill-opacity: 0.7; stroke: #ff0000; stroke-opacity: 0.7"/>
     <use xlink:href="#m5a38466088" x="187.9488" y="228.8256" style="fill: #ff0000; fill-opacity: 0.7; stroke: #ff0000; stroke-opacity: 0.7"/>
     <use xlink:href="#m5a38466088" x="188.8416" y="229.3632" style="fill: #ff0000; fill-opacity: 0.7; stroke: #ff0000; stroke-opacity: 0.7"/>
     <use xlink:href="#m5a38466088" x="188.8416" y="229.9008" style="fill: #ff0000; fill-opacity: 0.7; stroke: #ff0000; stroke-opacity: 0.7"/>
     <use xlink:href="#m5a38466088" x="-1" y="252.778747" style="fill: #ff0000; fill-opacity: 0.7; stroke: #ff0000; stroke-opacity: 0.7"/>
     <use xlink:href="#m5a38466088" x="-1" y="254.81965" style="fill: #ff0000; fill-opacity: 0.7; stroke: #ff0000; stroke-opacity: 0.7"/>
     <use xlink:href="#m5a38466088" x="187.9488" y="232.8576" style="fill: #ff0000; fill-opacity: 0.7; stroke: #ff0000; stroke-opacity: 0.7"/>
     <use xlink:href="#m5a38466088" x="-1" y="254.81965" style="fill: #ff0000; fill-opacity: 0.7; stroke: #ff0000; stroke-opacity: 0.7"/>
     <use xlink:href="#m5a38466088" x="-1" y="258.32232" style="fill: #ff0000; fill-opacity: 0.7; stroke: #ff0000; stroke-opacity: 0.7"/>
     <use xlink:href="#m5a38466088" x="183.4848" y="238.2336" style="fill: #ff0000; fill-opacity: 0.7; stroke: #ff0000; stroke-opacity: 0.7"/>
     <use xlink:href="#m5a38466088" x="-1" y="258.32232" style="fill: #ff0000; fill-opacity: 0.7; stroke: #ff0000; stroke-opacity: 0.7"/>
     <use xlink:href="#m5a38466088" x="-1" y="259.222638" style="fill: #ff0000; fill-opacity: 0.7; stroke: #ff0000; stroke-opacity: 0.7"/>
     <use xlink:href="#m5a38466088" x="182.592" y="239.5776" style="fill: #ff0000; fill-opacity: 0.7; stroke: #ff0000; stroke-opacity: 0.7"/>
     <use xlink:href="#m5a38466088" x="-1" y="259.222638" style="fill: #ff0000; fill-opacity: 0.7; stroke: #ff0000; stroke-opacity: 0.7"/>
     <use xlink:href="#m5a38466088" x="-1" y="260.655459" style="fill: #ff0000; fill-opacity: 0.7; stroke: #ff0000; stroke-opacity: 0.7"/>
     <use xlink:href="#m5a38466088" x="186.1632" y="241.1904" style="fill: #ff0000; fill-opacity: 0.7; stroke: #ff0000; stroke-opacity: 0.7"/>
     <use xlink:href="#m5a38466088" x="-1" y="260.655459" style="fill: #ff0000; fill-opacity: 0.7; stroke: #ff0000; stroke-opacity: 0.7"/>
    </g>
   </g>
   <g id="patch_3">
    <path d="M 57.6 307.584 
L 57.6 41.472 
" style="fill: none; stroke: #000000; stroke-width: 0.8; stroke-linejoin: miter; stroke-linecap: square"/>
   </g>
   <g id="patch_4">
    <path d="M 414.72 307.584 
L 414.72 41.472 
" style="fill: none; stroke: #000000; stroke-width: 0.8; stroke-linejoin: miter; stroke-linecap: square"/>
   </g>
   <g id="patch_5">
    <path d="M 57.6 307.584 
L 414.72 307.584 
" style="fill: none; stroke: #000000; stroke-width: 0.8; stroke-linejoin: miter; stroke-linecap: square"/>
   </g>
   <g id="patch_6">
    <path d="M 57.6 41.472 
L 414.72 41.472 
" style="fill: none; stroke: #000000; stroke-width: 0.8; stroke-linejoin: miter; stroke-linecap: square"/>
   </g>
   <g id="text_17">
    <!-- Posicin (x,y) -->
    <g transform="translate(196.258125 35.472) scale(0.12 -0.12)">
     <defs>
      <path id="DejaVuSans-50" d="M 1259 4147 
L 1259 2394 
L 2053 2394 
Q 2494 2394 2734 2622 
Q 2975 2850 2975 3272 
Q 2975 3691 2734 3919 
Q 2494 4147 2053 4147 
L 1259 4147 
z
M 628 4666 
L 2053 4666 
Q 2838 4666 3239 4311 
Q 3641 3956 3641 3272 
Q 3641 2581 3239 2228 
Q 2838 1875 2053 1875 
L 1259 1875 
L 1259 0 
L 628 0 
L 628 4666 
z
" transform="scale(0.015625)"/>
      <path id="DejaVuSans-6f" d="M 1959 3097 
Q 1497 3097 1228 2736 
Q 959 2375 959 1747 
Q 959 1119 1226 758 
Q 1494 397 1959 397 
Q 2419 397 2687 759 
Q 2956 1122 2956 1747 
Q 2956 2369 2687 2733 
Q 2419 3097 1959 3097 
z
M 1959 3584 
Q 2709 3584 3137 3096 
Q 3566 2609 3566 1747 
Q 3566 888 3137 398 
Q 2709 -91 1959 -91 
Q 1206 -91 779 398 
Q 353 888 353 1747 
Q 353 2609 779 3096 
Q 1206 3584 1959 3584 
z
" transform="scale(0.015625)"/>
      <path id="DejaVuSans-73" d="M 2834 3397 
L 2834 2853 
Q 2591 2978 2328 3040 
Q 2066 3103 1784 3103 
Q 1356 3103 1142 2972 
Q 928 2841 928 2578 
Q 928 2378 1081 2264 
Q 1234 2150 1697 2047 
L 1894 2003 
Q 2506 1872 2764 1633 
Q 3022 1394 3022 966 
Q 3022 478 2636 193 
Q 2250 -91 1575 -91 
Q 1294 -91 989 -36 
Q 684 19 347 128 
L 347 722 
Q 666 556 975 473 
Q 1284 391 1588 391 
Q 1994 391 2212 530 
Q 2431 669 2431 922 
Q 2431 1156 2273 1281 
Q 2116 1406 1581 1522 
L 1381 1569 
Q 847 1681 609 1914 
Q 372 2147 372 2553 
Q 372 3047 722 3315 
Q 1072 3584 1716 3584 
Q 2034 3584 2315 3537 
Q 2597 3491 2834 3397 
z
" transform="scale(0.015625)"/>
      <path id="DejaVuSans-69" d="M 603 3500 
L 1178 3500 
L 1178 0 
L 603 0 
L 603 3500 
z
M 603 4863 
L 1178 4863 
L 1178 4134 
L 603 4134 
L 603 4863 
z
" transform="scale(0.015625)"/>
      <path id="DejaVuSans-63" d="M 3122 3366 
L 3122 2828 
Q 2878 2963 2633 3030 
Q 2388 3097 2138 3097 
Q 1578 3097 1268 2742 
Q 959 2388 959 1747 
Q 959 1106 1268 751 
Q 1578 397 2138 397 
Q 2388 397 2633 464 
Q 2878 531 3122 666 
L 3122 134 
Q 2881 22 2623 -34 
Q 2366 -91 2075 -91 
Q 1284 -91 818 406 
Q 353 903 353 1747 
Q 353 2603 823 3093 
Q 1294 3584 2113 3584 
Q 2378 3584 2631 3529 
Q 2884 3475 3122 3366 
z
" transform="scale(0.015625)"/>
      <path id="DejaVuSans-f3" d="M 1959 3097 
Q 1497 3097 1228 2736 
Q 959 2375 959 1747 
Q 959 1119 1226 758 
Q 1494 397 1959 397 
Q 2419 397 2687 759 
Q 2956 1122 2956 1747 
Q 2956 2369 2687 2733 
Q 2419 3097 1959 3097 
z
M 1959 3584 
Q 2709 3584 3137 3096 
Q 3566 2609 3566 1747 
Q 3566 888 3137 398 
Q 2709 -91 1959 -91 
Q 1206 -91 779 398 
Q 353 888 353 1747 
Q 353 2609 779 3096 
Q 1206 3584 1959 3584 
z
M 2394 5119 
L 3016 5119 
L 1998 3944 
L 1519 3944 
L 2394 5119 
z
" transform="scale(0.015625)"/>
      <path id="DejaVuSans-6e" d="M 3513 2113 
L 3513 0 
L 2938 0 
L 2938 2094 
Q 2938 2591 2744 2837 
Q 2550 3084 2163 3084 
Q 1697 3084 1428 2787 
Q 1159 2491 1159 1978 
L 1159 0 
L 581 0 
L 581 3500 
L 1159 3500 
L 1159 2956 
Q 1366 3272 1645 3428 
Q 1925 3584 2291 3584 
Q 2894 3584 3203 3211 
Q 3513 2838 3513 2113 
z
" transform="scale(0.015625)"/>
      <path id="DejaVuSans-20" transform="scale(0.015625)"/>
      <path id="DejaVuSans-2c" d="M 750 794 
L 1409 794 
L 1409 256 
L 897 -744 
L 494 -744 
L 750 256 
L 750 794 
z
" transform="scale(0.015625)"/>
     </defs>
     <use xlink:href="#DejaVuSans-50"/>
     <use xlink:href="#DejaVuSans-6f" x="56.677734"/>
     <use xlink:href="#DejaVuSans-73" x="117.859375"/>
     <use xlink:href="#DejaVuSans-69" x="169.958984"/>
     <use xlink:href="#DejaVuSans-63" x="197.742188"/>
     <use xlink:href="#DejaVuSans-69" x="252.722656"/>
     <use xlink:href="#DejaVuSans-f3" x="280.505859"/>
     <use xlink:href="#DejaVuSans-6e" x="341.6875"/>
     <use xlink:href="#DejaVuSans-20" x="405.066406"/>
     <use xlink:href="#DejaVuSans-28" x="436.853516"/>
     <use xlink:href="#DejaVuSans-78" x="475.867188"/>
     <use xlink:href="#DejaVuSans-2c" x="535.046875"/>
     <use xlink:href="#DejaVuSans-79" x="566.833984"/>
     <use xlink:href="#DejaVuSans-29" x="626.013672"/>
    </g>
   </g>
   <g id="legend_1">
    <g id="patch_7">
     <path d="M 64.6 137.54075 
L 217.771875 137.54075 
Q 219.771875 137.54075 219.771875 135.54075 
L 219.771875 48.472 
Q 219.771875 46.472 217.771875 46.472 
L 64.6 46.472 
Q 62.6 46.472 62.6 48.472 
L 62.6 135.54075 
Q 62.6 137.54075 64.6 137.54075 
z
" style="fill: #ffffff; opacity: 0.8; stroke: #cccccc; stroke-linejoin: miter"/>
    </g>
    <g id="line2d_21">
     <path d="M 66.6 54.570438 
L 76.6 54.570438 
L 86.6 54.570438 
" style="fill: none; stroke: #0000ff; stroke-width: 1.5; stroke-linecap: square"/>
    </g>
    <g id="text_18">
     <!-- Farneback -->
     <g transform="translate(94.6 58.070438) scale(0.1 -0.1)">
      <defs>
       <path id="DejaVuSans-46" d="M 628 4666 
L 3309 4666 
L 3309 4134 
L 1259 4134 
L 1259 2759 
L 3109 2759 
L 3109 2228 
L 1259 2228 
L 1259 0 
L 628 0 
L 628 4666 
z
" transform="scale(0.015625)"/>
       <path id="DejaVuSans-61" d="M 2194 1759 
Q 1497 1759 1228 1600 
Q 959 1441 959 1056 
Q 959 750 1161 570 
Q 1363 391 1709 391 
Q 2188 391 2477 730 
Q 2766 1069 2766 1631 
L 2766 1759 
L 2194 1759 
z
M 3341 1997 
L 3341 0 
L 2766 0 
L 2766 531 
Q 2569 213 2275 61 
Q 1981 -91 1556 -91 
Q 1019 -91 701 211 
Q 384 513 384 1019 
Q 384 1609 779 1909 
Q 1175 2209 1959 2209 
L 2766 2209 
L 2766 2266 
Q 2766 2663 2505 2880 
Q 2244 3097 1772 3097 
Q 1472 3097 1187 3025 
Q 903 2953 641 2809 
L 641 3341 
Q 956 3463 1253 3523 
Q 1550 3584 1831 3584 
Q 2591 3584 2966 3190 
Q 3341 2797 3341 1997 
z
" transform="scale(0.015625)"/>
       <path id="DejaVuSans-72" d="M 2631 2963 
Q 2534 3019 2420 3045 
Q 2306 3072 2169 3072 
Q 1681 3072 1420 2755 
Q 1159 2438 1159 1844 
L 1159 0 
L 581 0 
L 581 3500 
L 1159 3500 
L 1159 2956 
Q 1341 3275 1631 3429 
Q 1922 3584 2338 3584 
Q 2397 3584 2469 3576 
Q 2541 3569 2628 3553 
L 2631 2963 
z
" transform="scale(0.015625)"/>
       <path id="DejaVuSans-65" d="M 3597 1894 
L 3597 1613 
L 953 1613 
Q 991 1019 1311 708 
Q 1631 397 2203 397 
Q 2534 397 2845 478 
Q 3156 559 3463 722 
L 3463 178 
Q 3153 47 2828 -22 
Q 2503 -91 2169 -91 
Q 1331 -91 842 396 
Q 353 884 353 1716 
Q 353 2575 817 3079 
Q 1281 3584 2069 3584 
Q 2775 3584 3186 3129 
Q 3597 2675 3597 1894 
z
M 3022 2063 
Q 3016 2534 2758 2815 
Q 2500 3097 2075 3097 
Q 1594 3097 1305 2825 
Q 1016 2553 972 2059 
L 3022 2063 
z
" transform="scale(0.015625)"/>
       <path id="DejaVuSans-62" d="M 3116 1747 
Q 3116 2381 2855 2742 
Q 2594 3103 2138 3103 
Q 1681 3103 1420 2742 
Q 1159 2381 1159 1747 
Q 1159 1113 1420 752 
Q 1681 391 2138 391 
Q 2594 391 2855 752 
Q 3116 1113 3116 1747 
z
M 1159 2969 
Q 1341 3281 1617 3432 
Q 1894 3584 2278 3584 
Q 2916 3584 3314 3078 
Q 3713 2572 3713 1747 
Q 3713 922 3314 415 
Q 2916 -91 2278 -91 
Q 1894 -91 1617 61 
Q 1341 213 1159 525 
L 1159 0 
L 581 0 
L 581 4863 
L 1159 4863 
L 1159 2969 
z
" transform="scale(0.015625)"/>
       <path id="DejaVuSans-6b" d="M 581 4863 
L 1159 4863 
L 1159 1991 
L 2875 3500 
L 3609 3500 
L 1753 1863 
L 3688 0 
L 2938 0 
L 1159 1709 
L 1159 0 
L 581 0 
L 581 4863 
z
" transform="scale(0.015625)"/>
      </defs>
      <use xlink:href="#DejaVuSans-46"/>
      <use xlink:href="#DejaVuSans-61" x="48.394531"/>
      <use xlink:href="#DejaVuSans-72" x="109.673828"/>
      <use xlink:href="#DejaVuSans-6e" x="149.037109"/>
      <use xlink:href="#DejaVuSans-65" x="212.416016"/>
      <use xlink:href="#DejaVuSans-62" x="273.939453"/>
      <use xlink:href="#DejaVuSans-61" x="337.416016"/>
      <use xlink:href="#DejaVuSans-63" x="398.695312"/>
      <use xlink:href="#DejaVuSans-6b" x="453.675781"/>
     </g>
    </g>
    <g id="line2d_22">
     <path d="M 66.6 69.248563 
L 76.6 69.248563 
L 86.6 69.248563 
" style="fill: none; stroke: #008000; stroke-width: 1.5; stroke-linecap: square"/>
    </g>
    <g id="text_19">
     <!-- Lucas-Kanade (Mano) -->
     <g transform="translate(94.6 72.748563) scale(0.1 -0.1)">
      <defs>
       <path id="DejaVuSans-4c" d="M 628 4666 
L 1259 4666 
L 1259 531 
L 3531 531 
L 3531 0 
L 628 0 
L 628 4666 
z
" transform="scale(0.015625)"/>
       <path id="DejaVuSans-75" d="M 544 1381 
L 544 3500 
L 1119 3500 
L 1119 1403 
Q 1119 906 1312 657 
Q 1506 409 1894 409 
Q 2359 409 2629 706 
Q 2900 1003 2900 1516 
L 2900 3500 
L 3475 3500 
L 3475 0 
L 2900 0 
L 2900 538 
Q 2691 219 2414 64 
Q 2138 -91 1772 -91 
Q 1169 -91 856 284 
Q 544 659 544 1381 
z
M 1991 3584 
L 1991 3584 
z
" transform="scale(0.015625)"/>
       <path id="DejaVuSans-2d" d="M 313 2009 
L 1997 2009 
L 1997 1497 
L 313 1497 
L 313 2009 
z
" transform="scale(0.015625)"/>
       <path id="DejaVuSans-4b" d="M 628 4666 
L 1259 4666 
L 1259 2694 
L 3353 4666 
L 4166 4666 
L 1850 2491 
L 4331 0 
L 3500 0 
L 1259 2247 
L 1259 0 
L 628 0 
L 628 4666 
z
" transform="scale(0.015625)"/>
       <path id="DejaVuSans-64" d="M 2906 2969 
L 2906 4863 
L 3481 4863 
L 3481 0 
L 2906 0 
L 2906 525 
Q 2725 213 2448 61 
Q 2172 -91 1784 -91 
Q 1150 -91 751 415 
Q 353 922 353 1747 
Q 353 2572 751 3078 
Q 1150 3584 1784 3584 
Q 2172 3584 2448 3432 
Q 2725 3281 2906 2969 
z
M 947 1747 
Q 947 1113 1208 752 
Q 1469 391 1925 391 
Q 2381 391 2643 752 
Q 2906 1113 2906 1747 
Q 2906 2381 2643 2742 
Q 2381 3103 1925 3103 
Q 1469 3103 1208 2742 
Q 947 2381 947 1747 
z
" transform="scale(0.015625)"/>
       <path id="DejaVuSans-4d" d="M 628 4666 
L 1569 4666 
L 2759 1491 
L 3956 4666 
L 4897 4666 
L 4897 0 
L 4281 0 
L 4281 4097 
L 3078 897 
L 2444 897 
L 1241 4097 
L 1241 0 
L 628 0 
L 628 4666 
z
" transform="scale(0.015625)"/>
      </defs>
      <use xlink:href="#DejaVuSans-4c"/>
      <use xlink:href="#DejaVuSans-75" x="53.962891"/>
      <use xlink:href="#DejaVuSans-63" x="117.341797"/>
      <use xlink:href="#DejaVuSans-61" x="172.322266"/>
      <use xlink:href="#DejaVuSans-73" x="233.601562"/>
      <use xlink:href="#DejaVuSans-2d" x="285.701172"/>
      <use xlink:href="#DejaVuSans-4b" x="321.785156"/>
      <use xlink:href="#DejaVuSans-61" x="385.611328"/>
      <use xlink:href="#DejaVuSans-6e" x="446.890625"/>
      <use xlink:href="#DejaVuSans-61" x="510.269531"/>
      <use xlink:href="#DejaVuSans-64" x="571.548828"/>
      <use xlink:href="#DejaVuSans-65" x="635.025391"/>
      <use xlink:href="#DejaVuSans-20" x="696.548828"/>
      <use xlink:href="#DejaVuSans-28" x="728.335938"/>
      <use xlink:href="#DejaVuSans-4d" x="767.349609"/>
      <use xlink:href="#DejaVuSans-61" x="853.628906"/>
      <use xlink:href="#DejaVuSans-6e" x="914.908203"/>
      <use xlink:href="#DejaVuSans-6f" x="978.287109"/>
      <use xlink:href="#DejaVuSans-29" x="1039.46875"/>
     </g>
    </g>
    <g id="line2d_23">
     <path d="M 66.6 83.926688 
L 76.6 83.926688 
L 86.6 83.926688 
" style="fill: none; stroke: #ffa500; stroke-width: 1.5; stroke-linecap: square"/>
    </g>
    <g id="text_20">
     <!-- Lucas-Kanade (OpenCV) -->
     <g transform="translate(94.6 87.426688) scale(0.1 -0.1)">
      <defs>
       <path id="DejaVuSans-4f" d="M 2522 4238 
Q 1834 4238 1429 3725 
Q 1025 3213 1025 2328 
Q 1025 1447 1429 934 
Q 1834 422 2522 422 
Q 3209 422 3611 934 
Q 4013 1447 4013 2328 
Q 4013 3213 3611 3725 
Q 3209 4238 2522 4238 
z
M 2522 4750 
Q 3503 4750 4090 4092 
Q 4678 3434 4678 2328 
Q 4678 1225 4090 567 
Q 3503 -91 2522 -91 
Q 1538 -91 948 565 
Q 359 1222 359 2328 
Q 359 3434 948 4092 
Q 1538 4750 2522 4750 
z
" transform="scale(0.015625)"/>
       <path id="DejaVuSans-70" d="M 1159 525 
L 1159 -1331 
L 581 -1331 
L 581 3500 
L 1159 3500 
L 1159 2969 
Q 1341 3281 1617 3432 
Q 1894 3584 2278 3584 
Q 2916 3584 3314 3078 
Q 3713 2572 3713 1747 
Q 3713 922 3314 415 
Q 2916 -91 2278 -91 
Q 1894 -91 1617 61 
Q 1341 213 1159 525 
z
M 3116 1747 
Q 3116 2381 2855 2742 
Q 2594 3103 2138 3103 
Q 1681 3103 1420 2742 
Q 1159 2381 1159 1747 
Q 1159 1113 1420 752 
Q 1681 391 2138 391 
Q 2594 391 2855 752 
Q 3116 1113 3116 1747 
z
" transform="scale(0.015625)"/>
       <path id="DejaVuSans-43" d="M 4122 4306 
L 4122 3641 
Q 3803 3938 3442 4084 
Q 3081 4231 2675 4231 
Q 1875 4231 1450 3742 
Q 1025 3253 1025 2328 
Q 1025 1406 1450 917 
Q 1875 428 2675 428 
Q 3081 428 3442 575 
Q 3803 722 4122 1019 
L 4122 359 
Q 3791 134 3420 21 
Q 3050 -91 2638 -91 
Q 1578 -91 968 557 
Q 359 1206 359 2328 
Q 359 3453 968 4101 
Q 1578 4750 2638 4750 
Q 3056 4750 3426 4639 
Q 3797 4528 4122 4306 
z
" transform="scale(0.015625)"/>
       <path id="DejaVuSans-56" d="M 1831 0 
L 50 4666 
L 709 4666 
L 2188 738 
L 3669 4666 
L 4325 4666 
L 2547 0 
L 1831 0 
z
" transform="scale(0.015625)"/>
      </defs>
      <use xlink:href="#DejaVuSans-4c"/>
      <use xlink:href="#DejaVuSans-75" x="53.962891"/>
      <use xlink:href="#DejaVuSans-63" x="117.341797"/>
      <use xlink:href="#DejaVuSans-61" x="172.322266"/>
      <use xlink:href="#DejaVuSans-73" x="233.601562"/>
      <use xlink:href="#DejaVuSans-2d" x="285.701172"/>
      <use xlink:href="#DejaVuSans-4b" x="321.785156"/>
      <use xlink:href="#DejaVuSans-61" x="385.611328"/>
      <use xlink:href="#DejaVuSans-6e" x="446.890625"/>
      <use xlink:href="#DejaVuSans-61" x="510.269531"/>
      <use xlink:href="#DejaVuSans-64" x="571.548828"/>
      <use xlink:href="#DejaVuSans-65" x="635.025391"/>
      <use xlink:href="#DejaVuSans-20" x="696.548828"/>
      <use xlink:href="#DejaVuSans-28" x="728.335938"/>
      <use xlink:href="#DejaVuSans-4f" x="767.349609"/>
      <use xlink:href="#DejaVuSans-70" x="846.060547"/>
      <use xlink:href="#DejaVuSans-65" x="909.537109"/>
      <use xlink:href="#DejaVuSans-6e" x="971.060547"/>
      <use xlink:href="#DejaVuSans-43" x="1034.439453"/>
      <use xlink:href="#DejaVuSans-56" x="1104.263672"/>
      <use xlink:href="#DejaVuSans-29" x="1172.671875"/>
     </g>
    </g>
    <g id="line2d_24">
     <path d="M 66.6 98.604813 
L 76.6 98.604813 
L 86.6 98.604813 
" style="fill: none; stroke: #ffff00; stroke-width: 1.5; stroke-linecap: square"/>
    </g>
    <g id="text_21">
     <!-- RAFT (large) -->
     <g transform="translate(94.6 102.104813) scale(0.1 -0.1)">
      <defs>
       <path id="DejaVuSans-52" d="M 2841 2188 
Q 3044 2119 3236 1894 
Q 3428 1669 3622 1275 
L 4263 0 
L 3584 0 
L 2988 1197 
Q 2756 1666 2539 1819 
Q 2322 1972 1947 1972 
L 1259 1972 
L 1259 0 
L 628 0 
L 628 4666 
L 2053 4666 
Q 2853 4666 3247 4331 
Q 3641 3997 3641 3322 
Q 3641 2881 3436 2590 
Q 3231 2300 2841 2188 
z
M 1259 4147 
L 1259 2491 
L 2053 2491 
Q 2509 2491 2742 2702 
Q 2975 2913 2975 3322 
Q 2975 3731 2742 3939 
Q 2509 4147 2053 4147 
L 1259 4147 
z
" transform="scale(0.015625)"/>
       <path id="DejaVuSans-41" d="M 2188 4044 
L 1331 1722 
L 3047 1722 
L 2188 4044 
z
M 1831 4666 
L 2547 4666 
L 4325 0 
L 3669 0 
L 3244 1197 
L 1141 1197 
L 716 0 
L 50 0 
L 1831 4666 
z
" transform="scale(0.015625)"/>
       <path id="DejaVuSans-54" d="M -19 4666 
L 3928 4666 
L 3928 4134 
L 2272 4134 
L 2272 0 
L 1638 0 
L 1638 4134 
L -19 4134 
L -19 4666 
z
" transform="scale(0.015625)"/>
       <path id="DejaVuSans-6c" d="M 603 4863 
L 1178 4863 
L 1178 0 
L 603 0 
L 603 4863 
z
" transform="scale(0.015625)"/>
       <path id="DejaVuSans-67" d="M 2906 1791 
Q 2906 2416 2648 2759 
Q 2391 3103 1925 3103 
Q 1463 3103 1205 2759 
Q 947 2416 947 1791 
Q 947 1169 1205 825 
Q 1463 481 1925 481 
Q 2391 481 2648 825 
Q 2906 1169 2906 1791 
z
M 3481 434 
Q 3481 -459 3084 -895 
Q 2688 -1331 1869 -1331 
Q 1566 -1331 1297 -1286 
Q 1028 -1241 775 -1147 
L 775 -588 
Q 1028 -725 1275 -790 
Q 1522 -856 1778 -856 
Q 2344 -856 2625 -561 
Q 2906 -266 2906 331 
L 2906 616 
Q 2728 306 2450 153 
Q 2172 0 1784 0 
Q 1141 0 747 490 
Q 353 981 353 1791 
Q 353 2603 747 3093 
Q 1141 3584 1784 3584 
Q 2172 3584 2450 3431 
Q 2728 3278 2906 2969 
L 2906 3500 
L 3481 3500 
L 3481 434 
z
" transform="scale(0.015625)"/>
      </defs>
      <use xlink:href="#DejaVuSans-52"/>
      <use xlink:href="#DejaVuSans-41" x="65.482422"/>
      <use xlink:href="#DejaVuSans-46" x="133.890625"/>
      <use xlink:href="#DejaVuSans-54" x="189.660156"/>
      <use xlink:href="#DejaVuSans-20" x="250.744141"/>
      <use xlink:href="#DejaVuSans-28" x="282.53125"/>
      <use xlink:href="#DejaVuSans-6c" x="321.544922"/>
      <use xlink:href="#DejaVuSans-61" x="349.328125"/>
      <use xlink:href="#DejaVuSans-72" x="410.607422"/>
      <use xlink:href="#DejaVuSans-67" x="449.970703"/>
      <use xlink:href="#DejaVuSans-65" x="513.447266"/>
      <use xlink:href="#DejaVuSans-29" x="574.970703"/>
     </g>
    </g>
    <g id="line2d_25">
     <path d="M 66.6 113.282938 
L 76.6 113.282938 
L 86.6 113.282938 
" style="fill: none; stroke: #800080; stroke-width: 1.5; stroke-linecap: square"/>
    </g>
    <g id="text_22">
     <!-- RAFT (small) -->
     <g transform="translate(94.6 116.782938) scale(0.1 -0.1)">
      <defs>
       <path id="DejaVuSans-6d" d="M 3328 2828 
Q 3544 3216 3844 3400 
Q 4144 3584 4550 3584 
Q 5097 3584 5394 3201 
Q 5691 2819 5691 2113 
L 5691 0 
L 5113 0 
L 5113 2094 
Q 5113 2597 4934 2840 
Q 4756 3084 4391 3084 
Q 3944 3084 3684 2787 
Q 3425 2491 3425 1978 
L 3425 0 
L 2847 0 
L 2847 2094 
Q 2847 2600 2669 2842 
Q 2491 3084 2119 3084 
Q 1678 3084 1418 2786 
Q 1159 2488 1159 1978 
L 1159 0 
L 581 0 
L 581 3500 
L 1159 3500 
L 1159 2956 
Q 1356 3278 1631 3431 
Q 1906 3584 2284 3584 
Q 2666 3584 2933 3390 
Q 3200 3197 3328 2828 
z
" transform="scale(0.015625)"/>
      </defs>
      <use xlink:href="#DejaVuSans-52"/>
      <use xlink:href="#DejaVuSans-41" x="65.482422"/>
      <use xlink:href="#DejaVuSans-46" x="133.890625"/>
      <use xlink:href="#DejaVuSans-54" x="189.660156"/>
      <use xlink:href="#DejaVuSans-20" x="250.744141"/>
      <use xlink:href="#DejaVuSans-28" x="282.53125"/>
      <use xlink:href="#DejaVuSans-73" x="321.544922"/>
      <use xlink:href="#DejaVuSans-6d" x="373.644531"/>
      <use xlink:href="#DejaVuSans-61" x="471.056641"/>
      <use xlink:href="#DejaVuSans-6c" x="532.335938"/>
      <use xlink:href="#DejaVuSans-6c" x="560.119141"/>
      <use xlink:href="#DejaVuSans-29" x="587.902344"/>
     </g>
    </g>
    <g id="line2d_26">
     <g>
      <use xlink:href="#m5a38466088" x="76.6" y="127.961063" style="fill: #ff0000; fill-opacity: 0.7; stroke: #ff0000; stroke-opacity: 0.7"/>
     </g>
    </g>
    <g id="text_23">
     <!-- YOLO+distancia -->
     <g transform="translate(94.6 131.461063) scale(0.1 -0.1)">
      <defs>
       <path id="DejaVuSans-59" d="M -13 4666 
L 666 4666 
L 1959 2747 
L 3244 4666 
L 3922 4666 
L 2272 2222 
L 2272 0 
L 1638 0 
L 1638 2222 
L -13 4666 
z
" transform="scale(0.015625)"/>
       <path id="DejaVuSans-2b" d="M 2944 4013 
L 2944 2272 
L 4684 2272 
L 4684 1741 
L 2944 1741 
L 2944 0 
L 2419 0 
L 2419 1741 
L 678 1741 
L 678 2272 
L 2419 2272 
L 2419 4013 
L 2944 4013 
z
" transform="scale(0.015625)"/>
      </defs>
      <use xlink:href="#DejaVuSans-59"/>
      <use xlink:href="#DejaVuSans-4f" x="55.583984"/>
      <use xlink:href="#DejaVuSans-4c" x="134.294922"/>
      <use xlink:href="#DejaVuSans-4f" x="186.382812"/>
      <use xlink:href="#DejaVuSans-2b" x="265.09375"/>
      <use xlink:href="#DejaVuSans-64" x="348.882812"/>
      <use xlink:href="#DejaVuSans-69" x="412.359375"/>
      <use xlink:href="#DejaVuSans-73" x="440.142578"/>
      <use xlink:href="#DejaVuSans-74" x="492.242188"/>
      <use xlink:href="#DejaVuSans-61" x="531.451172"/>
      <use xlink:href="#DejaVuSans-6e" x="592.730469"/>
      <use xlink:href="#DejaVuSans-63" x="656.109375"/>
      <use xlink:href="#DejaVuSans-69" x="711.089844"/>
      <use xlink:href="#DejaVuSans-61" x="738.873047"/>
     </g>
    </g>
   </g>
  </g>
 </g>
 <defs>
  <clipPath id="pe8886e0d47">
   <rect x="57.6" y="41.472" width="357.12" height="266.112"/>
  </clipPath>
 </defs>
</svg>
