<?xml version="1.0" encoding="utf-8" standalone="no"?>
<!DOCTYPE svg PUBLIC "-//W3C//DTD SVG 1.1//EN"
  "http://www.w3.org/Graphics/SVG/1.1/DTD/svg11.dtd">
<svg xmlns:xlink="http://www.w3.org/1999/xlink" width="460.8pt" height="345.6pt" viewBox="0 0 460.8 345.6" xmlns="http://www.w3.org/2000/svg" version="1.1">
 <metadata>
  <rdf:RDF xmlns:dc="http://purl.org/dc/elements/1.1/" xmlns:cc="http://creativecommons.org/ns#" xmlns:rdf="http://www.w3.org/1999/02/22-rdf-syntax-ns#">
   <cc:Work>
    <dc:type rdf:resource="http://purl.org/dc/dcmitype/StillImage"/>
    <dc:date>2024-12-08T13:05:38.608348</dc:date>
    <dc:format>image/svg+xml</dc:format>
    <dc:creator>
     <cc:Agent>
      <dc:title>Matplotlib v3.9.2, https://matplotlib.org/</dc:title>
     </cc:Agent>
    </dc:creator>
   </cc:Work>
  </rdf:RDF>
 </metadata>
 <defs>
  <style type="text/css">*{stroke-linejoin: round; stroke-linecap: butt}</style>
 </defs>
 <g id="figure_1">
  <g id="patch_1">
   <path d="M 0 345.6 
L 460.8 345.6 
L 460.8 0 
L 0 0 
z
" style="fill: #ffffff"/>
  </g>
  <g id="axes_1">
   <g id="patch_2">
    <path d="M 57.6 307.584 
L 414.72 307.584 
L 414.72 41.472 
L 57.6 41.472 
z
" style="fill: #ffffff"/>
   </g>
   <g id="matplotlib.axis_1">
    <g id="xtick_1">
     <g id="line2d_1">
      <defs>
       <path id="m1e53ea1017" d="M 0 0 
L 0 3.5 
" style="stroke: #000000; stroke-width: 0.8"/>
      </defs>
      <g>
       <use xlink:href="#m1e53ea1017" x="72.875044" y="307.584" style="stroke: #000000; stroke-width: 0.8"/>
      </g>
     </g>
     <g id="text_1">
      <!-- 0 -->
      <g transform="translate(69.693794 322.182437) scale(0.1 -0.1)">
       <defs>
        <path id="DejaVuSans-30" d="M 2034 4250 
Q 1547 4250 1301 3770 
Q 1056 3291 1056 2328 
Q 1056 1369 1301 889 
Q 1547 409 2034 409 
Q 2525 409 2770 889 
Q 3016 1369 3016 2328 
Q 3016 3291 2770 3770 
Q 2525 4250 2034 4250 
z
M 2034 4750 
Q 2819 4750 3233 4129 
Q 3647 3509 3647 2328 
Q 3647 1150 3233 529 
Q 2819 -91 2034 -91 
Q 1250 -91 836 529 
Q 422 1150 422 2328 
Q 422 3509 836 4129 
Q 1250 4750 2034 4750 
z
" transform="scale(0.015625)"/>
       </defs>
       <use xlink:href="#DejaVuSans-30"/>
      </g>
     </g>
    </g>
    <g id="xtick_2">
     <g id="line2d_2">
      <g>
       <use xlink:href="#m1e53ea1017" x="120.759195" y="307.584" style="stroke: #000000; stroke-width: 0.8"/>
      </g>
     </g>
     <g id="text_2">
      <!-- 50 -->
      <g transform="translate(114.396695 322.182437) scale(0.1 -0.1)">
       <defs>
        <path id="DejaVuSans-35" d="M 691 4666 
L 3169 4666 
L 3169 4134 
L 1269 4134 
L 1269 2991 
Q 1406 3038 1543 3061 
Q 1681 3084 1819 3084 
Q 2600 3084 3056 2656 
Q 3513 2228 3513 1497 
Q 3513 744 3044 326 
Q 2575 -91 1722 -91 
Q 1428 -91 1123 -41 
Q 819 9 494 109 
L 494 744 
Q 775 591 1075 516 
Q 1375 441 1709 441 
Q 2250 441 2565 725 
Q 2881 1009 2881 1497 
Q 2881 1984 2565 2268 
Q 2250 2553 1709 2553 
Q 1456 2553 1204 2497 
Q 953 2441 691 2322 
L 691 4666 
z
" transform="scale(0.015625)"/>
       </defs>
       <use xlink:href="#DejaVuSans-35"/>
       <use xlink:href="#DejaVuSans-30" x="63.623047"/>
      </g>
     </g>
    </g>
    <g id="xtick_3">
     <g id="line2d_3">
      <g>
       <use xlink:href="#m1e53ea1017" x="168.643347" y="307.584" style="stroke: #000000; stroke-width: 0.8"/>
      </g>
     </g>
     <g id="text_3">
      <!-- 100 -->
      <g transform="translate(159.099597 322.182437) scale(0.1 -0.1)">
       <defs>
        <path id="DejaVuSans-31" d="M 794 531 
L 1825 531 
L 1825 4091 
L 703 3866 
L 703 4441 
L 1819 4666 
L 2450 4666 
L 2450 531 
L 3481 531 
L 3481 0 
L 794 0 
L 794 531 
z
" transform="scale(0.015625)"/>
       </defs>
       <use xlink:href="#DejaVuSans-31"/>
       <use xlink:href="#DejaVuSans-30" x="63.623047"/>
       <use xlink:href="#DejaVuSans-30" x="127.246094"/>
      </g>
     </g>
    </g>
    <g id="xtick_4">
     <g id="line2d_4">
      <g>
       <use xlink:href="#m1e53ea1017" x="216.527498" y="307.584" style="stroke: #000000; stroke-width: 0.8"/>
      </g>
     </g>
     <g id="text_4">
      <!-- 150 -->
      <g transform="translate(206.983748 322.182437) scale(0.1 -0.1)">
       <use xlink:href="#DejaVuSans-31"/>
       <use xlink:href="#DejaVuSans-35" x="63.623047"/>
       <use xlink:href="#DejaVuSans-30" x="127.246094"/>
      </g>
     </g>
    </g>
    <g id="xtick_5">
     <g id="line2d_5">
      <g>
       <use xlink:href="#m1e53ea1017" x="264.411649" y="307.584" style="stroke: #000000; stroke-width: 0.8"/>
      </g>
     </g>
     <g id="text_5">
      <!-- 200 -->
      <g transform="translate(254.867899 322.182437) scale(0.1 -0.1)">
       <defs>
        <path id="DejaVuSans-32" d="M 1228 531 
L 3431 531 
L 3431 0 
L 469 0 
L 469 531 
Q 828 903 1448 1529 
Q 2069 2156 2228 2338 
Q 2531 2678 2651 2914 
Q 2772 3150 2772 3378 
Q 2772 3750 2511 3984 
Q 2250 4219 1831 4219 
Q 1534 4219 1204 4116 
Q 875 4013 500 3803 
L 500 4441 
Q 881 4594 1212 4672 
Q 1544 4750 1819 4750 
Q 2544 4750 2975 4387 
Q 3406 4025 3406 3419 
Q 3406 3131 3298 2873 
Q 3191 2616 2906 2266 
Q 2828 2175 2409 1742 
Q 1991 1309 1228 531 
z
" transform="scale(0.015625)"/>
       </defs>
       <use xlink:href="#DejaVuSans-32"/>
       <use xlink:href="#DejaVuSans-30" x="63.623047"/>
       <use xlink:href="#DejaVuSans-30" x="127.246094"/>
      </g>
     </g>
    </g>
    <g id="xtick_6">
     <g id="line2d_6">
      <g>
       <use xlink:href="#m1e53ea1017" x="312.2958" y="307.584" style="stroke: #000000; stroke-width: 0.8"/>
      </g>
     </g>
     <g id="text_6">
      <!-- 250 -->
      <g transform="translate(302.75205 322.182437) scale(0.1 -0.1)">
       <use xlink:href="#DejaVuSans-32"/>
       <use xlink:href="#DejaVuSans-35" x="63.623047"/>
       <use xlink:href="#DejaVuSans-30" x="127.246094"/>
      </g>
     </g>
    </g>
    <g id="xtick_7">
     <g id="line2d_7">
      <g>
       <use xlink:href="#m1e53ea1017" x="360.179952" y="307.584" style="stroke: #000000; stroke-width: 0.8"/>
      </g>
     </g>
     <g id="text_7">
      <!-- 300 -->
      <g transform="translate(350.636202 322.182437) scale(0.1 -0.1)">
       <defs>
        <path id="DejaVuSans-33" d="M 2597 2516 
Q 3050 2419 3304 2112 
Q 3559 1806 3559 1356 
Q 3559 666 3084 287 
Q 2609 -91 1734 -91 
Q 1441 -91 1130 -33 
Q 819 25 488 141 
L 488 750 
Q 750 597 1062 519 
Q 1375 441 1716 441 
Q 2309 441 2620 675 
Q 2931 909 2931 1356 
Q 2931 1769 2642 2001 
Q 2353 2234 1838 2234 
L 1294 2234 
L 1294 2753 
L 1863 2753 
Q 2328 2753 2575 2939 
Q 2822 3125 2822 3475 
Q 2822 3834 2567 4026 
Q 2313 4219 1838 4219 
Q 1578 4219 1281 4162 
Q 984 4106 628 3988 
L 628 4550 
Q 988 4650 1302 4700 
Q 1616 4750 1894 4750 
Q 2613 4750 3031 4423 
Q 3450 4097 3450 3541 
Q 3450 3153 3228 2886 
Q 3006 2619 2597 2516 
z
" transform="scale(0.015625)"/>
       </defs>
       <use xlink:href="#DejaVuSans-33"/>
       <use xlink:href="#DejaVuSans-30" x="63.623047"/>
       <use xlink:href="#DejaVuSans-30" x="127.246094"/>
      </g>
     </g>
    </g>
    <g id="xtick_8">
     <g id="line2d_8">
      <g>
       <use xlink:href="#m1e53ea1017" x="408.064103" y="307.584" style="stroke: #000000; stroke-width: 0.8"/>
      </g>
     </g>
     <g id="text_8">
      <!-- 350 -->
      <g transform="translate(398.520353 322.182437) scale(0.1 -0.1)">
       <use xlink:href="#DejaVuSans-33"/>
       <use xlink:href="#DejaVuSans-35" x="63.623047"/>
       <use xlink:href="#DejaVuSans-30" x="127.246094"/>
      </g>
     </g>
    </g>
    <g id="text_9">
     <!-- t -->
     <g transform="translate(234.199844 335.860562) scale(0.1 -0.1)">
      <defs>
       <path id="DejaVuSans-74" d="M 1172 4494 
L 1172 3500 
L 2356 3500 
L 2356 3053 
L 1172 3053 
L 1172 1153 
Q 1172 725 1289 603 
Q 1406 481 1766 481 
L 2356 481 
L 2356 0 
L 1766 0 
Q 1100 0 847 248 
Q 594 497 594 1153 
L 594 3053 
L 172 3053 
L 172 3500 
L 594 3500 
L 594 4494 
L 1172 4494 
z
" transform="scale(0.015625)"/>
      </defs>
      <use xlink:href="#DejaVuSans-74"/>
     </g>
    </g>
   </g>
   <g id="matplotlib.axis_2">
    <g id="ytick_1">
     <g id="line2d_9">
      <defs>
       <path id="m00218af779" d="M 0 0 
L -3.5 0 
" style="stroke: #000000; stroke-width: 0.8"/>
      </defs>
      <g>
       <use xlink:href="#m00218af779" x="57.6" y="295.488" style="stroke: #000000; stroke-width: 0.8"/>
      </g>
     </g>
     <g id="text_10">
      <!-- 0 -->
      <g transform="translate(44.2375 299.287219) scale(0.1 -0.1)">
       <use xlink:href="#DejaVuSans-30"/>
      </g>
     </g>
    </g>
    <g id="ytick_2">
     <g id="line2d_10">
      <g>
       <use xlink:href="#m00218af779" x="57.6" y="251.171685" style="stroke: #000000; stroke-width: 0.8"/>
      </g>
     </g>
     <g id="text_11">
      <!-- 5 -->
      <g transform="translate(44.2375 254.970904) scale(0.1 -0.1)">
       <use xlink:href="#DejaVuSans-35"/>
      </g>
     </g>
    </g>
    <g id="ytick_3">
     <g id="line2d_11">
      <g>
       <use xlink:href="#m00218af779" x="57.6" y="206.85537" style="stroke: #000000; stroke-width: 0.8"/>
      </g>
     </g>
     <g id="text_12">
      <!-- 10 -->
      <g transform="translate(37.875 210.654589) scale(0.1 -0.1)">
       <use xlink:href="#DejaVuSans-31"/>
       <use xlink:href="#DejaVuSans-30" x="63.623047"/>
      </g>
     </g>
    </g>
    <g id="ytick_4">
     <g id="line2d_12">
      <g>
       <use xlink:href="#m00218af779" x="57.6" y="162.539055" style="stroke: #000000; stroke-width: 0.8"/>
      </g>
     </g>
     <g id="text_13">
      <!-- 15 -->
      <g transform="translate(37.875 166.338273) scale(0.1 -0.1)">
       <use xlink:href="#DejaVuSans-31"/>
       <use xlink:href="#DejaVuSans-35" x="63.623047"/>
      </g>
     </g>
    </g>
    <g id="ytick_5">
     <g id="line2d_13">
      <g>
       <use xlink:href="#m00218af779" x="57.6" y="118.22274" style="stroke: #000000; stroke-width: 0.8"/>
      </g>
     </g>
     <g id="text_14">
      <!-- 20 -->
      <g transform="translate(37.875 122.021958) scale(0.1 -0.1)">
       <use xlink:href="#DejaVuSans-32"/>
       <use xlink:href="#DejaVuSans-30" x="63.623047"/>
      </g>
     </g>
    </g>
    <g id="ytick_6">
     <g id="line2d_14">
      <g>
       <use xlink:href="#m00218af779" x="57.6" y="73.906424" style="stroke: #000000; stroke-width: 0.8"/>
      </g>
     </g>
     <g id="text_15">
      <!-- 25 -->
      <g transform="translate(37.875 77.705643) scale(0.1 -0.1)">
       <use xlink:href="#DejaVuSans-32"/>
       <use xlink:href="#DejaVuSans-35" x="63.623047"/>
      </g>
     </g>
    </g>
    <g id="text_16">
     <!-- v(t) -->
     <g transform="translate(31.795313 183.349094) rotate(-90) scale(0.1 -0.1)">
      <defs>
       <path id="DejaVuSans-76" d="M 191 3500 
L 800 3500 
L 1894 563 
L 2988 3500 
L 3597 3500 
L 2284 0 
L 1503 0 
L 191 3500 
z
" transform="scale(0.015625)"/>
       <path id="DejaVuSans-28" d="M 1984 4856 
Q 1566 4138 1362 3434 
Q 1159 2731 1159 2009 
Q 1159 1288 1364 580 
Q 1569 -128 1984 -844 
L 1484 -844 
Q 1016 -109 783 600 
Q 550 1309 550 2009 
Q 550 2706 781 3412 
Q 1013 4119 1484 4856 
L 1984 4856 
z
" transform="scale(0.015625)"/>
       <path id="DejaVuSans-29" d="M 513 4856 
L 1013 4856 
Q 1481 4119 1714 3412 
Q 1947 2706 1947 2009 
Q 1947 1309 1714 600 
Q 1481 -109 1013 -844 
L 513 -844 
Q 928 -128 1133 580 
Q 1338 1288 1338 2009 
Q 1338 2731 1133 3434 
Q 928 4138 513 4856 
z
" transform="scale(0.015625)"/>
      </defs>
      <use xlink:href="#DejaVuSans-76"/>
      <use xlink:href="#DejaVuSans-28" x="59.179688"/>
      <use xlink:href="#DejaVuSans-74" x="98.193359"/>
      <use xlink:href="#DejaVuSans-29" x="137.402344"/>
     </g>
    </g>
   </g>
   <g id="line2d_15">
    <path d="M 73.832727 270.155523 
L 75.748093 254.128981 
L 76.705776 244.500995 
L 77.663459 246.995281 
L 78.621142 206.991209 
L 79.578825 255.314438 
L 80.536508 237.900656 
L 81.494191 237.937814 
L 82.451874 253.203953 
L 83.409558 211.478944 
L 84.367241 253.678103 
L 85.324924 253.692539 
L 86.282607 258.47326 
L 87.24029 260.836654 
L 88.197973 229.084256 
L 89.155656 267.680595 
L 90.113339 272.195229 
L 91.071022 272.544598 
L 92.028705 274.461853 
L 92.986388 263.495486 
L 93.944071 283.470026 
L 94.901754 286.221654 
L 95.859437 286.946683 
L 96.81712 289.068559 
L 97.774803 281.092463 
L 98.732486 280.971288 
L 99.690169 276.079569 
L 101.605535 263.411507 
L 102.563218 220.348799 
L 103.520901 254.087383 
L 104.478584 248.939121 
L 105.436267 242.813697 
L 106.39395 239.561206 
L 107.351633 219.311415 
L 108.309316 263.804901 
L 109.266999 261.020212 
L 110.224682 263.801067 
L 111.182365 266.192996 
L 112.140048 243.299042 
L 113.097731 271.728007 
L 115.013097 274.111669 
L 115.97078 277.464496 
L 116.928463 262.689535 
L 117.886146 278.764435 
L 118.843829 280.735968 
L 119.801512 290.05959 
L 120.759195 292.51117 
L 121.716879 290.052151 
L 122.674562 288.98261 
L 123.632245 284.988713 
L 125.547611 273.549264 
L 126.505294 239.510035 
L 127.462977 264.197178 
L 128.42066 259.868013 
L 129.378343 257.823758 
L 130.336026 256.883093 
L 131.293709 226.790314 
L 132.251392 273.96981 
L 134.166758 274.158762 
L 135.124441 274.157244 
L 136.082124 252.900647 
L 137.039807 274.471574 
L 137.99749 270.579623 
L 138.955173 271.867346 
L 139.912856 274.666298 
L 140.870539 251.994796 
L 141.828222 290.446627 
L 142.785905 289.216083 
L 143.743588 288.340057 
L 144.701271 285.796121 
L 145.658954 281.981373 
L 146.616637 286.543173 
L 147.57432 286.325047 
L 149.489686 280.317426 
L 150.447369 256.510438 
L 151.405052 271.016666 
L 152.362735 268.891942 
L 153.320418 270.222405 
L 154.278101 264.057286 
L 155.235784 223.514608 
L 156.193467 253.066331 
L 157.15115 258.398671 
L 158.108833 260.798646 
L 159.066516 268.607403 
L 160.0242 259.981667 
L 160.981883 280.224244 
L 161.939566 278.370255 
L 162.897249 278.381996 
L 163.854932 275.316556 
L 164.812615 259.739531 
L 165.770298 293.248598 
L 166.727981 292.606957 
L 167.685664 292.495398 
L 169.60103 287.291873 
L 170.558713 292.008584 
L 171.516396 292.94081 
L 172.474079 286.057161 
L 173.431762 283.828266 
L 174.389445 273.53409 
L 175.347128 275.006153 
L 176.304811 268.333953 
L 177.262494 271.752007 
L 178.220177 273.163997 
L 179.17786 231.336413 
L 180.135543 259.488892 
L 182.050909 259.441047 
L 183.008592 262.772446 
L 183.966275 239.763054 
L 184.923958 277.028485 
L 185.881641 280.85603 
L 186.839324 282.007418 
L 187.797007 284.237159 
L 188.75469 253.279477 
L 189.712373 283.017128 
L 190.670056 286.18146 
L 191.627739 290.612555 
L 192.585422 286.890052 
L 193.543105 288.915647 
L 194.500788 293.24092 
L 195.458471 293.82088 
L 196.416154 292.516542 
L 197.373837 293.788879 
L 198.331521 284.674666 
L 199.289204 283.683273 
L 200.246887 279.483743 
L 201.20457 277.612656 
L 202.162253 274.007734 
L 203.119936 251.299618 
L 204.077619 266.779118 
L 205.035302 262.436405 
L 205.992985 261.08628 
L 206.950668 258.658956 
L 207.908351 232.550831 
L 208.866034 274.047451 
L 209.823717 286.157688 
L 210.7814 285.907159 
L 211.739083 283.935372 
L 212.696766 266.147491 
L 213.654449 276.096482 
L 214.612132 275.363333 
L 215.569815 279.49321 
L 216.527498 282.262167 
L 217.485181 291.312279 
L 218.442864 294.583649 
L 219.400547 294.124055 
L 220.35823 292.116617 
L 221.315913 292.251769 
L 222.273596 286.022279 
L 223.231279 289.035377 
L 224.188962 287.906874 
L 225.146645 283.486983 
L 226.104328 280.935463 
L 227.062011 260.27813 
L 228.019694 278.690575 
L 228.977377 273.248188 
L 229.93506 270.584162 
L 230.892743 268.677162 
L 231.850426 235.267066 
L 232.808109 263.22842 
L 233.765792 273.708281 
L 234.723475 278.070978 
L 235.681158 285.142615 
L 236.638842 276.475001 
L 237.596525 285.997775 
L 238.554208 281.824824 
L 239.511891 279.498866 
L 240.469574 280.915417 
L 241.427257 278.110909 
L 242.38494 292.964644 
L 243.342623 291.58178 
L 244.300306 293.467526 
L 245.257989 293.53205 
L 246.215672 290.716338 
L 247.173355 294.333028 
L 248.131038 294.794908 
L 249.088721 293.538688 
L 250.046404 288.452376 
L 251.004087 274.911696 
L 251.96177 277.836002 
L 252.919453 276.737776 
L 254.834819 269.563418 
L 255.792502 242.551497 
L 256.750185 265.533441 
L 257.707868 266.719454 
L 258.665551 268.352877 
L 259.623234 271.975776 
L 260.580917 263.511945 
L 261.5386 286.99625 
L 262.496283 284.472641 
L 263.453966 284.577713 
L 264.411649 283.315234 
L 265.369332 272.91531 
L 266.327015 293.849733 
L 267.284698 293.414911 
L 268.242381 289.301451 
L 269.200064 291.753801 
L 270.157747 290.225918 
L 271.11543 293.249223 
L 272.073113 292.856723 
L 273.030796 294.473153 
L 273.988479 294.265039 
L 274.946163 280.349954 
L 275.903846 282.290696 
L 276.861529 279.328071 
L 277.819212 278.516355 
L 278.776895 278.125219 
L 279.734578 246.488338 
L 280.692261 270.29383 
L 281.649944 268.788782 
L 282.607627 271.670535 
L 283.56531 273.464703 
L 284.522993 248.904606 
L 285.480676 272.453677 
L 286.438359 280.047293 
L 287.396042 283.198871 
L 288.353725 286.816689 
L 289.311408 279.543487 
L 290.269091 289.999264 
L 291.226774 290.19198 
L 292.184457 291.813509 
L 293.14214 293.078586 
L 294.099823 287.895019 
L 295.057506 286.703821 
L 296.015189 292.740989 
L 296.972872 290.566358 
L 297.930555 290.896357 
L 298.888238 290.450373 
L 299.845921 287.245799 
L 300.803604 287.297683 
L 301.761287 280.601661 
L 302.71897 276.131817 
L 303.676653 274.577572 
L 304.634336 253.523667 
L 305.592019 266.863482 
L 306.549702 265.163742 
L 307.507385 266.906044 
L 308.465068 264.933014 
L 309.422751 245.442524 
L 310.380434 282.575409 
L 311.338117 281.684576 
L 312.2958 283.810644 
L 313.253484 283.718805 
L 314.211167 274.258387 
L 315.16885 287.01812 
L 316.126533 290.172839 
L 317.084216 291.852981 
L 318.041899 290.500588 
L 318.999582 285.100158 
L 319.957265 290.004234 
L 320.914948 291.91652 
L 321.872631 290.353356 
L 322.830314 291.822925 
L 323.787997 290.842457 
L 324.74568 291.929186 
L 325.703363 290.737462 
L 326.661046 285.158794 
L 327.618729 286.887309 
L 328.576412 267.461033 
L 329.534095 279.286711 
L 330.491778 272.514786 
L 331.449461 274.678825 
L 332.407144 273.383817 
L 333.364827 248.13669 
L 334.32251 278.316148 
L 335.280193 280.106648 
L 336.237876 285.01058 
L 337.195559 286.465825 
L 338.153242 280.115331 
L 339.110925 289.275505 
L 340.068608 289.222463 
L 341.983974 292.599652 
L 342.941657 284.94391 
L 343.89934 295.08242 
L 344.857023 294.562544 
L 345.814706 293.694823 
L 346.772389 292.546576 
L 347.730072 292.034757 
L 348.687755 295.318114 
L 349.645438 293.13902 
L 350.603121 288.392643 
L 351.560805 286.497017 
L 352.518488 271.153487 
L 353.476171 280.857221 
L 354.433854 277.971725 
L 355.391537 276.078257 
L 356.34922 272.665006 
L 357.306903 251.337693 
L 358.264586 275.72449 
L 359.222269 280.710012 
L 360.179952 284.755175 
L 361.137635 284.908706 
L 362.095318 278.062694 
L 363.053001 286.442861 
L 364.010684 288.359264 
L 364.968367 288.750144 
L 365.92605 290.879132 
L 366.883733 286.241399 
L 367.841416 295.070905 
L 368.799099 293.822125 
L 369.756782 293.198455 
L 371.672148 292.584974 
L 372.629831 294.299911 
L 373.587514 292.72791 
L 374.545197 292.610798 
L 375.50288 288.214969 
L 376.460563 272.522611 
L 377.418246 282.113754 
L 378.375929 279.917483 
L 379.333612 279.730935 
L 380.291295 275.569417 
L 381.248978 248.673688 
L 382.206661 270.076641 
L 383.164344 279.906828 
L 384.122027 278.618042 
L 385.07971 280.215926 
L 386.037393 275.558138 
L 386.995076 287.321667 
L 387.952759 287.66402 
L 388.910442 288.881685 
L 389.868126 289.114802 
L 390.825809 290.032328 
L 391.783492 295.13039 
L 392.741175 293.358535 
L 393.698858 294.303848 
L 394.656541 292.199377 
L 395.614224 291.122882 
L 396.571907 294.860714 
L 397.52959 292.518438 
L 398.487273 295.488 
L 398.487273 295.488 
" clip-path="url(#p1212cf7357)" style="fill: none; stroke: #0000ff; stroke-width: 1.5; stroke-linecap: square"/>
   </g>
   <g id="line2d_16">
    <path d="M 73.832727 289.739973 
L 74.79041 285.940106 
L 75.748093 287.733863 
L 76.705776 286.164142 
L 77.663459 281.673547 
L 78.621142 280.447125 
L 79.578825 233.303923 
L 80.536508 259.413188 
L 81.494191 265.394082 
L 82.451874 269.276774 
L 83.409558 268.563749 
L 84.367241 269.930472 
L 85.324924 274.778983 
L 86.282607 276.06674 
L 87.24029 272.399241 
L 88.197973 277.810299 
L 89.155656 269.160283 
L 90.113339 277.774944 
L 91.071022 252.191844 
L 92.986388 249.254934 
L 93.944071 240.895925 
L 94.901754 255.885426 
L 95.859437 252.192978 
L 96.81712 253.983233 
L 97.774803 236.261419 
L 98.732486 272.759176 
L 99.690169 276.077078 
L 100.647852 268.85784 
L 101.605535 265.331575 
L 102.563218 262.320411 
L 103.520901 263.405769 
L 104.478584 262.893736 
L 105.436267 262.832126 
L 106.39395 263.031299 
L 107.351633 258.433498 
L 108.309316 260.324107 
L 109.266999 294.912982 
L 110.224682 285.405956 
L 111.182365 287.216748 
L 112.140048 292.799109 
L 113.097731 265.947016 
L 114.055414 261.32237 
L 115.97078 241.392406 
L 116.928463 222.707259 
L 117.886146 182.377138 
L 118.843829 242.556019 
L 119.801512 249.795744 
L 120.759195 259.177608 
L 121.716879 274.592943 
L 122.674562 275.625377 
L 123.632245 293.617977 
L 124.589928 293.131612 
L 125.547611 290.291545 
L 126.505294 269.921256 
L 127.462977 196.301759 
L 128.42066 249.975655 
L 129.378343 243.406862 
L 130.336026 233.722254 
L 131.293709 251.626841 
L 132.251392 250.293907 
L 133.209075 284.837549 
L 134.166758 289.789455 
L 135.124441 293.840751 
L 136.082124 293.834417 
L 137.039807 277.610773 
L 137.99749 284.767484 
L 138.955173 262.976922 
L 139.912856 252.24769 
L 140.870539 250.200139 
L 141.828222 159.089551 
L 142.785905 229.651782 
L 144.701271 266.685088 
L 145.658954 277.973404 
L 146.616637 272.137877 
L 147.57432 293.471999 
L 148.532003 294.824091 
L 149.489686 293.798001 
L 150.447369 294.957556 
L 151.405052 231.623827 
L 152.362735 252.363134 
L 153.320418 250.457732 
L 154.278101 249.507443 
L 155.235784 244.379114 
L 156.193467 207.441577 
L 157.15115 266.096818 
L 158.108833 272.399053 
L 159.066516 282.486677 
L 160.0242 283.231597 
L 160.981883 281.713761 
L 161.939566 294.649518 
L 162.897249 284.519243 
L 163.854932 271.727557 
L 164.812615 257.386565 
L 165.770298 236.559378 
L 166.727981 243.521657 
L 167.685664 253.335758 
L 168.643347 259.712425 
L 169.60103 270.152503 
L 170.558713 255.597869 
L 171.516396 282.109835 
L 172.474079 280.115594 
L 173.431762 276.168912 
L 174.389445 283.439028 
L 176.304811 263.38796 
L 177.262494 258.796067 
L 178.220177 258.311781 
L 179.17786 259.388597 
L 180.135543 242.98069 
L 181.093226 258.937318 
L 182.050909 262.562108 
L 183.008592 261.556041 
L 183.966275 272.241641 
L 184.923958 276.307886 
L 185.881641 288.384143 
L 187.797007 282.309993 
L 188.75469 283.78677 
L 189.712373 242.283286 
L 190.670056 266.055792 
L 191.627739 259.6562 
L 192.585422 264.191528 
L 193.543105 267.760148 
L 194.500788 268.040035 
L 195.458471 282.519586 
L 197.373837 288.492767 
L 198.331521 288.225881 
L 199.289204 271.343314 
L 200.246887 280.801255 
L 201.20457 270.72121 
L 202.162253 265.182392 
L 203.119936 264.765644 
L 204.077619 249.326548 
L 205.035302 264.445949 
L 205.992985 271.385077 
L 206.950668 273.983024 
L 207.908351 270.93387 
L 208.866034 261.791298 
L 209.823717 287.893039 
L 210.7814 278.799147 
L 211.739083 286.830362 
L 212.696766 286.901349 
L 213.654449 260.572622 
L 214.612132 266.329039 
L 215.569815 267.497997 
L 216.527498 269.685598 
L 217.485181 267.126125 
L 218.442864 262.261128 
L 219.400547 281.674264 
L 220.35823 283.873367 
L 221.315913 282.705664 
L 222.273596 283.818216 
L 223.231279 267.932769 
L 224.188962 278.401663 
L 225.146645 286.187097 
L 226.104328 276.773674 
L 227.062011 272.424909 
L 228.019694 257.850457 
L 228.977377 278.291185 
L 229.93506 278.534206 
L 230.892743 279.5397 
L 231.850426 282.946844 
L 232.808109 264.712515 
L 233.765792 284.318404 
L 234.723475 283.671222 
L 235.681158 277.096586 
L 236.638842 273.684792 
L 237.596525 266.490683 
L 238.554208 281.313662 
L 239.511891 278.623978 
L 240.469574 278.576097 
L 241.427257 278.209635 
L 242.38494 258.03875 
L 243.342623 279.814395 
L 244.300306 280.597068 
L 245.257989 281.601471 
L 246.215672 282.014133 
L 247.173355 263.271526 
L 248.131038 275.944784 
L 249.088721 278.937612 
L 250.046404 287.998835 
L 251.004087 287.37608 
L 251.96177 265.438895 
L 252.919453 281.639794 
L 254.834819 277.07128 
L 255.792502 278.608837 
L 256.750185 261.006265 
L 257.707868 281.630142 
L 258.665551 281.442609 
L 259.623234 283.880301 
L 261.5386 268.136316 
L 262.496283 287.225612 
L 263.453966 285.805093 
L 265.369332 281.978699 
L 266.327015 264.146238 
L 267.284698 276.798402 
L 268.242381 281.133363 
L 269.200064 283.612506 
L 270.157747 284.127972 
L 271.11543 264.726343 
L 272.073113 285.609839 
L 273.030796 283.909084 
L 273.988479 288.982013 
L 274.946163 290.280656 
L 275.903846 280.720972 
L 276.861529 281.139515 
L 277.819212 281.913715 
L 278.776895 278.964667 
L 279.734578 277.635775 
L 280.692261 258.992614 
L 281.649944 279.526661 
L 282.607627 282.380398 
L 283.56531 283.022942 
L 284.522993 284.145987 
L 285.480676 270.708049 
L 286.438359 289.09401 
L 287.396042 294.751472 
L 288.353725 293.579078 
L 289.311408 289.630778 
L 290.269091 263.836855 
L 291.226774 278.372223 
L 292.184457 273.343557 
L 293.14214 271.697857 
L 294.099823 284.526529 
L 295.057506 284.10995 
L 296.015189 264.357725 
L 296.972872 286.756137 
L 297.930555 286.300458 
L 299.845921 294.742551 
L 300.803604 285.719682 
L 301.761287 282.808956 
L 302.71897 279.530577 
L 303.676653 276.9134 
L 304.634336 278.596072 
L 305.592019 252.81482 
L 306.549702 269.286365 
L 307.507385 271.459171 
L 308.465068 279.291691 
L 309.422751 282.675022 
L 310.380434 267.394185 
L 311.338117 293.851554 
L 312.2958 286.056184 
L 313.253484 288.855033 
L 314.211167 286.058555 
L 315.16885 261.879615 
L 316.126533 276.373923 
L 317.084216 277.92233 
L 318.041899 272.206498 
L 318.999582 280.779264 
L 319.957265 266.237557 
L 320.914948 286.461191 
L 321.872631 287.763771 
L 322.830314 286.240826 
L 323.787997 286.110536 
L 324.74568 288.316356 
L 325.703363 294.767049 
L 326.661046 293.523209 
L 327.618729 282.9261 
L 328.576412 283.796672 
L 329.534095 272.721262 
L 330.491778 281.624727 
L 331.449461 280.088638 
L 332.407144 284.194445 
L 333.364827 289.557265 
L 334.32251 287.171635 
L 335.280193 295.024149 
L 337.195559 295.11313 
L 338.153242 295.067569 
L 339.110925 278.393047 
L 340.068608 280.906945 
L 341.026291 274.858843 
L 341.983974 277.713951 
L 342.941657 275.191472 
L 343.89934 278.006407 
L 344.857023 286.378128 
L 346.772389 295.00823 
L 347.730072 295.09882 
L 348.687755 285.330921 
L 349.645438 294.841697 
L 350.603121 294.896001 
L 351.560805 284.50849 
L 352.518488 280.19904 
L 353.476171 261.670427 
L 354.433854 264.129391 
L 355.391537 279.532066 
L 357.306903 288.212025 
L 358.264586 285.182261 
L 359.222269 294.207358 
L 360.179952 292.172573 
L 361.137635 294.03277 
L 362.095318 292.859643 
L 363.053001 280.192714 
L 364.010684 282.166767 
L 364.968367 279.086272 
L 365.92605 279.26143 
L 366.883733 275.076945 
L 367.841416 261.324324 
L 368.799099 285.509011 
L 369.756782 291.51111 
L 370.714465 292.380836 
L 371.672148 290.321925 
L 372.629831 278.121864 
L 373.587514 284.652481 
L 374.545197 280.609801 
L 375.50288 283.725885 
L 376.460563 282.085915 
L 377.418246 271.241925 
L 378.375929 277.773469 
L 379.333612 279.183125 
L 380.291295 282.572584 
L 381.248978 285.498844 
L 382.206661 279.739811 
L 383.164344 284.777539 
L 384.122027 283.838938 
L 385.07971 281.58854 
L 386.037393 281.247751 
L 386.995076 271.409345 
L 387.952759 279.232095 
L 388.910442 280.690223 
L 389.868126 278.693874 
L 390.825809 279.65331 
L 391.783492 277.744546 
L 392.741175 291.876446 
L 393.698858 289.531172 
L 394.656541 292.742295 
L 395.614224 291.964595 
L 396.571907 278.784127 
L 397.52959 283.097315 
L 398.487273 288.175315 
L 398.487273 288.175315 
" clip-path="url(#p1212cf7357)" style="fill: none; stroke: #008000; stroke-width: 1.5; stroke-linecap: square"/>
   </g>
   <g id="line2d_17">
    <path d="M 73.832727 268.071486 
L 74.79041 270.636879 
L 76.705776 252.280085 
L 77.663459 243.971705 
L 78.621142 245.639034 
L 79.578825 208.918948 
L 80.536508 256.754312 
L 81.494191 236.010023 
L 82.451874 239.658157 
L 83.409558 255.55002 
L 84.367241 216.232871 
L 85.324924 261.631351 
L 86.282607 261.24936 
L 87.24029 261.06496 
L 88.197973 263.525298 
L 89.155656 227.67494 
L 90.113339 261.436141 
L 91.071022 261.801876 
L 92.028705 266.006217 
L 92.986388 271.897841 
L 93.944071 265.167268 
L 94.901754 279.356362 
L 95.859437 284.026408 
L 97.774803 283.525037 
L 98.732486 260.559341 
L 99.690169 277.800745 
L 101.605535 268.106707 
L 102.563218 262.642112 
L 103.520901 224.565874 
L 104.478584 256.190651 
L 105.436267 252.981995 
L 106.39395 252.509125 
L 107.351633 237.005748 
L 108.309316 208.392739 
L 109.266999 270.702352 
L 110.224682 269.971695 
L 111.182365 270.871876 
L 112.140048 267.68207 
L 113.097731 246.351941 
L 114.055414 270.85864 
L 115.013097 269.793994 
L 115.97078 268.285943 
L 116.928463 267.56664 
L 117.886146 241.1687 
L 118.843829 271.267659 
L 120.759195 291.347786 
L 121.716879 293.467496 
L 122.674562 289.320591 
L 123.632245 286.479824 
L 124.589928 283.08658 
L 125.547611 278.340359 
L 126.505294 272.851432 
L 127.462977 238.498486 
L 128.42066 264.80141 
L 129.378343 261.55941 
L 130.336026 259.531164 
L 131.293709 258.227735 
L 132.251392 214.432798 
L 133.209075 272.693286 
L 134.166758 273.641017 
L 135.124441 272.985927 
L 136.082124 273.07253 
L 137.039807 252.444612 
L 137.99749 274.641488 
L 138.955173 269.877315 
L 140.870539 274.250305 
L 141.828222 237.883558 
L 142.785905 293.983593 
L 143.743588 291.465531 
L 144.701271 288.170424 
L 145.658954 286.057439 
L 146.616637 271.884584 
L 147.57432 285.667488 
L 149.489686 284.065197 
L 150.447369 281.567349 
L 151.405052 256.558084 
L 152.362735 270.586966 
L 153.320418 268.039202 
L 154.278101 268.022043 
L 155.235784 263.818602 
L 156.193467 225.790557 
L 157.15115 251.495549 
L 158.108833 258.092643 
L 159.066516 263.399364 
L 160.0242 267.030587 
L 160.981883 250.849532 
L 161.939566 278.799635 
L 162.897249 278.223751 
L 163.854932 278.171316 
L 164.812615 279.242077 
L 165.770298 277.247342 
L 166.727981 293.482718 
L 167.685664 293.25819 
L 168.643347 294.286636 
L 169.60103 290.791427 
L 170.558713 278.647938 
L 171.516396 291.310528 
L 172.474079 290.155585 
L 173.431762 283.071797 
L 174.389445 282.09186 
L 175.347128 270.964383 
L 176.304811 275.620343 
L 177.262494 269.766238 
L 178.220177 270.193241 
L 179.17786 273.020698 
L 180.135543 237.716256 
L 181.093226 262.9291 
L 183.008592 258.007054 
L 183.966275 260.437994 
L 184.923958 223.020701 
L 185.881641 272.931358 
L 186.839324 275.684933 
L 188.75469 283.391256 
L 189.712373 266.318311 
L 190.670056 288.197676 
L 191.627739 287.88868 
L 192.585422 288.85637 
L 193.543105 286.488779 
L 194.500788 287.070922 
L 195.458471 294.251968 
L 197.373837 294.399632 
L 198.331521 293.378429 
L 199.289204 283.507119 
L 200.246887 284.593382 
L 201.20457 279.7567 
L 202.162253 277.616698 
L 203.119936 273.21883 
L 204.077619 248.304154 
L 205.035302 266.904492 
L 205.992985 264.933144 
L 206.950668 262.577231 
L 207.908351 259.242413 
L 208.866034 221.114315 
L 209.823717 268.183704 
L 210.7814 274.38748 
L 211.739083 277.164087 
L 212.696766 281.471691 
L 213.654449 266.919071 
L 214.612132 282.313445 
L 215.569815 283.86061 
L 216.527498 289.228202 
L 217.485181 290.52992 
L 218.442864 289.139975 
L 219.400547 293.15796 
L 220.35823 294.678925 
L 221.315913 291.836487 
L 222.273596 291.833273 
L 223.231279 283.830076 
L 224.188962 288.612566 
L 225.146645 287.311756 
L 226.104328 282.971282 
L 227.062011 281.401631 
L 228.019694 262.040313 
L 228.977377 279.588549 
L 229.93506 274.785136 
L 230.892743 272.247695 
L 231.850426 270.79702 
L 232.808109 236.997827 
L 233.765792 263.941063 
L 234.723475 271.996499 
L 235.681158 273.806414 
L 236.638842 277.308841 
L 237.596525 270.703229 
L 238.554208 285.108969 
L 239.511891 284.794103 
L 240.469574 285.844912 
L 241.427257 288.383966 
L 242.38494 285.619868 
L 243.342623 293.245021 
L 244.300306 291.454086 
L 245.257989 293.379275 
L 246.215672 292.690423 
L 247.173355 288.454614 
L 248.131038 294.863736 
L 249.088721 294.971898 
L 250.046404 292.761016 
L 251.004087 287.93241 
L 251.96177 274.328173 
L 252.919453 278.175407 
L 253.877136 277.609836 
L 255.792502 272.24639 
L 256.750185 245.153928 
L 257.707868 266.986066 
L 258.665551 268.810012 
L 259.623234 269.523787 
L 260.580917 271.855934 
L 261.5386 258.646995 
L 262.496283 283.81446 
L 263.453966 284.317398 
L 264.411649 285.579739 
L 265.369332 285.687209 
L 266.327015 284.525014 
L 267.284698 294.165571 
L 269.200064 290.685069 
L 270.157747 293.230221 
L 271.11543 294.119589 
L 272.073113 294.648424 
L 273.030796 293.678537 
L 273.988479 294.813022 
L 274.946163 293.979612 
L 275.903846 279.428432 
L 276.861529 282.308203 
L 277.819212 279.882913 
L 278.776895 279.576581 
L 279.734578 279.692974 
L 280.692261 250.491522 
L 281.649944 273.459486 
L 282.607627 273.055018 
L 283.56531 274.785724 
L 284.522993 276.157511 
L 285.480676 253.729915 
L 286.438359 275.600161 
L 287.396042 280.836523 
L 289.311408 286.305971 
L 290.269091 278.660814 
L 291.226774 289.35946 
L 292.184457 288.80178 
L 293.14214 289.922731 
L 294.099823 291.86272 
L 295.057506 292.551028 
L 296.015189 290.916436 
L 296.972872 292.55384 
L 297.930555 293.648764 
L 298.888238 292.121278 
L 299.845921 290.01068 
L 300.803604 282.287693 
L 301.761287 285.224392 
L 302.71897 281.821378 
L 303.676653 280.165269 
L 304.634336 280.138281 
L 305.592019 260.813766 
L 306.549702 271.630187 
L 307.507385 269.648214 
L 308.465068 270.657697 
L 309.422751 268.396921 
L 310.380434 254.606945 
L 311.338117 283.588911 
L 312.2958 282.3938 
L 313.253484 283.827726 
L 314.211167 283.986123 
L 315.16885 272.807523 
L 316.126533 286.557686 
L 317.084216 289.146181 
L 318.041899 291.365393 
L 318.999582 288.430269 
L 319.957265 282.190289 
L 320.914948 290.633805 
L 321.872631 294.343058 
L 323.787997 291.397955 
L 324.74568 287.393717 
L 325.703363 290.150272 
L 326.661046 290.107546 
L 327.618729 286.777842 
L 328.576412 287.504213 
L 329.534095 275.776462 
L 330.491778 282.393788 
L 331.449461 278.748073 
L 332.407144 279.941637 
L 333.364827 275.219975 
L 334.32251 257.892815 
L 335.280193 281.866627 
L 336.237876 282.060445 
L 337.195559 285.398445 
L 338.153242 286.50165 
L 339.110925 280.192541 
L 340.068608 289.037887 
L 341.026291 288.778378 
L 341.983974 290.437458 
L 342.941657 290.985716 
L 343.89934 285.592352 
L 344.857023 293.43019 
L 345.814706 292.237693 
L 347.730072 294.393724 
L 348.687755 289.233257 
L 349.645438 293.096153 
L 350.603121 291.509629 
L 351.560805 288.451226 
L 352.518488 286.635897 
L 353.476171 275.806212 
L 354.433854 285.561087 
L 355.391537 280.237624 
L 356.34922 280.84157 
L 357.306903 279.059385 
L 358.264586 254.450458 
L 359.222269 276.45951 
L 360.179952 286.159616 
L 361.137635 287.992487 
L 362.095318 287.768567 
L 363.053001 277.881109 
L 364.010684 286.390296 
L 364.968367 285.494659 
L 365.92605 285.373703 
L 366.883733 287.457736 
L 367.841416 286.041574 
L 368.799099 290.788296 
L 369.756782 293.71393 
L 370.714465 292.769161 
L 371.672148 292.351357 
L 372.629831 290.246763 
L 373.587514 294.152024 
L 374.545197 290.223687 
L 375.50288 291.38134 
L 376.460563 287.153654 
L 377.418246 275.756046 
L 378.375929 285.496635 
L 379.333612 284.950838 
L 380.291295 282.759789 
L 381.248978 277.568046 
L 382.206661 256.165901 
L 383.164344 267.115067 
L 384.122027 280.124568 
L 385.07971 286.7313 
L 386.037393 291.853585 
L 386.995076 281.419045 
L 387.952759 286.268044 
L 388.910442 287.640559 
L 389.868126 282.926069 
L 390.825809 284.101969 
L 391.783492 275.421954 
L 392.741175 290.692432 
L 393.698858 291.081267 
L 394.656541 291.777816 
L 395.614224 292.952898 
L 396.571907 289.903564 
L 397.52959 292.299691 
L 398.487273 293.683492 
L 398.487273 293.683492 
" clip-path="url(#p1212cf7357)" style="fill: none; stroke: #ffa500; stroke-width: 1.5; stroke-linecap: square"/>
   </g>
   <g id="line2d_18">
    <path d="M 73.832727 239.431803 
L 74.79041 258.94383 
L 76.705776 258.94383 
L 77.663459 250.294049 
L 78.621142 250.294049 
L 79.578825 206.413309 
L 80.536508 250.294049 
L 81.494191 250.294049 
L 82.451874 258.94383 
L 83.409558 250.294049 
L 84.367241 230.962471 
L 85.324924 263.531051 
L 86.282607 255.850283 
L 88.197973 255.850283 
L 89.155656 211.403704 
L 90.113339 255.850283 
L 91.071022 247.757868 
L 92.028705 255.850283 
L 92.986388 258.94383 
L 93.944071 230.962471 
L 94.901754 258.94383 
L 95.859437 267.459901 
L 97.774803 267.459901 
L 98.732486 247.757868 
L 99.690169 267.459901 
L 100.647852 267.459901 
L 101.605535 258.94383 
L 102.563218 258.94383 
L 103.520901 222.399661 
L 104.478584 258.94383 
L 107.351633 258.94383 
L 108.309316 239.431803 
L 109.266999 267.459901 
L 110.224682 267.459901 
L 111.182365 275.669141 
L 112.140048 267.459901 
L 113.097731 236.031424 
L 114.055414 263.531051 
L 115.013097 255.850283 
L 115.97078 255.850283 
L 116.928463 267.459901 
L 117.886146 230.962471 
L 118.843829 267.459901 
L 121.716879 267.459901 
L 122.674562 250.294049 
L 123.632245 267.459901 
L 124.589928 275.669141 
L 125.547611 267.459901 
L 126.505294 267.459901 
L 127.462977 232.815266 
L 128.42066 267.459901 
L 129.378343 258.94383 
L 130.336026 267.459901 
L 131.293709 267.459901 
L 132.251392 258.94383 
L 134.166758 275.669141 
L 137.039807 275.669141 
L 137.99749 267.459901 
L 140.870539 267.459901 
L 141.828222 241.574876 
L 142.785905 267.459901 
L 143.743588 286.624737 
L 144.701271 267.459901 
L 145.658954 267.459901 
L 146.616637 282.953453 
L 147.57432 275.669141 
L 149.489686 275.669141 
L 150.447369 277.761474 
L 151.405052 277.761474 
L 152.362735 268.898211 
L 153.320418 268.898211 
L 154.278101 267.459901 
L 155.235784 277.761474 
L 156.193467 258.94383 
L 157.15115 275.669141 
L 158.108833 282.953453 
L 160.0242 282.953453 
L 160.981883 286.624737 
L 161.939566 275.669141 
L 162.897249 275.669141 
L 163.854932 282.953453 
L 168.643347 282.953453 
L 169.60103 286.624737 
L 170.558713 282.953453 
L 171.516396 277.761474 
L 172.474079 268.898211 
L 174.389445 286.624737 
L 175.347128 286.624737 
L 176.304811 282.953453 
L 179.17786 282.953453 
L 180.135543 286.624737 
L 181.093226 282.953453 
L 182.050909 282.953453 
L 183.008592 286.624737 
L 183.966275 282.953453 
L 186.839324 282.953453 
L 187.797007 286.624737 
L 188.75469 286.624737 
L 189.712373 282.953453 
L 190.670056 286.624737 
L 191.627739 286.624737 
L 192.585422 282.953453 
L 193.543105 286.624737 
L 194.500788 286.624737 
L 195.458471 282.953453 
L 197.373837 282.953453 
L 198.331521 286.624737 
L 199.289204 282.953453 
L 200.246887 286.624737 
L 201.20457 295.488 
L 202.162253 295.488 
L 203.119936 286.624737 
L 207.908351 286.624737 
L 208.866034 282.953453 
L 209.823717 286.624737 
L 217.485181 286.624737 
L 218.442864 295.488 
L 219.400547 286.624737 
L 222.273596 286.624737 
L 223.231279 282.953453 
L 224.188962 286.624737 
L 226.104328 286.624737 
L 227.062011 282.953453 
L 228.019694 295.488 
L 230.892743 295.488 
L 231.850426 286.624737 
L 232.808109 295.488 
L 233.765792 286.624737 
L 234.723475 286.624737 
L 235.681158 295.488 
L 236.638842 286.624737 
L 237.596525 286.624737 
L 238.554208 295.488 
L 239.511891 295.488 
L 240.469574 286.624737 
L 242.38494 286.624737 
L 243.342623 295.488 
L 245.257989 295.488 
L 246.215672 286.624737 
L 248.131038 286.624737 
L 249.088721 295.488 
L 251.004087 295.488 
L 251.96177 286.624737 
L 252.919453 295.488 
L 253.877136 295.488 
L 254.834819 286.624737 
L 255.792502 286.624737 
L 256.750185 295.488 
L 257.707868 286.624737 
L 258.665551 295.488 
L 261.5386 295.488 
L 262.496283 282.953453 
L 263.453966 295.488 
L 264.411649 286.624737 
L 266.327015 286.624737 
L 267.284698 295.488 
L 268.242381 295.488 
L 269.200064 286.624737 
L 270.157747 295.488 
L 271.11543 286.624737 
L 282.607627 286.624737 
L 283.56531 282.953453 
L 284.522993 286.624737 
L 285.480676 286.624737 
L 286.438359 295.488 
L 287.396042 282.953453 
L 289.311408 282.953453 
L 290.269091 286.624737 
L 291.226774 282.953453 
L 292.184457 286.624737 
L 293.14214 282.953453 
L 296.015189 282.953453 
L 296.972872 286.624737 
L 297.930555 282.953453 
L 298.888238 286.624737 
L 299.845921 282.953453 
L 300.803604 295.488 
L 301.761287 286.624737 
L 302.71897 286.624737 
L 303.676653 295.488 
L 304.634336 286.624737 
L 305.592019 268.898211 
L 307.507385 286.624737 
L 308.465068 286.624737 
L 309.422751 282.953453 
L 310.380434 277.761474 
L 311.338117 295.488 
L 312.2958 286.624737 
L 318.999582 286.624737 
L 319.957265 258.94383 
L 320.914948 286.624737 
L 321.872631 277.761474 
L 322.830314 295.488 
L 323.787997 286.624737 
L 324.74568 267.459901 
L 325.703363 277.761474 
L 326.661046 277.761474 
L 327.618729 286.624737 
L 328.576412 277.761474 
L 329.534095 267.459901 
L 330.491778 277.761474 
L 332.407144 277.761474 
L 333.364827 275.669141 
L 334.32251 258.94383 
L 335.280193 282.953453 
L 336.237876 286.624737 
L 338.153242 286.624737 
L 339.110925 267.459901 
L 340.068608 286.624737 
L 341.026291 286.624737 
L 341.983974 277.761474 
L 342.941657 286.624737 
L 343.89934 258.94383 
L 344.857023 277.761474 
L 345.814706 277.761474 
L 346.772389 286.624737 
L 347.730072 286.624737 
L 348.687755 268.898211 
L 349.645438 286.624737 
L 352.518488 286.624737 
L 353.476171 277.761474 
L 354.433854 282.953453 
L 355.391537 286.624737 
L 356.34922 282.953453 
L 357.306903 275.669141 
L 358.264586 267.459901 
L 360.179952 282.953453 
L 362.095318 282.953453 
L 363.053001 268.898211 
L 364.010684 282.953453 
L 364.968367 282.953453 
L 365.92605 286.624737 
L 366.883733 275.669141 
L 367.841416 260.034948 
L 368.799099 286.624737 
L 369.756782 286.624737 
L 370.714465 295.488 
L 371.672148 295.488 
L 372.629831 286.624737 
L 374.545197 286.624737 
L 375.50288 295.488 
L 376.460563 286.624737 
L 377.418246 286.624737 
L 378.375929 282.953453 
L 379.333612 286.624737 
L 388.910442 286.624737 
L 389.868126 282.953453 
L 390.825809 286.624737 
L 391.783492 282.953453 
L 392.741175 286.624737 
L 396.571907 286.624737 
L 397.52959 295.488 
L 398.487273 286.624737 
L 398.487273 286.624737 
" clip-path="url(#p1212cf7357)" style="fill: none; stroke: #ffff00; stroke-width: 1.5; stroke-linecap: square"/>
   </g>
   <g id="line2d_19">
    <path d="M 73.832727 241.574876 
L 74.79041 258.94383 
L 75.748093 258.94383 
L 76.705776 250.294049 
L 77.663459 250.294049 
L 78.621142 247.757868 
L 79.578825 215.22774 
L 80.536508 247.757868 
L 81.494191 250.294049 
L 82.451874 255.850283 
L 83.409558 255.850283 
L 84.367241 227.9874 
L 85.324924 263.531051 
L 86.282607 263.531051 
L 87.24029 255.850283 
L 88.197973 255.850283 
L 89.155656 208.194983 
L 90.113339 247.757868 
L 91.071022 255.850283 
L 92.028705 247.757868 
L 92.986388 258.94383 
L 93.944071 222.399661 
L 94.901754 267.459901 
L 97.774803 267.459901 
L 98.732486 247.757868 
L 99.690169 267.459901 
L 101.605535 267.459901 
L 102.563218 258.94383 
L 103.520901 219.760248 
L 104.478584 258.94383 
L 105.436267 258.94383 
L 106.39395 255.850283 
L 107.351633 267.459901 
L 108.309316 239.431803 
L 109.266999 275.669141 
L 110.224682 270.418906 
L 111.182365 270.418906 
L 112.140048 263.531051 
L 113.097731 231.574101 
L 114.055414 251.171685 
L 115.013097 263.531051 
L 115.97078 255.850283 
L 116.928463 255.850283 
L 117.886146 222.399661 
L 118.843829 267.459901 
L 120.759195 267.459901 
L 121.716879 275.669141 
L 122.674562 255.850283 
L 123.632245 275.669141 
L 124.589928 267.459901 
L 125.547611 275.669141 
L 126.505294 275.669141 
L 127.462977 232.815266 
L 128.42066 275.669141 
L 129.378343 267.459901 
L 130.336026 275.669141 
L 131.293709 267.459901 
L 132.251392 267.459901 
L 133.209075 275.669141 
L 135.124441 275.669141 
L 136.082124 282.953453 
L 137.039807 275.669141 
L 140.870539 275.669141 
L 141.828222 267.459901 
L 142.785905 277.761474 
L 143.743588 267.459901 
L 144.701271 267.459901 
L 145.658954 275.669141 
L 146.616637 267.459901 
L 148.532003 282.953453 
L 149.489686 275.669141 
L 150.447369 282.953453 
L 154.278101 282.953453 
L 155.235784 286.624737 
L 156.193467 295.488 
L 157.15115 282.953453 
L 158.108833 286.624737 
L 160.981883 286.624737 
L 161.939566 295.488 
L 162.897249 286.624737 
L 163.854932 286.624737 
L 164.812615 282.953453 
L 165.770298 286.624737 
L 166.727981 286.624737 
L 167.685664 295.488 
L 168.643347 286.624737 
L 169.60103 286.624737 
L 170.558713 282.953453 
L 171.516396 286.624737 
L 172.474079 282.953453 
L 173.431762 286.624737 
L 175.347128 286.624737 
L 176.304811 282.953453 
L 178.220177 282.953453 
L 179.17786 286.624737 
L 180.135543 286.624737 
L 181.093226 282.953453 
L 182.050909 282.953453 
L 183.008592 286.624737 
L 186.839324 286.624737 
L 187.797007 295.488 
L 188.75469 295.488 
L 189.712373 286.624737 
L 194.500788 286.624737 
L 195.458471 282.953453 
L 196.416154 286.624737 
L 200.246887 286.624737 
L 201.20457 295.488 
L 202.162253 286.624737 
L 203.119936 282.953453 
L 204.077619 295.488 
L 205.035302 286.624737 
L 206.950668 286.624737 
L 207.908351 295.488 
L 210.7814 295.488 
L 211.739083 286.624737 
L 212.696766 286.624737 
L 213.654449 295.488 
L 214.612132 286.624737 
L 216.527498 286.624737 
L 217.485181 295.488 
L 218.442864 282.953453 
L 219.400547 282.953453 
L 220.35823 286.624737 
L 221.315913 282.953453 
L 222.273596 295.488 
L 223.231279 286.624737 
L 224.188962 286.624737 
L 225.146645 295.488 
L 226.104328 286.624737 
L 228.019694 286.624737 
L 228.977377 295.488 
L 229.93506 286.624737 
L 230.892743 295.488 
L 231.850426 286.624737 
L 232.808109 295.488 
L 233.765792 295.488 
L 234.723475 286.624737 
L 235.681158 295.488 
L 236.638842 286.624737 
L 237.596525 286.624737 
L 238.554208 295.488 
L 239.511891 286.624737 
L 240.469574 295.488 
L 241.427257 286.624737 
L 242.38494 268.898211 
L 243.342623 277.761474 
L 244.300306 282.953453 
L 245.257989 282.953453 
L 246.215672 286.624737 
L 247.173355 277.761474 
L 249.088721 295.488 
L 251.004087 295.488 
L 251.96177 277.761474 
L 252.919453 295.488 
L 253.877136 277.761474 
L 254.834819 295.488 
L 255.792502 282.953453 
L 256.750185 251.171685 
L 257.707868 286.624737 
L 258.665551 286.624737 
L 259.623234 282.953453 
L 260.580917 295.488 
L 261.5386 277.761474 
L 263.453966 295.488 
L 264.411649 295.488 
L 265.369332 286.624737 
L 266.327015 260.034948 
L 267.284698 277.761474 
L 268.242381 286.624737 
L 270.157747 286.624737 
L 271.11543 267.459901 
L 272.073113 295.488 
L 276.861529 295.488 
L 277.819212 286.624737 
L 280.692261 286.624737 
L 281.649944 295.488 
L 285.480676 295.488 
L 286.438359 286.624737 
L 287.396042 295.488 
L 291.226774 295.488 
L 292.184457 282.953453 
L 293.14214 282.953453 
L 294.099823 286.624737 
L 295.057506 295.488 
L 296.015189 295.488 
L 296.972872 282.953453 
L 297.930555 295.488 
L 299.845921 295.488 
L 300.803604 286.624737 
L 301.761287 295.488 
L 302.71897 286.624737 
L 303.676653 286.624737 
L 304.634336 295.488 
L 305.592019 286.624737 
L 306.549702 286.624737 
L 307.507385 282.953453 
L 308.465068 295.488 
L 309.422751 286.624737 
L 310.380434 286.624737 
L 311.338117 295.488 
L 312.2958 295.488 
L 313.253484 286.624737 
L 319.957265 286.624737 
L 320.914948 295.488 
L 321.872631 286.624737 
L 322.830314 295.488 
L 323.787997 286.624737 
L 324.74568 295.488 
L 327.618729 295.488 
L 328.576412 286.624737 
L 329.534095 286.624737 
L 330.491778 295.488 
L 331.449461 286.624737 
L 333.364827 286.624737 
L 334.32251 295.488 
L 336.237876 295.488 
L 337.195559 286.624737 
L 338.153242 295.488 
L 340.068608 295.488 
L 341.983974 277.761474 
L 342.941657 275.669141 
L 343.89934 219.760248 
L 344.857023 282.953453 
L 345.814706 286.624737 
L 346.772389 295.488 
L 347.730072 295.488 
L 348.687755 277.761474 
L 349.645438 282.953453 
L 350.603121 286.624737 
L 351.560805 295.488 
L 352.518488 286.624737 
L 353.476171 267.459901 
L 354.433854 282.953453 
L 355.391537 277.761474 
L 356.34922 282.953453 
L 357.306903 295.488 
L 358.264586 267.459901 
L 359.222269 286.624737 
L 361.137635 286.624737 
L 362.095318 282.953453 
L 363.053001 258.94383 
L 364.010684 295.488 
L 365.92605 295.488 
L 366.883733 286.624737 
L 367.841416 251.171685 
L 368.799099 282.953453 
L 369.756782 277.761474 
L 370.714465 275.669141 
L 371.672148 286.624737 
L 372.629831 260.034948 
L 373.587514 295.488 
L 375.50288 295.488 
L 376.460563 286.624737 
L 377.418246 275.669141 
L 378.375929 286.624737 
L 379.333612 282.953453 
L 380.291295 282.953453 
L 381.248978 286.624737 
L 382.206661 267.459901 
L 383.164344 282.953453 
L 384.122027 286.624737 
L 385.07971 295.488 
L 386.037393 286.624737 
L 386.995076 282.953453 
L 387.952759 295.488 
L 388.910442 295.488 
L 389.868126 286.624737 
L 390.825809 295.488 
L 391.783492 282.953453 
L 392.741175 286.624737 
L 393.698858 282.953453 
L 394.656541 286.624737 
L 397.52959 286.624737 
L 398.487273 295.488 
L 398.487273 295.488 
" clip-path="url(#p1212cf7357)" style="fill: none; stroke: #800080; stroke-width: 1.5; stroke-linecap: square"/>
   </g>
   <g id="line2d_20">
    <path d="M 73.832727 247.757868 
L 74.79041 251.171685 
L 75.748093 242.308422 
L 76.705776 263.531051 
L 77.663459 255.850283 
L 78.621142 233.445159 
L 79.578825 195.211626 
L 80.536508 231.574101 
L 81.494191 242.308422 
L 82.451874 224.030089 
L 83.409558 241.574876 
L 84.367241 232.815266 
L 85.324924 255.850283 
L 86.282607 227.9874 
L 87.24029 268.898211 
L 88.197973 53.568 
L 89.155656 277.761474 
L 90.113339 277.761474 
L 91.071022 277.761474 
L 92.028705 267.459901 
L 92.986388 282.953453 
L 93.944071 282.953453 
L 94.901754 267.459901 
L 95.859437 275.669141 
L 96.81712 286.624737 
L 97.774803 260.034948 
L 98.732486 258.94383 
L 99.690169 219.760248 
L 100.647852 255.850283 
L 101.605535 239.431803 
L 102.563218 247.757868 
L 103.520901 270.418906 
L 104.478584 200.027736 
L 105.436267 142.998657 
L 106.39395 268.898211 
L 107.351633 250.294049 
L 108.309316 227.9874 
L 109.266999 197.59006 
L 110.224682 282.953453 
L 111.182365 275.669141 
L 112.140048 270.418906 
L 113.097731 286.624737 
L 114.055414 263.531051 
L 115.013097 268.898211 
L 115.97078 282.953453 
L 116.928463 286.624737 
L 117.886146 268.898211 
L 118.843829 230.962471 
L 119.801512 275.669141 
L 120.759195 243.80674 
L 121.716879 260.034948 
L 122.674562 255.850283 
L 123.632245 232.815266 
L 124.589928 267.459901 
L 125.547611 268.898211 
L 126.505294 286.624737 
L 127.462977 260.034948 
L 128.42066 112.767152 
L 129.378343 277.761474 
L 130.336026 255.850283 
L 131.293709 275.669141 
L 132.251392 267.459901 
L 133.209075 270.418906 
L 134.166758 277.761474 
L 135.124441 275.669141 
L 136.082124 295.488 
L 137.039807 282.953453 
L 137.99749 258.94383 
L 138.955173 267.459901 
L 139.912856 275.669141 
L 140.870539 250.294049 
L 141.828222 263.531051 
L 142.785905 233.445159 
L 143.743588 270.418906 
L 144.701271 277.761474 
L 145.658954 242.308422 
L 146.616637 282.953453 
L 147.57432 188.76018 
L 148.532003 241.574876 
L 149.489686 196.393707 
L 150.447369 282.953453 
L 151.405052 263.531051 
L 152.362735 275.669141 
L 153.320418 282.953453 
L 154.278101 275.669141 
L 155.235784 286.624737 
L 156.193467 277.761474 
L 157.15115 286.624737 
L 158.108833 277.761474 
L 159.066516 282.953453 
L 160.0242 275.669141 
L 160.981883 268.898211 
L 161.939566 268.898211 
L 162.897249 268.898211 
L 163.854932 224.581896 
L 164.812615 275.669141 
L 165.770298 267.459901 
L 166.727981 275.669141 
L 167.685664 275.669141 
L 168.643347 232.815266 
L 169.60103 277.761474 
L 170.558713 205.100098 
L 171.516396 282.953453 
L 172.474079 267.459901 
L 173.431762 255.850283 
L 174.389445 286.624737 
L 175.347128 282.953453 
L 176.304811 286.624737 
L 177.262494 282.953453 
L 178.220177 286.624737 
L 179.17786 275.669141 
L 180.135543 286.624737 
L 181.093226 267.459901 
L 182.050909 275.669141 
L 183.008592 277.761474 
L 183.966275 197.59006 
L 184.923958 112.767152 
L 185.881641 250.294049 
L 186.839324 231.574101 
" clip-path="url(#p1212cf7357)" style="fill: none; stroke: #ff0000; stroke-width: 1.5; stroke-linecap: square"/>
   </g>
   <g id="patch_3">
    <path d="M 57.6 307.584 
L 57.6 41.472 
" style="fill: none; stroke: #000000; stroke-width: 0.8; stroke-linejoin: miter; stroke-linecap: square"/>
   </g>
   <g id="patch_4">
    <path d="M 414.72 307.584 
L 414.72 41.472 
" style="fill: none; stroke: #000000; stroke-width: 0.8; stroke-linejoin: miter; stroke-linecap: square"/>
   </g>
   <g id="patch_5">
    <path d="M 57.6 307.584 
L 414.72 307.584 
" style="fill: none; stroke: #000000; stroke-width: 0.8; stroke-linejoin: miter; stroke-linecap: square"/>
   </g>
   <g id="patch_6">
    <path d="M 57.6 41.472 
L 414.72 41.472 
" style="fill: none; stroke: #000000; stroke-width: 0.8; stroke-linejoin: miter; stroke-linecap: square"/>
   </g>
   <g id="text_17">
    <!-- Velocidad -->
    <g transform="translate(207.229688 35.472) scale(0.12 -0.12)">
     <defs>
      <path id="DejaVuSans-56" d="M 1831 0 
L 50 4666 
L 709 4666 
L 2188 738 
L 3669 4666 
L 4325 4666 
L 2547 0 
L 1831 0 
z
" transform="scale(0.015625)"/>
      <path id="DejaVuSans-65" d="M 3597 1894 
L 3597 1613 
L 953 1613 
Q 991 1019 1311 708 
Q 1631 397 2203 397 
Q 2534 397 2845 478 
Q 3156 559 3463 722 
L 3463 178 
Q 3153 47 2828 -22 
Q 2503 -91 2169 -91 
Q 1331 -91 842 396 
Q 353 884 353 1716 
Q 353 2575 817 3079 
Q 1281 3584 2069 3584 
Q 2775 3584 3186 3129 
Q 3597 2675 3597 1894 
z
M 3022 2063 
Q 3016 2534 2758 2815 
Q 2500 3097 2075 3097 
Q 1594 3097 1305 2825 
Q 1016 2553 972 2059 
L 3022 2063 
z
" transform="scale(0.015625)"/>
      <path id="DejaVuSans-6c" d="M 603 4863 
L 1178 4863 
L 1178 0 
L 603 0 
L 603 4863 
z
" transform="scale(0.015625)"/>
      <path id="DejaVuSans-6f" d="M 1959 3097 
Q 1497 3097 1228 2736 
Q 959 2375 959 1747 
Q 959 1119 1226 758 
Q 1494 397 1959 397 
Q 2419 397 2687 759 
Q 2956 1122 2956 1747 
Q 2956 2369 2687 2733 
Q 2419 3097 1959 3097 
z
M 1959 3584 
Q 2709 3584 3137 3096 
Q 3566 2609 3566 1747 
Q 3566 888 3137 398 
Q 2709 -91 1959 -91 
Q 1206 -91 779 398 
Q 353 888 353 1747 
Q 353 2609 779 3096 
Q 1206 3584 1959 3584 
z
" transform="scale(0.015625)"/>
      <path id="DejaVuSans-63" d="M 3122 3366 
L 3122 2828 
Q 2878 2963 2633 3030 
Q 2388 3097 2138 3097 
Q 1578 3097 1268 2742 
Q 959 2388 959 1747 
Q 959 1106 1268 751 
Q 1578 397 2138 397 
Q 2388 397 2633 464 
Q 2878 531 3122 666 
L 3122 134 
Q 2881 22 2623 -34 
Q 2366 -91 2075 -91 
Q 1284 -91 818 406 
Q 353 903 353 1747 
Q 353 2603 823 3093 
Q 1294 3584 2113 3584 
Q 2378 3584 2631 3529 
Q 2884 3475 3122 3366 
z
" transform="scale(0.015625)"/>
      <path id="DejaVuSans-69" d="M 603 3500 
L 1178 3500 
L 1178 0 
L 603 0 
L 603 3500 
z
M 603 4863 
L 1178 4863 
L 1178 4134 
L 603 4134 
L 603 4863 
z
" transform="scale(0.015625)"/>
      <path id="DejaVuSans-64" d="M 2906 2969 
L 2906 4863 
L 3481 4863 
L 3481 0 
L 2906 0 
L 2906 525 
Q 2725 213 2448 61 
Q 2172 -91 1784 -91 
Q 1150 -91 751 415 
Q 353 922 353 1747 
Q 353 2572 751 3078 
Q 1150 3584 1784 3584 
Q 2172 3584 2448 3432 
Q 2725 3281 2906 2969 
z
M 947 1747 
Q 947 1113 1208 752 
Q 1469 391 1925 391 
Q 2381 391 2643 752 
Q 2906 1113 2906 1747 
Q 2906 2381 2643 2742 
Q 2381 3103 1925 3103 
Q 1469 3103 1208 2742 
Q 947 2381 947 1747 
z
" transform="scale(0.015625)"/>
      <path id="DejaVuSans-61" d="M 2194 1759 
Q 1497 1759 1228 1600 
Q 959 1441 959 1056 
Q 959 750 1161 570 
Q 1363 391 1709 391 
Q 2188 391 2477 730 
Q 2766 1069 2766 1631 
L 2766 1759 
L 2194 1759 
z
M 3341 1997 
L 3341 0 
L 2766 0 
L 2766 531 
Q 2569 213 2275 61 
Q 1981 -91 1556 -91 
Q 1019 -91 701 211 
Q 384 513 384 1019 
Q 384 1609 779 1909 
Q 1175 2209 1959 2209 
L 2766 2209 
L 2766 2266 
Q 2766 2663 2505 2880 
Q 2244 3097 1772 3097 
Q 1472 3097 1187 3025 
Q 903 2953 641 2809 
L 641 3341 
Q 956 3463 1253 3523 
Q 1550 3584 1831 3584 
Q 2591 3584 2966 3190 
Q 3341 2797 3341 1997 
z
" transform="scale(0.015625)"/>
     </defs>
     <use xlink:href="#DejaVuSans-56"/>
     <use xlink:href="#DejaVuSans-65" x="60.658203"/>
     <use xlink:href="#DejaVuSans-6c" x="122.181641"/>
     <use xlink:href="#DejaVuSans-6f" x="149.964844"/>
     <use xlink:href="#DejaVuSans-63" x="211.146484"/>
     <use xlink:href="#DejaVuSans-69" x="266.126953"/>
     <use xlink:href="#DejaVuSans-64" x="293.910156"/>
     <use xlink:href="#DejaVuSans-61" x="357.386719"/>
     <use xlink:href="#DejaVuSans-64" x="418.666016"/>
    </g>
   </g>
   <g id="legend_1">
    <g id="patch_7">
     <path d="M 254.548125 137.54075 
L 407.72 137.54075 
Q 409.72 137.54075 409.72 135.54075 
L 409.72 48.472 
Q 409.72 46.472 407.72 46.472 
L 254.548125 46.472 
Q 252.548125 46.472 252.548125 48.472 
L 252.548125 135.54075 
Q 252.548125 137.54075 254.548125 137.54075 
z
" style="fill: #ffffff; opacity: 0.8; stroke: #cccccc; stroke-linejoin: miter"/>
    </g>
    <g id="line2d_21">
     <path d="M 256.548125 54.570438 
L 266.548125 54.570438 
L 276.548125 54.570438 
" style="fill: none; stroke: #0000ff; stroke-width: 1.5; stroke-linecap: square"/>
    </g>
    <g id="text_18">
     <!-- Farneback -->
     <g transform="translate(284.548125 58.070438) scale(0.1 -0.1)">
      <defs>
       <path id="DejaVuSans-46" d="M 628 4666 
L 3309 4666 
L 3309 4134 
L 1259 4134 
L 1259 2759 
L 3109 2759 
L 3109 2228 
L 1259 2228 
L 1259 0 
L 628 0 
L 628 4666 
z
" transform="scale(0.015625)"/>
       <path id="DejaVuSans-72" d="M 2631 2963 
Q 2534 3019 2420 3045 
Q 2306 3072 2169 3072 
Q 1681 3072 1420 2755 
Q 1159 2438 1159 1844 
L 1159 0 
L 581 0 
L 581 3500 
L 1159 3500 
L 1159 2956 
Q 1341 3275 1631 3429 
Q 1922 3584 2338 3584 
Q 2397 3584 2469 3576 
Q 2541 3569 2628 3553 
L 2631 2963 
z
" transform="scale(0.015625)"/>
       <path id="DejaVuSans-6e" d="M 3513 2113 
L 3513 0 
L 2938 0 
L 2938 2094 
Q 2938 2591 2744 2837 
Q 2550 3084 2163 3084 
Q 1697 3084 1428 2787 
Q 1159 2491 1159 1978 
L 1159 0 
L 581 0 
L 581 3500 
L 1159 3500 
L 1159 2956 
Q 1366 3272 1645 3428 
Q 1925 3584 2291 3584 
Q 2894 3584 3203 3211 
Q 3513 2838 3513 2113 
z
" transform="scale(0.015625)"/>
       <path id="DejaVuSans-62" d="M 3116 1747 
Q 3116 2381 2855 2742 
Q 2594 3103 2138 3103 
Q 1681 3103 1420 2742 
Q 1159 2381 1159 1747 
Q 1159 1113 1420 752 
Q 1681 391 2138 391 
Q 2594 391 2855 752 
Q 3116 1113 3116 1747 
z
M 1159 2969 
Q 1341 3281 1617 3432 
Q 1894 3584 2278 3584 
Q 2916 3584 3314 3078 
Q 3713 2572 3713 1747 
Q 3713 922 3314 415 
Q 2916 -91 2278 -91 
Q 1894 -91 1617 61 
Q 1341 213 1159 525 
L 1159 0 
L 581 0 
L 581 4863 
L 1159 4863 
L 1159 2969 
z
" transform="scale(0.015625)"/>
       <path id="DejaVuSans-6b" d="M 581 4863 
L 1159 4863 
L 1159 1991 
L 2875 3500 
L 3609 3500 
L 1753 1863 
L 3688 0 
L 2938 0 
L 1159 1709 
L 1159 0 
L 581 0 
L 581 4863 
z
" transform="scale(0.015625)"/>
      </defs>
      <use xlink:href="#DejaVuSans-46"/>
      <use xlink:href="#DejaVuSans-61" x="48.394531"/>
      <use xlink:href="#DejaVuSans-72" x="109.673828"/>
      <use xlink:href="#DejaVuSans-6e" x="149.037109"/>
      <use xlink:href="#DejaVuSans-65" x="212.416016"/>
      <use xlink:href="#DejaVuSans-62" x="273.939453"/>
      <use xlink:href="#DejaVuSans-61" x="337.416016"/>
      <use xlink:href="#DejaVuSans-63" x="398.695312"/>
      <use xlink:href="#DejaVuSans-6b" x="453.675781"/>
     </g>
    </g>
    <g id="line2d_22">
     <path d="M 256.548125 69.248563 
L 266.548125 69.248563 
L 276.548125 69.248563 
" style="fill: none; stroke: #008000; stroke-width: 1.5; stroke-linecap: square"/>
    </g>
    <g id="text_19">
     <!-- Lucas-Kanade (Mano) -->
     <g transform="translate(284.548125 72.748563) scale(0.1 -0.1)">
      <defs>
       <path id="DejaVuSans-4c" d="M 628 4666 
L 1259 4666 
L 1259 531 
L 3531 531 
L 3531 0 
L 628 0 
L 628 4666 
z
" transform="scale(0.015625)"/>
       <path id="DejaVuSans-75" d="M 544 1381 
L 544 3500 
L 1119 3500 
L 1119 1403 
Q 1119 906 1312 657 
Q 1506 409 1894 409 
Q 2359 409 2629 706 
Q 2900 1003 2900 1516 
L 2900 3500 
L 3475 3500 
L 3475 0 
L 2900 0 
L 2900 538 
Q 2691 219 2414 64 
Q 2138 -91 1772 -91 
Q 1169 -91 856 284 
Q 544 659 544 1381 
z
M 1991 3584 
L 1991 3584 
z
" transform="scale(0.015625)"/>
       <path id="DejaVuSans-73" d="M 2834 3397 
L 2834 2853 
Q 2591 2978 2328 3040 
Q 2066 3103 1784 3103 
Q 1356 3103 1142 2972 
Q 928 2841 928 2578 
Q 928 2378 1081 2264 
Q 1234 2150 1697 2047 
L 1894 2003 
Q 2506 1872 2764 1633 
Q 3022 1394 3022 966 
Q 3022 478 2636 193 
Q 2250 -91 1575 -91 
Q 1294 -91 989 -36 
Q 684 19 347 128 
L 347 722 
Q 666 556 975 473 
Q 1284 391 1588 391 
Q 1994 391 2212 530 
Q 2431 669 2431 922 
Q 2431 1156 2273 1281 
Q 2116 1406 1581 1522 
L 1381 1569 
Q 847 1681 609 1914 
Q 372 2147 372 2553 
Q 372 3047 722 3315 
Q 1072 3584 1716 3584 
Q 2034 3584 2315 3537 
Q 2597 3491 2834 3397 
z
" transform="scale(0.015625)"/>
       <path id="DejaVuSans-2d" d="M 313 2009 
L 1997 2009 
L 1997 1497 
L 313 1497 
L 313 2009 
z
" transform="scale(0.015625)"/>
       <path id="DejaVuSans-4b" d="M 628 4666 
L 1259 4666 
L 1259 2694 
L 3353 4666 
L 4166 4666 
L 1850 2491 
L 4331 0 
L 3500 0 
L 1259 2247 
L 1259 0 
L 628 0 
L 628 4666 
z
" transform="scale(0.015625)"/>
       <path id="DejaVuSans-20" transform="scale(0.015625)"/>
       <path id="DejaVuSans-4d" d="M 628 4666 
L 1569 4666 
L 2759 1491 
L 3956 4666 
L 4897 4666 
L 4897 0 
L 4281 0 
L 4281 4097 
L 3078 897 
L 2444 897 
L 1241 4097 
L 1241 0 
L 628 0 
L 628 4666 
z
" transform="scale(0.015625)"/>
      </defs>
      <use xlink:href="#DejaVuSans-4c"/>
      <use xlink:href="#DejaVuSans-75" x="53.962891"/>
      <use xlink:href="#DejaVuSans-63" x="117.341797"/>
      <use xlink:href="#DejaVuSans-61" x="172.322266"/>
      <use xlink:href="#DejaVuSans-73" x="233.601562"/>
      <use xlink:href="#DejaVuSans-2d" x="285.701172"/>
      <use xlink:href="#DejaVuSans-4b" x="321.785156"/>
      <use xlink:href="#DejaVuSans-61" x="385.611328"/>
      <use xlink:href="#DejaVuSans-6e" x="446.890625"/>
      <use xlink:href="#DejaVuSans-61" x="510.269531"/>
      <use xlink:href="#DejaVuSans-64" x="571.548828"/>
      <use xlink:href="#DejaVuSans-65" x="635.025391"/>
      <use xlink:href="#DejaVuSans-20" x="696.548828"/>
      <use xlink:href="#DejaVuSans-28" x="728.335938"/>
      <use xlink:href="#DejaVuSans-4d" x="767.349609"/>
      <use xlink:href="#DejaVuSans-61" x="853.628906"/>
      <use xlink:href="#DejaVuSans-6e" x="914.908203"/>
      <use xlink:href="#DejaVuSans-6f" x="978.287109"/>
      <use xlink:href="#DejaVuSans-29" x="1039.46875"/>
     </g>
    </g>
    <g id="line2d_23">
     <path d="M 256.548125 83.926688 
L 266.548125 83.926688 
L 276.548125 83.926688 
" style="fill: none; stroke: #ffa500; stroke-width: 1.5; stroke-linecap: square"/>
    </g>
    <g id="text_20">
     <!-- Lucas-Kanade (OpenCV) -->
     <g transform="translate(284.548125 87.426688) scale(0.1 -0.1)">
      <defs>
       <path id="DejaVuSans-4f" d="M 2522 4238 
Q 1834 4238 1429 3725 
Q 1025 3213 1025 2328 
Q 1025 1447 1429 934 
Q 1834 422 2522 422 
Q 3209 422 3611 934 
Q 4013 1447 4013 2328 
Q 4013 3213 3611 3725 
Q 3209 4238 2522 4238 
z
M 2522 4750 
Q 3503 4750 4090 4092 
Q 4678 3434 4678 2328 
Q 4678 1225 4090 567 
Q 3503 -91 2522 -91 
Q 1538 -91 948 565 
Q 359 1222 359 2328 
Q 359 3434 948 4092 
Q 1538 4750 2522 4750 
z
" transform="scale(0.015625)"/>
       <path id="DejaVuSans-70" d="M 1159 525 
L 1159 -1331 
L 581 -1331 
L 581 3500 
L 1159 3500 
L 1159 2969 
Q 1341 3281 1617 3432 
Q 1894 3584 2278 3584 
Q 2916 3584 3314 3078 
Q 3713 2572 3713 1747 
Q 3713 922 3314 415 
Q 2916 -91 2278 -91 
Q 1894 -91 1617 61 
Q 1341 213 1159 525 
z
M 3116 1747 
Q 3116 2381 2855 2742 
Q 2594 3103 2138 3103 
Q 1681 3103 1420 2742 
Q 1159 2381 1159 1747 
Q 1159 1113 1420 752 
Q 1681 391 2138 391 
Q 2594 391 2855 752 
Q 3116 1113 3116 1747 
z
" transform="scale(0.015625)"/>
       <path id="DejaVuSans-43" d="M 4122 4306 
L 4122 3641 
Q 3803 3938 3442 4084 
Q 3081 4231 2675 4231 
Q 1875 4231 1450 3742 
Q 1025 3253 1025 2328 
Q 1025 1406 1450 917 
Q 1875 428 2675 428 
Q 3081 428 3442 575 
Q 3803 722 4122 1019 
L 4122 359 
Q 3791 134 3420 21 
Q 3050 -91 2638 -91 
Q 1578 -91 968 557 
Q 359 1206 359 2328 
Q 359 3453 968 4101 
Q 1578 4750 2638 4750 
Q 3056 4750 3426 4639 
Q 3797 4528 4122 4306 
z
" transform="scale(0.015625)"/>
      </defs>
      <use xlink:href="#DejaVuSans-4c"/>
      <use xlink:href="#DejaVuSans-75" x="53.962891"/>
      <use xlink:href="#DejaVuSans-63" x="117.341797"/>
      <use xlink:href="#DejaVuSans-61" x="172.322266"/>
      <use xlink:href="#DejaVuSans-73" x="233.601562"/>
      <use xlink:href="#DejaVuSans-2d" x="285.701172"/>
      <use xlink:href="#DejaVuSans-4b" x="321.785156"/>
      <use xlink:href="#DejaVuSans-61" x="385.611328"/>
      <use xlink:href="#DejaVuSans-6e" x="446.890625"/>
      <use xlink:href="#DejaVuSans-61" x="510.269531"/>
      <use xlink:href="#DejaVuSans-64" x="571.548828"/>
      <use xlink:href="#DejaVuSans-65" x="635.025391"/>
      <use xlink:href="#DejaVuSans-20" x="696.548828"/>
      <use xlink:href="#DejaVuSans-28" x="728.335938"/>
      <use xlink:href="#DejaVuSans-4f" x="767.349609"/>
      <use xlink:href="#DejaVuSans-70" x="846.060547"/>
      <use xlink:href="#DejaVuSans-65" x="909.537109"/>
      <use xlink:href="#DejaVuSans-6e" x="971.060547"/>
      <use xlink:href="#DejaVuSans-43" x="1034.439453"/>
      <use xlink:href="#DejaVuSans-56" x="1104.263672"/>
      <use xlink:href="#DejaVuSans-29" x="1172.671875"/>
     </g>
    </g>
    <g id="line2d_24">
     <path d="M 256.548125 98.604813 
L 266.548125 98.604813 
L 276.548125 98.604813 
" style="fill: none; stroke: #ffff00; stroke-width: 1.5; stroke-linecap: square"/>
    </g>
    <g id="text_21">
     <!-- RAFT (large) -->
     <g transform="translate(284.548125 102.104813) scale(0.1 -0.1)">
      <defs>
       <path id="DejaVuSans-52" d="M 2841 2188 
Q 3044 2119 3236 1894 
Q 3428 1669 3622 1275 
L 4263 0 
L 3584 0 
L 2988 1197 
Q 2756 1666 2539 1819 
Q 2322 1972 1947 1972 
L 1259 1972 
L 1259 0 
L 628 0 
L 628 4666 
L 2053 4666 
Q 2853 4666 3247 4331 
Q 3641 3997 3641 3322 
Q 3641 2881 3436 2590 
Q 3231 2300 2841 2188 
z
M 1259 4147 
L 1259 2491 
L 2053 2491 
Q 2509 2491 2742 2702 
Q 2975 2913 2975 3322 
Q 2975 3731 2742 3939 
Q 2509 4147 2053 4147 
L 1259 4147 
z
" transform="scale(0.015625)"/>
       <path id="DejaVuSans-41" d="M 2188 4044 
L 1331 1722 
L 3047 1722 
L 2188 4044 
z
M 1831 4666 
L 2547 4666 
L 4325 0 
L 3669 0 
L 3244 1197 
L 1141 1197 
L 716 0 
L 50 0 
L 1831 4666 
z
" transform="scale(0.015625)"/>
       <path id="DejaVuSans-54" d="M -19 4666 
L 3928 4666 
L 3928 4134 
L 2272 4134 
L 2272 0 
L 1638 0 
L 1638 4134 
L -19 4134 
L -19 4666 
z
" transform="scale(0.015625)"/>
       <path id="DejaVuSans-67" d="M 2906 1791 
Q 2906 2416 2648 2759 
Q 2391 3103 1925 3103 
Q 1463 3103 1205 2759 
Q 947 2416 947 1791 
Q 947 1169 1205 825 
Q 1463 481 1925 481 
Q 2391 481 2648 825 
Q 2906 1169 2906 1791 
z
M 3481 434 
Q 3481 -459 3084 -895 
Q 2688 -1331 1869 -1331 
Q 1566 -1331 1297 -1286 
Q 1028 -1241 775 -1147 
L 775 -588 
Q 1028 -725 1275 -790 
Q 1522 -856 1778 -856 
Q 2344 -856 2625 -561 
Q 2906 -266 2906 331 
L 2906 616 
Q 2728 306 2450 153 
Q 2172 0 1784 0 
Q 1141 0 747 490 
Q 353 981 353 1791 
Q 353 2603 747 3093 
Q 1141 3584 1784 3584 
Q 2172 3584 2450 3431 
Q 2728 3278 2906 2969 
L 2906 3500 
L 3481 3500 
L 3481 434 
z
" transform="scale(0.015625)"/>
      </defs>
      <use xlink:href="#DejaVuSans-52"/>
      <use xlink:href="#DejaVuSans-41" x="65.482422"/>
      <use xlink:href="#DejaVuSans-46" x="133.890625"/>
      <use xlink:href="#DejaVuSans-54" x="189.660156"/>
      <use xlink:href="#DejaVuSans-20" x="250.744141"/>
      <use xlink:href="#DejaVuSans-28" x="282.53125"/>
      <use xlink:href="#DejaVuSans-6c" x="321.544922"/>
      <use xlink:href="#DejaVuSans-61" x="349.328125"/>
      <use xlink:href="#DejaVuSans-72" x="410.607422"/>
      <use xlink:href="#DejaVuSans-67" x="449.970703"/>
      <use xlink:href="#DejaVuSans-65" x="513.447266"/>
      <use xlink:href="#DejaVuSans-29" x="574.970703"/>
     </g>
    </g>
    <g id="line2d_25">
     <path d="M 256.548125 113.282938 
L 266.548125 113.282938 
L 276.548125 113.282938 
" style="fill: none; stroke: #800080; stroke-width: 1.5; stroke-linecap: square"/>
    </g>
    <g id="text_22">
     <!-- RAFT (small) -->
     <g transform="translate(284.548125 116.782938) scale(0.1 -0.1)">
      <defs>
       <path id="DejaVuSans-6d" d="M 3328 2828 
Q 3544 3216 3844 3400 
Q 4144 3584 4550 3584 
Q 5097 3584 5394 3201 
Q 5691 2819 5691 2113 
L 5691 0 
L 5113 0 
L 5113 2094 
Q 5113 2597 4934 2840 
Q 4756 3084 4391 3084 
Q 3944 3084 3684 2787 
Q 3425 2491 3425 1978 
L 3425 0 
L 2847 0 
L 2847 2094 
Q 2847 2600 2669 2842 
Q 2491 3084 2119 3084 
Q 1678 3084 1418 2786 
Q 1159 2488 1159 1978 
L 1159 0 
L 581 0 
L 581 3500 
L 1159 3500 
L 1159 2956 
Q 1356 3278 1631 3431 
Q 1906 3584 2284 3584 
Q 2666 3584 2933 3390 
Q 3200 3197 3328 2828 
z
" transform="scale(0.015625)"/>
      </defs>
      <use xlink:href="#DejaVuSans-52"/>
      <use xlink:href="#DejaVuSans-41" x="65.482422"/>
      <use xlink:href="#DejaVuSans-46" x="133.890625"/>
      <use xlink:href="#DejaVuSans-54" x="189.660156"/>
      <use xlink:href="#DejaVuSans-20" x="250.744141"/>
      <use xlink:href="#DejaVuSans-28" x="282.53125"/>
      <use xlink:href="#DejaVuSans-73" x="321.544922"/>
      <use xlink:href="#DejaVuSans-6d" x="373.644531"/>
      <use xlink:href="#DejaVuSans-61" x="471.056641"/>
      <use xlink:href="#DejaVuSans-6c" x="532.335938"/>
      <use xlink:href="#DejaVuSans-6c" x="560.119141"/>
      <use xlink:href="#DejaVuSans-29" x="587.902344"/>
     </g>
    </g>
    <g id="line2d_26">
     <path d="M 256.548125 127.961063 
L 266.548125 127.961063 
L 276.548125 127.961063 
" style="fill: none; stroke: #ff0000; stroke-width: 1.5; stroke-linecap: square"/>
    </g>
    <g id="text_23">
     <!-- YOLO+distancia -->
     <g transform="translate(284.548125 131.461063) scale(0.1 -0.1)">
      <defs>
       <path id="DejaVuSans-59" d="M -13 4666 
L 666 4666 
L 1959 2747 
L 3244 4666 
L 3922 4666 
L 2272 2222 
L 2272 0 
L 1638 0 
L 1638 2222 
L -13 4666 
z
" transform="scale(0.015625)"/>
       <path id="DejaVuSans-2b" d="M 2944 4013 
L 2944 2272 
L 4684 2272 
L 4684 1741 
L 2944 1741 
L 2944 0 
L 2419 0 
L 2419 1741 
L 678 1741 
L 678 2272 
L 2419 2272 
L 2419 4013 
L 2944 4013 
z
" transform="scale(0.015625)"/>
      </defs>
      <use xlink:href="#DejaVuSans-59"/>
      <use xlink:href="#DejaVuSans-4f" x="55.583984"/>
      <use xlink:href="#DejaVuSans-4c" x="134.294922"/>
      <use xlink:href="#DejaVuSans-4f" x="186.382812"/>
      <use xlink:href="#DejaVuSans-2b" x="265.09375"/>
      <use xlink:href="#DejaVuSans-64" x="348.882812"/>
      <use xlink:href="#DejaVuSans-69" x="412.359375"/>
      <use xlink:href="#DejaVuSans-73" x="440.142578"/>
      <use xlink:href="#DejaVuSans-74" x="492.242188"/>
      <use xlink:href="#DejaVuSans-61" x="531.451172"/>
      <use xlink:href="#DejaVuSans-6e" x="592.730469"/>
      <use xlink:href="#DejaVuSans-63" x="656.109375"/>
      <use xlink:href="#DejaVuSans-69" x="711.089844"/>
      <use xlink:href="#DejaVuSans-61" x="738.873047"/>
     </g>
    </g>
   </g>
  </g>
 </g>
 <defs>
  <clipPath id="p1212cf7357">
   <rect x="57.6" y="41.472" width="357.12" height="266.112"/>
  </clipPath>
 </defs>
</svg>
